<svg width="132" height="132" viewBox="0 0 132 132" fill="none" xmlns="http://www.w3.org/2000/svg">
  <g filter="url(#a)">
    <rect x="6" y="4" width="120" height="120" rx="10" fill="#fff"/>
  </g>
  <g clip-path="url(#b)" fill="#BEBEBE">
    <path d="M67.62 26 29 64.62a27.27 27.27 0 0 0 25.48 6.01l.04-7.32a20.42 20.42 0 0 1-14.41.04L66.35 37.1A20.43 20.43 0 0 1 66 52.24l7.38.04a27.37 27.37 0 0 0-5.77-26.29l.01.01Z"/>
    <path d="M85.7 55.55c-2.36 0-4.73.31-7.03.91l-.04 7.29a20.51 20.51 0 0 1 14.21.04L66.59 90.04a20.46 20.46 0 0 1-.21-13.68l-7.23-.04a27.35 27.35 0 0 0 6.17 24.83l38.62-38.62a27.26 27.26 0 0 0-18.24-6.97v-.01Z"/>
    <path d="M73.2 57.6H59.86v13.34H73.2V57.6Z"/>
  </g>
  <defs>
    <clipPath id="b">
      <path fill="#fff" d="M29 26h74.94v75.14H29z"/>
    </clipPath>
    <filter id="a" x="0" y="0" width="132" height="132" filterUnits="userSpaceOnUse" color-interpolation-filters="sRGB">
      <feFlood flood-opacity="0" result="BackgroundImageFix"/>
      <feColorMatrix in="SourceAlpha" values="0 0 0 0 0 0 0 0 0 0 0 0 0 0 0 0 0 0 127 0" result="hardAlpha"/>
      <feOffset dy="2"/>
      <feGaussianBlur stdDeviation="3"/>
      <feComposite in2="hardAlpha" operator="out"/>
      <feColorMatrix values="0 0 0 0 0 0 0 0 0 0 0 0 0 0 0 0 0 0 0.08 0"/>
      <feBlend in2="BackgroundImageFix" result="effect1_dropShadow_2690_22874"/>
      <feBlend in="SourceGraphic" in2="effect1_dropShadow_2690_22874" result="shape"/>
    </filter>
  </defs>
</svg>