<svg width="132" height="132" viewBox="0 0 132 132" fill="none" xmlns="http://www.w3.org/2000/svg">
  <g filter="url(#a)">
    <rect x="6" y="4" width="120" height="120" rx="10" fill="url(#b)"/>
  </g>
  <g clip-path="url(#c)" fill="#fff">
    <path d="M67.37 35 38 64.3a20.77 20.77 0 0 0 19.38 4.56l.03-5.56a15.57 15.57 0 0 1-10.96.03l19.96-19.91c1.4 3.71 1.3 7.84-.27 11.49l5.62.03a20.72 20.72 0 0 0-4.4-19.95l.01.01Z"/>
    <path d="M81.13 57.42c-1.8 0-3.6.23-5.35.69l-.03 5.53a15.64 15.64 0 0 1 10.8.03L66.6 83.58a15.48 15.48 0 0 1-.16-10.38l-5.5-.03a20.7 20.7 0 0 0 4.7 18.84L95 62.7a20.76 20.76 0 0 0-13.87-5.29Z"/>
    <path d="M71.62 58.97H61.47V69.1h10.15V58.97Z"/>
  </g>
  <defs>
    <linearGradient id="b" x1="6" y1="4" x2="127.5" y2="126" gradientUnits="userSpaceOnUse">
      <stop offset=".35" stop-color="#FF6525"/>
      <stop offset="1" stop-color="#EC3702"/>
    </linearGradient>
    <clipPath id="c">
      <path fill="#fff" d="M38 35h57v57H38z"/>
    </clipPath>
    <filter id="a" x="0" y="0" width="132" height="132" filterUnits="userSpaceOnUse" color-interpolation-filters="sRGB">
      <feFlood flood-opacity="0" result="BackgroundImageFix"/>
      <feColorMatrix in="SourceAlpha" values="0 0 0 0 0 0 0 0 0 0 0 0 0 0 0 0 0 0 127 0" result="hardAlpha"/>
      <feOffset dy="2"/>
      <feGaussianBlur stdDeviation="3"/>
      <feComposite in2="hardAlpha" operator="out"/>
      <feColorMatrix values="0 0 0 0 0 0 0 0 0 0 0 0 0 0 0 0 0 0 0.08 0"/>
      <feBlend in2="BackgroundImageFix" result="effect1_dropShadow_2156_13467"/>
      <feBlend in="SourceGraphic" in2="effect1_dropShadow_2156_13467" result="shape"/>
    </filter>
  </defs>
</svg>