<svg xmlns="http://www.w3.org/2000/svg" fill="none" viewBox="0 0 132 132">
  <g filter="url(#filter0_d_2469_24153)">
    <rect width="120" height="120" x="6" y="4" fill="url(#paint0_linear_2469_24153)" rx="10"/>
  </g>
  <path fill="#fff" fill-rule="evenodd" d="M52 41.06c-3.87 0-7 3.16-7 7.06 0 2.09.9 3.96 2.33 5.26a3.55 3.55 0 0 1 .28 4.98 3.48 3.48 0 0 1-4.94.28A14.14 14.14 0 0 1 38 48.12C38 40.32 44.27 34 52 34a13.9 13.9 0 0 1 9.33 3.6 3.55 3.55 0 0 1 .28 4.98 3.48 3.48 0 0 1-4.94.28 6.93 6.93 0 0 0-4.67-1.8Zm18.67-3.46A13.9 13.9 0 0 1 80 34c7.73 0 14 6.32 14 14.12 0 4.18-1.8 7.94-4.67 10.52a3.48 3.48 0 0 1-4.94-.28 3.55 3.55 0 0 1 .28-4.98A7.06 7.06 0 0 0 87 48.12c0-3.9-3.13-7.06-7-7.06-1.8 0-3.42.68-4.67 1.8a3.48 3.48 0 0 1-4.94-.28 3.55 3.55 0 0 1 .28-4.98ZM66 51.65c-3.87 0-7 3.16-7 7.06 0 3.9 3.13 7.05 7 7.05s7-3.16 7-7.05c0-3.9-3.13-7.06-7-7.06ZM52 58.7c0-7.8 6.27-14.12 14-14.12S80 50.9 80 58.7c0 7.8-6.27 14.11-14 14.11S52 66.5 52 58.71Zm-3.61 10.57a3.53 3.53 0 0 1-2.5 4.31 14.8 14.8 0 0 0-6.12 3.05C38.44 77.85 38 78.98 38 79.88a3.51 3.51 0 0 1-3.5 3.53 3.51 3.51 0 0 1-3.5-3.53c0-3.43 1.72-6.34 4.1-8.49a21.69 21.69 0 0 1 9.01-4.63 3.5 3.5 0 0 1 4.28 2.52Zm35.22 0a3.5 3.5 0 0 1 4.28-2.52c3.5.93 6.66 2.49 9.02 4.63 2.37 2.15 4.09 5.06 4.09 8.5a3.51 3.51 0 0 1-3.5 3.52 3.51 3.51 0 0 1-3.5-3.53c0-.9-.44-2.03-1.77-3.24a14.8 14.8 0 0 0-6.12-3.05 3.53 3.53 0 0 1-2.5-4.3ZM51.82 79.96c3.8-2.3 8.82-3.6 14.18-3.6 5.36 0 10.38 1.3 14.18 3.6C83.9 82.2 87 85.82 87 90.47A3.51 3.51 0 0 1 83.5 94a3.51 3.51 0 0 1-3.5-3.53c0-1.2-.82-2.88-3.43-4.46-2.53-1.53-6.26-2.6-10.57-2.6-4.3 0-8.04 1.07-10.57 2.6-2.61 1.58-3.43 3.26-3.43 4.46A3.51 3.51 0 0 1 48.5 94a3.51 3.51 0 0 1-3.5-3.53c0-4.65 3.1-8.26 6.82-10.51Z" clip-rule="evenodd"/>
  <defs>
    <linearGradient id="paint0_linear_2469_24153" x1="6" x2="121.48" y1="4" y2="121.02" gradientUnits="userSpaceOnUse">
      <stop offset=".37" stop-color="#FFD02A"/>
      <stop offset="1" stop-color="#FFAC27"/>
    </linearGradient>
    <filter id="filter0_d_2469_24153" width="132" height="132" x="0" y="0" color-interpolation-filters="sRGB" filterUnits="userSpaceOnUse">
      <feFlood flood-opacity="0" result="BackgroundImageFix"/>
      <feColorMatrix in="SourceAlpha" result="hardAlpha" values="0 0 0 0 0 0 0 0 0 0 0 0 0 0 0 0 0 0 127 0"/>
      <feOffset dy="2"/>
      <feGaussianBlur stdDeviation="3"/>
      <feComposite in2="hardAlpha" operator="out"/>
      <feColorMatrix values="0 0 0 0 0 0 0 0 0 0 0 0 0 0 0 0 0 0 0.08 0"/>
      <feBlend in2="BackgroundImageFix" result="effect1_dropShadow_2469_24153"/>
      <feBlend in="SourceGraphic" in2="effect1_dropShadow_2469_24153" result="shape"/>
    </filter>
  </defs>
</svg>