<svg xmlns="http://www.w3.org/2000/svg" fill="none" viewBox="0 0 132 132">
  <g filter="url(#filter0_d_2156_13458)">
    <rect width="120" height="120" x="6" y="4" fill="url(#paint0_linear_2156_13458)" rx="10"/>
  </g>
  <path fill="#fff" d="m57.46 75.57-.34.34.01.02.34-.34-.01-.02Z"/>
  <path fill="#fff" d="M100.41 75.3 76.96 52.02a2.02 2.02 0 0 0-2.84 0l-7.62 7.57-7.62-7.57a2.02 2.02 0 0 0-2.84 0L32.59 75.3a1.98 1.98 0 0 0 0 2.82l9.73 9.66c.79.78 2.06.78 2.84 0l7.62-7.57 7.63 7.57c.78.78 2.05.78 2.83 0l6.8-6.75 5.48-5.44.02-.02 12.3 12.21c.78.78 2.06.78 2.84 0l9.73-9.66c.79-.78.79-2.04 0-2.82Zm-56.67 6.85-5.48-5.44 19.2-19.06 5.5 5.46-5.48 5.44-.02-.02-13.72 13.62Zm45.52 0-4.63-4.6-9.09-9.02-3.56 3.54-5.48 5.44-3.55 3.52-1.13 1.12-5.47-5.44.78-.78-.01-.02.34-.34.02.02 3.54-3.52 5.48-5.44 3.55-3.52 5.5-5.46 19.19 19.06-5.48 5.44Z"/>
  <path fill="#fff" d="m66.5 38.18-7.68 7.63 7.69 7.63 7.68-7.63-7.68-7.63Z"/>
  <defs>
    <linearGradient id="paint0_linear_2156_13458" x1="6" x2="126" y1="-6" y2="124" gradientUnits="userSpaceOnUse">
      <stop offset=".39" stop-color="#36B20B"/>
      <stop offset="1" stop-color="#238900"/>
    </linearGradient>
    <filter id="filter0_d_2156_13458" width="132" height="132" x="0" y="0" color-interpolation-filters="sRGB" filterUnits="userSpaceOnUse">
      <feFlood flood-opacity="0" result="BackgroundImageFix"/>
      <feColorMatrix in="SourceAlpha" result="hardAlpha" values="0 0 0 0 0 0 0 0 0 0 0 0 0 0 0 0 0 0 127 0"/>
      <feOffset dy="2"/>
      <feGaussianBlur stdDeviation="3"/>
      <feComposite in2="hardAlpha" operator="out"/>
      <feColorMatrix values="0 0 0 0 0 0 0 0 0 0 0 0 0 0 0 0 0 0 0.08 0"/>
      <feBlend in2="BackgroundImageFix" result="effect1_dropShadow_2156_13458"/>
      <feBlend in="SourceGraphic" in2="effect1_dropShadow_2156_13458" result="shape"/>
    </filter>
  </defs>
</svg>