<svg xmlns="http://www.w3.org/2000/svg" fill="none" viewBox="0 0 132 132">
  <g filter="url(#filter0_d_2690_22895)">
    <rect width="120" height="120" x="6" y="4" fill="#fff" rx="10"/>
  </g>
  <path fill="#BEBEBE" fill-rule="evenodd" d="M56.84 75.71a15.4 15.4 0 0 1-8 4.32c-3.02.58-6.13.23-8.96-1.02A15.8 15.8 0 0 1 32.95 73a16.83 16.83 0 0 1 0-18.01 15.8 15.8 0 0 1 6.93-6.02 15.02 15.02 0 0 1 8.96-1.02 15.4 15.4 0 0 1 8 4.31 14.08 14.08 0 0 1 7.13-3.16 22.95 22.95 0 0 0-11.59-8.14 22.04 22.04 0 0 0-13.96.37c-4.5 1.64-8.4 4.7-11.17 8.76A24.71 24.71 0 0 0 23 63.98c0 4.98 1.48 9.83 4.25 13.9a23.09 23.09 0 0 0 11.17 8.75 22.04 22.04 0 0 0 13.96.37 22.95 22.95 0 0 0 11.6-8.14 14.02 14.02 0 0 1-7.13-3.15ZM86.05 40c-3.47 0-6.89.83-10 2.41a23.18 23.18 0 0 0-8.01 6.73c2.58.41 5 1.56 7 3.3a15.44 15.44 0 0 1 8-4.44c3.03-.62 6.17-.29 9.02.95a15.8 15.8 0 0 1 7 6.01 16.84 16.84 0 0 1 2.63 9.06c0 3.22-.91 6.38-2.63 9.06a15.8 15.8 0 0 1-7 6.01 15.02 15.02 0 0 1-9.02.95 15.43 15.43 0 0 1-8-4.44c-2 1.74-4.42 2.89-7 3.3a23.1 23.1 0 0 0 9.15 7.25 22.09 22.09 0 0 0 22.1-2.54 23.75 23.75 0 0 0 7.43-9.14 24.89 24.89 0 0 0-1.21-23.18 23.42 23.42 0 0 0-8.34-8.25c-3.4-1.96-7.23-3-11.12-3V40ZM74.46 63.99c0 4.97-3.86 9-8.62 9s-8.61-4.03-8.61-9 3.85-9 8.61-9 8.62 4.03 8.62 9Z" clip-rule="evenodd"/>
  <defs>
    <filter id="filter0_d_2690_22895" width="132" height="132" x="0" y="0" color-interpolation-filters="sRGB" filterUnits="userSpaceOnUse">
      <feFlood flood-opacity="0" result="BackgroundImageFix"/>
      <feColorMatrix in="SourceAlpha" result="hardAlpha" values="0 0 0 0 0 0 0 0 0 0 0 0 0 0 0 0 0 0 127 0"/>
      <feOffset dy="2"/>
      <feGaussianBlur stdDeviation="3"/>
      <feComposite in2="hardAlpha" operator="out"/>
      <feColorMatrix values="0 0 0 0 0 0 0 0 0 0 0 0 0 0 0 0 0 0 0.08 0"/>
      <feBlend in2="BackgroundImageFix" result="effect1_dropShadow_2690_22895"/>
      <feBlend in="SourceGraphic" in2="effect1_dropShadow_2690_22895" result="shape"/>
    </filter>
  </defs>
</svg>