<svg xmlns="http://www.w3.org/2000/svg" fill="none" viewBox="0 0 132 132">
  <g filter="url(#filter0_d_2156_13469)">
    <rect width="120" height="120" x="6" y="4" fill="url(#paint0_linear_2156_13469)" rx="10"/>
  </g>
  <path fill="#fff" d="M76.14 64.68a31.92 31.92 0 0 0-12.34 13.3 31.98 31.98 0 0 0-14.63-14.53A32.11 32.11 0 0 0 63.8 48.92 32 32 0 0 0 76.1 62.2l4.67-4.62a25.62 25.62 0 0 1-13.08-16.3c-.18-.7-.58-3.21-.6-3.88a2.54 2.54 0 0 0-2.55-2.4h-1.52a2.53 2.53 0 0 0-2.54 2.4c-.03.66-.42 3.18-.6 3.88a25.68 25.68 0 0 1-18.54 18.36h-.03c-.9.23-2.54.36-3.92.44A2.53 2.53 0 0 0 35 62.6v1.7a2.53 2.53 0 0 0 2.4 2.5c1.38.08 3.02.22 3.92.44h.03A25.69 25.69 0 0 1 59.9 85.71c.1.39.3 2.36.44 4A2.53 2.53 0 0 0 62.87 92h1.83c1.32 0 2.41-1 2.53-2.3.15-1.62.34-3.6.44-4a25.6 25.6 0 0 1 13.14-16.4l-4.67-4.62ZM99 63.43l-8.58 8.49-4.61-4.55-3.98-3.94 8.59-8.5 8.58 8.5Z"/>
  <defs>
    <linearGradient id="paint0_linear_2156_13469" x1="6" x2="129" y1="4" y2="124" gradientUnits="userSpaceOnUse">
      <stop offset=".33" stop-color="#FC2197"/>
      <stop offset="1" stop-color="#CA0085"/>
    </linearGradient>
    <filter id="filter0_d_2156_13469" width="132" height="132" x="0" y="0" color-interpolation-filters="sRGB" filterUnits="userSpaceOnUse">
      <feFlood flood-opacity="0" result="BackgroundImageFix"/>
      <feColorMatrix in="SourceAlpha" result="hardAlpha" values="0 0 0 0 0 0 0 0 0 0 0 0 0 0 0 0 0 0 127 0"/>
      <feOffset dy="2"/>
      <feGaussianBlur stdDeviation="3"/>
      <feComposite in2="hardAlpha" operator="out"/>
      <feColorMatrix values="0 0 0 0 0 0 0 0 0 0 0 0 0 0 0 0 0 0 0.08 0"/>
      <feBlend in2="BackgroundImageFix" result="effect1_dropShadow_2156_13469"/>
      <feBlend in="SourceGraphic" in2="effect1_dropShadow_2156_13469" result="shape"/>
    </filter>
  </defs>
</svg>