<svg xmlns="http://www.w3.org/2000/svg" width="31" height="30" viewBox="0 0 31 30" fill="none">
<path d="M1.01119 16.8919L6.23372 18.3625C6.53181 18.446 6.67092 18.7838 6.51989 19.0541L5.82434 20.3021C5.71703 20.4968 5.75678 20.7433 5.92371 20.8903L9.27423 23.8792C9.43719 24.0262 9.67964 24.0421 9.85849 23.9189L11.1502 23.0405C11.4443 22.8418 11.8418 23.0167 11.8895 23.3664L12.585 28.2909C12.6407 28.6804 13.1176 28.8394 13.3958 28.5611L17.6883 24.2528C17.7122 24.2289 17.736 24.209 17.7638 24.1931C17.9904 24.0421 19.0834 23.2035 18.5031 21.4229C18.4951 21.403 18.4872 21.3792 18.4792 21.3593L17.744 19.7536C17.6327 19.5111 17.7479 19.225 17.9944 19.1177C24.0277 16.4945 27.2192 11.26 28.8051 6.87214C29.7669 4.20921 30.1683 1.61782 30.3035 0.532771C30.3392 0.24263 30.1087 -0.00776481 29.8186 0.000184244C27.4537 0.0478786 17.8751 0.96202 10.7885 12.1901C10.6574 12.3967 10.3951 12.4762 10.1765 12.3689L7.5016 11.0533C7.5016 11.0533 6.78618 10.4373 5.13675 11.9317L0.812464 16.0851C0.546171 16.3434 0.657457 16.7886 1.01119 16.8919ZM21.1342 6.87214C21.48 5.98582 22.4458 5.45324 23.3798 5.63209C24.6318 5.87454 25.3353 7.17818 24.8743 8.34669C24.5285 9.23302 23.5627 9.7656 22.6287 9.58675C21.3767 9.3443 20.6772 8.04066 21.1342 6.87214Z" fill="#0072FF"/>
<path d="M0.796893 26.6253C0.999594 26.6253 1.20229 26.5458 1.3573 26.3908L5.00989 22.7382C5.31991 22.4281 5.31991 21.9234 5.00989 21.6134C4.69988 21.3034 4.19511 21.3034 3.8851 21.6134L0.23251 25.266C-0.0775033 25.576 -0.0775033 26.0807 0.23251 26.3908C0.391491 26.5458 0.594192 26.6253 0.796893 26.6253Z" fill="#0072FF"/>
<path d="M7.26376 24.9884L3.61117 28.641C3.30116 28.951 3.30116 29.4557 3.61117 29.7658C3.76618 29.9208 3.96888 30.0003 4.17158 30.0003C4.37428 30.0003 4.57698 29.9208 4.73199 29.7658L8.38458 26.1132C8.69459 25.8031 8.69459 25.2984 8.38458 24.9884C8.07457 24.6784 7.57378 24.6784 7.26376 24.9884Z" fill="#0072FF"/>
<path d="M0.79658 29.9997C0.999281 29.9997 1.20198 29.9202 1.35699 29.7652L6.69478 24.4235C7.00479 24.1135 7.00479 23.6087 6.69478 23.2987C6.38477 22.9887 5.88 22.9887 5.56999 23.2987L0.236172 28.6404C-0.0738412 28.9505 -0.0738412 29.4552 0.236172 29.7652C0.391179 29.9202 0.59388 29.9997 0.79658 29.9997Z" fill="#0072FF"/>
</svg>