<svg xmlns="http://www.w3.org/2000/svg" width="501" height="437" fill="none">
  <g clip-path="url(#a)">
    <path d="m181 258.6-17.9 17 2-19.6-20.4 4.6 11.9-14.6h-33.2v-.4l27-15.8-25-9.2c8.2-2 16-4.1 23.9-6.2L136 196.7l26.2 2-3-20.6 20 11.9 7-22.4 13 25 17.2-16.6-2.4 25.7 22.1-12.3-6.6 18 22.6-1.7.1.2-19 12.8 31.2 7v.2l-32.3 4.7 16.5 14.2-18 1 8.7 18.9-21.9-9.2-1.5 20.4-16.2-16.5-10.7 20.8-8-21.6Z" fill="#FFDCD9"/>
    <path d="M284.3 248.3v48.5c0 4.3-3.5 7.8-7.8 7.8H185a7.7 7.7 0 0 1-7.7-7.8v-48.5h107Z" fill="#fff"/>
    <path d="M276.5 305.2H185a8.3 8.3 0 0 1-8.3-8.4v-48.5c0-.3.2-.6.6-.6h107c.3 0 .6.3.6.6v48.5c0 4.6-3.8 8.4-8.4 8.4ZM178 248.9v48c0 3.9 3.2 7 7 7h91.6c4 0 7.2-3.1 7.2-7v-48H177.9Z" fill="#1A1B22"/>
    <path d="M284.3 236.1v12.2h-107v-12.2c0-3.8 3-6.9 6.8-6.9h93.3c3.8 0 6.9 3.1 6.9 7Z" fill="#fff"/>
    <path d="M284.3 249h-107a.6.6 0 0 1-.7-.7v-12.2c0-4.1 3.4-7.5 7.5-7.5h93.3c4.1 0 7.5 3.4 7.5 7.5v12.2c0 .4-.3.6-.6.6Zm-106.4-1.3h105.8v-11.6c0-3.5-2.8-6.3-6.3-6.3h-93.3a6.3 6.3 0 0 0-6.2 6.3v11.6Z" fill="#1A1B22"/>
    <path d="M187.3 242.5a3.3 3.3 0 1 0 0-6.6 3.3 3.3 0 0 0 0 6.6Z" fill="#fff"/>
    <path d="M187.3 243.1a4 4 0 1 1 0-7.9 4 4 0 0 1 0 8Zm0-6.6a2.7 2.7 0 1 0 0 5.4 2.7 2.7 0 0 0 0-5.4Z" fill="#1A1B22"/>
    <path d="M199.2 242.5a3.3 3.3 0 1 0 0-6.6 3.3 3.3 0 0 0 0 6.6Z" fill="#fff"/>
    <path d="M199.2 243.1a4 4 0 1 1 0-7.9 4 4 0 0 1 0 8Zm0-6.6a2.7 2.7 0 1 0 0 5.4 2.7 2.7 0 0 0 0-5.4Z" fill="#1A1B22"/>
    <path d="M211.2 242.5a3.3 3.3 0 1 0 0-6.6 3.3 3.3 0 0 0 0 6.6Z" fill="#fff"/>
    <path d="M211.2 243.1a4 4 0 1 1 0-7.9 4 4 0 0 1 0 8Zm0-6.6a2.7 2.7 0 1 0 0 5.4 2.7 2.7 0 0 0 0-5.4Z" fill="#1A1B22"/>
    <path d="M207.8 298.5a22.6 22.6 0 1 1 .1-45.3 22.6 22.6 0 0 1 0 45.3Zm0-44a21.4 21.4 0 1 0 .1 42.8 21.4 21.4 0 0 0 0-42.8Z" fill="#1A1B22"/>
    <path d="M207.8 288a12 12 0 1 1 0-24.2 12 12 0 0 1 0 24.1Zm0-23a10.8 10.8 0 1 0 0 21.7 10.8 10.8 0 0 0 0-21.7Z" fill="#1A1B22"/>
    <path d="M207.8 280.8a4.4 4.4 0 1 1 0-8.7 4.4 4.4 0 0 1 0 8.7Zm0-7.5a3.1 3.1 0 1 0 0 6.3 3.1 3.1 0 0 0 0-6.3Z" fill="#1A1B22"/>
    <path d="M217.4 270.2c-.2 0-.4 0-.5-.2a.6.6 0 0 1 0-.9l7.6-7.5a.6.6 0 1 1 .9.9l-7.6 7.5-.4.2Z" fill="#1A1B22"/>
    <path d="M207.8 265a.6.6 0 0 1-.6-.6V254a.6.6 0 1 1 1.2 0v10.5c0 .4-.2.6-.6.6Z" fill="#1A1B22"/>
    <path d="M316 295.7V337h-22.9c-17.5.4-28.3-24.2-28.3-24.2l-28.5-70c-5.5 4.1-9.8-5.3-9.8-5.3l-3-5.6c-7.1-14.3 2.5-13.6 2.5-13.6-1.2-8.6 8-8.6 8-8.6 1.3-7 8.1-7 8.2-7L234 185a6.2 6.2 0 0 1 11.4-4.9l11.5 24.3 3.5-2c5.4-2.3 11.9 5.3 9.5 12.4l-3.5 17.4 31.8 63.6H316Z" fill="#fff"/>
    <path d="M396.8 267.5a.6.6 0 0 1 0-1.2c6.7-.7 8.1-5.2 8.4-6.6.5-2.6-.5-5.1-2.4-6.1a4 4 0 0 0-3.3-.2.6.6 0 0 1-.4-1.2c1.5-.5 3-.4 4.3.3 2.4 1.2 3.6 4.3 3 7.4a8.7 8.7 0 0 1-2.9 5c-1.7 1.4-3.9 2.3-6.6 2.6Z" fill="#1A1B22"/>
    <path d="M373 281.3c-1.9 0-3.4-.5-4.6-1-4.3-2-6.2-6.7-6.2-10.2v-13.7c0-.4.2-.7.5-.7.4 0 .7.3.7.6v13.8c0 3.1 1.7 7.3 5.5 9 3.2 1.6 8.8 1.9 17.4-5.3a.6.6 0 1 1 .8 1c-6 5-10.6 6.5-14.1 6.5Z" fill="#1A1B22"/>
    <path d="M399.7 292.1a3 3 0 0 1-2-.8c-1-.9-1.5-2.4-1.5-4.5v-20a.6.6 0 1 1 1.3 0v20c0 1.7.3 3 1 3.6.6.5 1.2.5 1.2.5.3 0 .6.2.7.6 0 .3-.3.6-.6.6h-.1Z" fill="#1A1B22"/>
    <path d="M368.6 294.6h-.7a.6.6 0 0 1 .1-1.2l1.7-.1c2-.6 2.1-3 2.1-3v-9.4a.6.6 0 1 1 1.2 0v9.4c0 .1-.1 3.3-3 4.1a5 5 0 0 1-1.4.2Z" fill="#1A1B22"/>
    <path d="M399.8 249a5 5 0 0 0-.5 3.8c-2 .7-3.6 2.5-4.5 3.5h-.3c.7-1.7 1.6-5.5-3.8-5.3-7 .2-12-12.8-12-12.8-5.7 11.1-16 9.4-16 9.4v8.7c-9.9-1.6-4.4-13.8-4.4-13.8s-17.1-3-8.2-11.3c8.8-8.4 36 1.5 36 1.5 19.4-6.4 16.1 11.4 13.7 16.2Z" fill="#1A1B22"/>
    <path d="M394.8 257h-.3a.6.6 0 0 1-.5-.3.6.6 0 0 1 0-.6c.3-.9.8-2.5 0-3.5-.4-.7-1.6-1-3.2-1h-.2c-6 0-10.5-8.8-12-12a17 17 0 0 1-9.9 8c-2.3.8-4.4.8-5.4.7v8a.6.6 0 0 1-.6.6c-2.7-.4-4.6-1.6-5.6-3.5-2-3.6-.4-8.7.3-10.5-2.3-.5-9.2-2.3-10.3-6.1-.6-2 .3-4 2.5-6.1 8.8-8.2 33.7.4 36.4 1.4 6.7-2.2 11.5-1.7 14.1 1.3 3.6 4.3 2 12.4.2 15.8a4.5 4.5 0 0 0-.4 3.4c0 .3 0 .7-.4.8-1.9.7-3.5 2.4-4.3 3.3 0 .2-.2.3-.4.3Zm-33.3-28.6c-4.5 0-8.5.9-11 3.2-2 1.8-2.7 3.4-2.3 4.8.5 1.6 2.3 3 5.4 4.1 2.4 1 4.8 1.3 4.8 1.4a.6.6 0 0 1 .4.8s-2.7 6.2-.6 10c.7 1.5 2 2.4 4 2.9v-8a.6.6 0 0 1 .6-.6s2.5.4 5.6-.5a16 16 0 0 0 9.8-8.6.6.6 0 0 1 1 0c.1.2 5 12.5 11.4 12.5h.1c2.2 0 3.6.4 4.4 1.5.5.8.6 1.7.5 2.6a11 11 0 0 1 3-2c-.3-1.3 0-2.5.6-3.8 1.6-3 3.2-10.7 0-14.5-2.3-2.6-6.7-3-13-.9h-.4c-.2 0-13.5-4.9-24.3-4.9Z" fill="#1A1B22"/>
    <path d="M457.9 339 419.2 351l7 24.6-77.3 11.7v-48.2H316v-43.5s15 .2 28.3 0L368 294s2.3 12 17.5 10.1c14.9-1.7 14.3-12.6 14.3-12.6l30.1 6.3s9.7-.3 17 15.2l11 26Z" fill="#73E9E7"/>
    <path d="M472.7 361.2c-27.7-2.6-47.5-12.3-59-29a70.6 70.6 0 0 1-11-40.8c.3-12 2.7-20.8 2.8-20.9a.5.5 0 0 1 1 .3c-.1 0-2.6 8.8-2.8 20.6a69.6 69.6 0 0 0 10.9 40.3c11.2 16.4 30.8 26 58.2 28.5a.5.5 0 0 1 0 1Z" fill="#fff"/>
    <path d="M304 394.1h-.3a.5.5 0 0 1-.2-.6 97.5 97.5 0 0 1 23.2-33.2 59.1 59.1 0 0 1 57.8-12.3c3.1.9 6.2 2 9 3.3 1.6-4 4-8.8 7.7-14.6 5.9-9 13.8-15.6 23.6-19.3a65.6 65.6 0 0 1 28.1-3.5c24 1.8 46.4 13.3 47.3 15.2v.6a.5.5 0 0 1-1-.2 109.9 109.9 0 0 0-51.3-14.8 60 60 0 0 0-25 4.6 47 47 0 0 0-20.9 18c-3.4 5.3-6 10.1-7.6 14.4a54 54 0 0 1 11.9 7.4c5.3 4.5 3.4 8 2.4 9.4-2.6 3.3-9.2 4.8-13.5 1.7-2.4-1.7-6.2-6.3-2-18a61.9 61.9 0 0 0-39.9-4.7 58.2 58.2 0 0 0-26 13.5c-8.9 8-16.6 19-23 32.9l-.4.2Zm90-41.5c-.8 2.5-1.4 4.8-1.6 7-.5 4.5.7 8 3.3 9.8 4 2.8 10 1.5 12.2-1.5 1.8-2.3 1-5.3-2.3-8a52.8 52.8 0 0 0-11.5-7.3Zm105.4-23.5Z" fill="#fff"/>
    <path d="M307.5 322.5c-3 0-6-.3-9.3-.9a.5.5 0 1 1 .2-1c11.7 2.2 20.9.5 27.4-5.1 12.5-10.8 11.8-33 11.6-41.4v-3.7a.5.5 0 0 1 1 .5c-.2.3-.1 1.7 0 3.2.2 8.5.9 31-12 42.1a28 28 0 0 1-18.9 6.3Z" fill="#fff"/>
    <path d="M382.6 305c-5 0-9-1.3-11.6-3.8-3.5-3.1-3.6-7-3.6-7.2 0-.3.2-.6.6-.6.3 0 .6.2.6.6 0 0 .2 3.6 3.2 6.3 2.8 2.6 7.1 3.7 12.8 3.3 5.5-.3 9.6-2 12-4.9 2.9-3.3 2.5-7.1 2.5-7.1a.6.6 0 1 1 1.3-.2c0 .2.4 4.4-2.8 8.1-2.7 3.2-7 5-13 5.3l-2 .1Z" fill="#1A1B22"/>
    <path d="M385.9 275s-4.6 10-13.5 9.7v-3.5s7.8-.6 13.5-6.2Z" fill="#1A1B22"/>
    <path d="M372.8 285.3h-.4a.6.6 0 0 1-.6-.6v-3.5c0-.3.3-.6.6-.6 0 0 7.6-.7 13-6 .3-.3.6-.3.8-.1.3.2.4.5.2.7 0 .1-1.2 2.7-3.5 5.2-3 3.2-6.4 5-10.1 5Zm.2-3.5v2.3c5-.1 8.5-3.7 10.5-6.4-4.3 3-8.9 3.8-10.5 4Z" fill="#1A1B22"/>
    <path d="M397.9 262.9h-.1a.6.6 0 0 1-.6-.7c.2-1.7 1.5-5 4.7-5.4a.6.6 0 1 1 .2 1.2c-1.3.1-2.3.9-3 2.2a7 7 0 0 0-.6 2.1c0 .4-.3.6-.6.6Z" fill="#1A1B22"/>
    <path d="M370.4 273.3h-.7a.6.6 0 0 1 0-1.3c4.8.4 6-3.4 6-3.5.2-.3.5-.5.9-.4.3 0 .5.4.4.7 0 0-1.5 4.5-6.6 4.5Z" fill="#1A1B22"/>
    <path d="m370.1 267.9-.8-.1c-.8-.3-1.3-.9-1.7-1.8-.8-2 .7-3.8 1.7-4.6V258a.6.6 0 1 1 1.3 0v3.7c0 .2-.2.4-.3.5-.1.1-2.3 1.5-1.5 3.4.2.5.5.9.9 1 .7.3 1.6-.2 1.6-.2a.6.6 0 0 1 .6 1s-.8.5-1.8.5Z" fill="#1A1B22"/>
    <path d="M375.5 261.1c.7 0 1.2-1 1.2-2.4 0-1.3-.5-2.4-1.2-2.4-.6 0-1.1 1.1-1.1 2.4 0 1.4.5 2.4 1.1 2.4Z" fill="#1A1B22"/>
    <path d="M365.6 261.1c.6 0 1.1-1 1.1-2.4 0-1.3-.5-2.4-1.1-2.4-.6 0-1.1 1.1-1.1 2.4 0 1.4.5 2.4 1 2.4Z" fill="#1A1B22"/>
    <path d="M379.1 256.4a.6.6 0 0 1-.5-.3c-.8-1.4-2.4-.9-2.5-.8-.3 0-.6-.1-.7-.4-.1-.3 0-.7.3-.8 1-.3 3-.4 4 1.4a.6.6 0 0 1-.6.9Z" fill="#1A1B22"/>
    <path d="M363.8 256.4c-.2 0-.3 0-.5-.2a.6.6 0 0 1 .2-.9 7 7 0 0 1 3.2-1.4c.3 0 .6.2.6.6 0 .3-.2.6-.5.6 0 0-1.3.2-2.6 1.2l-.4.1Z" fill="#1A1B22"/>
    <path d="M316 296.3h-17.7a.6.6 0 0 1-.6-.4L266 232.4c0-.1-.1-.3 0-.4l3.4-17.5c1.4-4-.3-8-2.6-10.1-2-1.8-4.2-2.4-6-1.6l-15.8 9.4c-.8.8-.8 3.7.5 5.9 1 1.4 2.6 3 5.7 1.7l5-2.3a.6.6 0 0 1 .8.8s-2.3 6.5-1 11.5a.6.6 0 1 1-1.1.3c-1-4 0-8.7.6-11l-3.8 1.9c-3 1.1-5.6.3-7.2-2.3-1.6-2.5-1.7-6.1-.3-7.4l.1-.1 15.9-9.5c2.4-1 5.2-.3 7.4 1.8a11 11 0 0 1 3 11.3l-3.4 17.2 31.4 63H316a.6.6 0 1 1 0 1.3Z" fill="#1A1B22"/>
    <path d="M292.7 337.6c-7.2 0-14.4-4.2-20.8-12.2-4.8-6-7.6-12.3-7.6-12.4L236 243.6c-1.2.8-2.5 1-3.7.6-3.7-.9-6.1-6-6.3-6.5l-3-5.5c-2.9-5.7-3.5-9.9-1.8-12.3 1.1-1.8 3-2.1 4-2.2 0-2.4.5-4.3 1.8-5.7 2-2.3 5.2-2.8 6.4-2.9a9 9 0 0 1 7.9-7l-7.8-17a6.8 6.8 0 0 1 12.6-5.3l11.4 24.3a.6.6 0 1 1-1 .5l-11.6-24.3a5.6 5.6 0 0 0-7.5-2.6 5.6 5.6 0 0 0-2.8 7l8.1 17.8a.6.6 0 0 1-.5.8c-.3 0-6.4.1-7.7 6.6 0 .2-.3.4-.6.4 0 0-4 0-6 2.5-1.2 1.3-1.6 3.1-1.3 5.4a.6.6 0 0 1-.7.7s-2.5-.2-3.7 1.7c-1 1.4-1.4 4.5 1.8 11l3 5.6s2.4 5 5.6 5.9c1.1.3 2.2 0 3.3-.9h.6c.2 0 .3.1.4.3l28.5 70c0 .1 2.7 6.2 7.5 12.2 8 9.8 15.4 11.8 20.2 11.7H316a.6.6 0 0 1 0 1.2H292.7Z" fill="#1A1B22"/>
    <path d="M236.3 243.3a.6.6 0 0 1-.2-1.2s.8-.3 1.2-1.5c.6-1.6.5-4.8-3-10.8l-4-8.4a.6.6 0 1 1 1-.5l4 8.3c3 5.2 4.1 9.2 3.2 11.8a3.7 3.7 0 0 1-2 2.3h-.2Z" fill="#1A1B22"/>
    <path d="M241.2 239.6c-1.2 0-2.4-.3-3.4-1.3a.6.6 0 0 1 .8-.9c2.4 2.3 6 0 6 0h.1c0-.1 1-.6 1.5-2.1.5-1.6.4-4.5-2.5-9.6l-5.4-10.3a.6.6 0 1 1 1.1-.6l5.4 10.3c2.5 4.4 3.4 8 2.5 10.6a4.6 4.6 0 0 1-2 2.7 8 8 0 0 1-4.1 1.2Z" fill="#1A1B22"/>
    <path d="M249.4 235.8c-1.5 0-2.6-.4-2.7-.4a.6.6 0 0 1 .4-1.2s2.8 1 5-.3c1.4-.7 2.3-2.1 2.8-4 0-.4.4-.6.7-.5.3 0 .5.4.5.7-.6 2.3-1.7 4-3.4 5-1.1.5-2.3.7-3.3.7Z" fill="#1A1B22"/>
    <path d="M255.2 229a.6.6 0 0 1-.6-.3l-3.7-8a.6.6 0 0 1 1.1-.6l3.7 8a.6.6 0 0 1-.5 1Z" fill="#1A1B22"/>
    <path d="M304 307a.6.6 0 0 1-.6-.3l-5.7-10.7c-.1-.3 0-.7.3-.9.3-.1.6 0 .8.3l5.6 10.7a.6.6 0 0 1-.5.9Z" fill="#1A1B22"/>
    <path d="M259.6 240.3a.6.6 0 0 1-.2-1.2c5.3-1.6 6.5-7 6.5-7.1a.6.6 0 1 1 1.2.3c0 .2-1.4 6.2-7.3 8h-.2Z" fill="#1A1B22"/>
    <path d="M256.5 218.7a.6.6 0 0 1-.3-1.1l6.2-4.2a.6.6 0 1 1 .7 1l-6.3 4.2h-.3Z" fill="#1A1B22"/>
    <path d="M246.4 211.3a.6.6 0 0 1-.6-.3l-1.9-3.6c-.1-.3 0-.7.3-.8.3-.2.7 0 .8.2l1.9 3.6a.6.6 0 0 1-.5.9Z" fill="#1A1B22"/>
    <path d="M238.6 249a.6.6 0 0 1-.3-1.2l5.2-3a.6.6 0 1 1 .7 1l-5.3 3-.3.1Z" fill="#1A1B22"/>
    <path d="M387 234.7a.6.6 0 0 1-.6-.3c0-.1-4.3-9.4-16.7-11a.6.6 0 0 1 .2-1.2 22 22 0 0 1 17.6 11.7.6.6 0 0 1-.6.8Z" fill="#1A1B22"/>
    <path d="M349.3 339.8a.6.6 0 0 1-.6-.6V317a.6.6 0 1 1 1.2 0v22.2c0 .3-.3.6-.6.6Z" fill="#1A1B22"/>
    <path d="M372.4 356.4h-.4a.6.6 0 0 1 0-1l23-28c.2-.3.6-.3.8-.1.3.2.3.6.1.9l-23 28c-.1.2-.3.2-.5.2Z" fill="#1A1B22"/>
    <path d="M380.7 356.4h-.4a.6.6 0 0 1-.1-1l11-13.4c.2-.2.6-.3.8 0 .3.2.3.6.1.8l-11 13.4c0 .2-.3.2-.4.2Z" fill="#1A1B22"/>
    <path d="M460 403.7h-73s-8 5.7-14.5 7.4l-8.8 19.5c-2.5 5.3-13.5 6.8-13.5-.3-1.6 6.7-13.1 9.4-12.3.3-4 8-17.4 6.8-13.2-1.8l6.7-17.7 5.4-7.4h-14.1c-4.8 0-8.8-7.7.8-11.6l17.5-1.8s11.5-4.1 24.5-6.2l60.8-8.3-7.1-24.6 38.7-12.2 9.1 27.6s16.7 36.2-7 37Z" fill="#fff"/>
    <path d="M342.3 437a6 6 0 0 1-1 0c-2.2-.5-3.6-2-4-4.4-2 2.7-5 3.8-7.5 4-2.5.1-4.7-.7-5.8-2.3-.7-1-1.3-3 .1-5.8l6.7-17.7v-.1l9.1-12.2a.6.6 0 1 1 1 .7l-9 12.1-6.7 17.7c-.9 1.9-1 3.5-.2 4.6.8 1.2 2.6 1.9 4.8 1.7 2.5-.1 5.9-1.5 7.5-5 .2-.2.5-.4.8-.3.2 0 .4.4.4.6-.3 3 .8 4.7 3 5.1 3.6.6 7.4-2.5 8.1-5.5.1-.3.4-.5.7-.5.3 0 .5.3.5.6 0 2.7 1.8 3.7 3.2 4 3.7.9 7.9-1.4 9.1-4l8.9-19.5c0-.2.2-.3.4-.3 6.3-1.7 14.1-7.3 14.2-7.3l.3-.2h73c4.8-.1 8.2-1.8 10.2-5 6-9.8-3.5-31-3.6-31.2l-9.2-27.6a.6.6 0 1 1 1.1-.4l9.2 27.5c.6 1.3 9.9 22 3.5 32.4-2.2 3.5-5.9 5.4-11.1 5.6H387c-1.1.8-8.1 5.6-14.1 7.3l-8.8 19.2c-1.7 3.7-7 5.5-10.4 4.7a5 5 0 0 1-3.8-3 9.5 9.5 0 0 1-7.7 4.5Z" fill="#1A1B22"/>
    <path d="M322.7 404.3c-2.6 0-5-2-5.6-4.7-.6-3.2 1.7-6.3 6.2-8l.2-.1 17.4-1.8c1-.4 12.2-4.2 24.5-6.2l60-8.3-6.8-23.9-8.4-25c-.1-.4 0-.7.4-.8.3-.1.7 0 .8.4l8.4 25 7 24.7a.6.6 0 0 1-.5.7l-60.7 8.4c-12.8 2-24.3 6.1-24.4 6.2h-.2l-17.3 1.8c-4 1.6-5.9 4-5.4 6.7.4 2 2.3 3.7 4.4 3.7h14a.6.6 0 1 1 0 1.2h-14Z" fill="#1A1B22"/>
    <path d="M439.3 378h-.1l-13-1.7a.6.6 0 0 1 .1-1.2l13 1.7a.6.6 0 0 1 0 1.2Z" fill="#1A1B22"/>
    <path d="M337.9 431.2h-.2a.6.6 0 0 1-.4-.8l4.4-15.4v-.2l6.2-9.8a.6.6 0 1 1 1 .6l-6 9.8-4.4 15.4c-.1.2-.3.4-.6.4Z" fill="#1A1B22"/>
    <path d="M350.3 431.2h-.2a.6.6 0 0 1-.4-.8L354 415v-.2l6.1-9.8a.6.6 0 1 1 1 .6l-6 9.8-4.3 15.4c-.1.2-.4.4-.6.4Z" fill="#1A1B22"/>
    <path d="M387 404.3h-.1a.6.6 0 0 1-.6-.7c.6-5.5-2.5-7-2.6-7a.6.6 0 0 1 .4-1.1c.2 0 4.1 1.8 3.4 8.2 0 .3-.3.6-.6.6Z" fill="#1A1B22"/>
    <path d="M417.4 404.3h-12.8a.6.6 0 0 1-.6-.5l-7.5-23.6a.6.6 0 0 1 .5-.8l11.4-1.8c.3 0 .6 0 .7.4l8.8 25.5a.6.6 0 0 1-.5.8ZM405 403h11.4l-8.4-24.2-10.2 1.7 7.2 22.5Z" fill="#1A1B22"/>
    <path d="M407.2 399.1a7.3 7.3 0 1 0 0-14.5 7.3 7.3 0 0 0 0 14.5Z" fill="#fff"/>
    <path d="M407.2 399.7a7.9 7.9 0 1 1 0-15.8 7.9 7.9 0 0 1 0 15.8Zm0-14.5a6.7 6.7 0 1 0 0 13.3 6.7 6.7 0 0 0 0-13.3Z" fill="#1A1B22"/>
    <path d="m406.4 387.7.8 4.1-3.3.9 2.5-5Z" fill="#fff"/>
    <path d="M404 393.3a.6.6 0 0 1-.2-1.2l2.7-.7-.7-3.6c0-.3.2-.6.5-.7.3 0 .6.2.7.5l.8 4.1c.1.3 0 .7-.4.7l-3.3.8h-.2Z" fill="#1A1B22"/>
    <path d="M191.6 404.3h-48a.6.6 0 0 1 0-1.2h48a.6.6 0 0 1 0 1.2Z" fill="#1A1B22"/>
    <path d="M500.4 404.3H460a.6.6 0 0 1 0-1.3h40.4a.6.6 0 0 1 0 1.3Z" fill="#1A1B22"/>
    <path d="M185.1 373.3H165a9.5 9.5 0 0 1-9.5-9.5V157.1c0-5.3 4.2-9.5 9.5-9.5h89.7a.6.6 0 0 1 0 1.2H165a8.3 8.3 0 0 0-8.3 8.3v206.7c0 4.6 3.7 8.3 8.3 8.3H185a.6.6 0 0 1 0 1.2Z" fill="#1A1B22"/>
    <path d="M156 154H99.2c-5.8 0-10.5-4.8-10.5-10.6v-27.7a.6.6 0 1 1 1.2 0v27.7c0 5.2 4.2 9.3 9.3 9.3h57a.6.6 0 1 1 0 1.3Z" fill="#1A1B22"/>
    <path d="M142.7 59.5V108c0 4.3-3.5 7.7-7.7 7.7H43.4a7.7 7.7 0 0 1-7.7-7.7V59.5h107Z" fill="url(#b)"/>
    <path d="M142.7 47.3v12.2h-107V47.3c0-3.8 3-7 6.9-7h93.2c3.8 0 6.9 3.2 6.9 7Z" fill="#fff"/>
    <path d="M142.7 60.1h-107a.6.6 0 0 1-.6-.6V47.3c0-4.2 3.3-7.5 7.5-7.5h93.2c4.1 0 7.5 3.3 7.5 7.5v12.2c0 .3-.3.6-.6.6ZM36.3 59H142V47.3c0-3.5-2.8-6.3-6.3-6.3H42.6a6.3 6.3 0 0 0-6.3 6.3v11.6Z" fill="#1A1B22"/>
    <path d="M45.7 53.7a3.3 3.3 0 1 0 0-6.7 3.3 3.3 0 0 0 0 6.7Z" fill="#fff"/>
    <path d="M45.7 54.3a4 4 0 1 1 0-7.9 4 4 0 0 1 0 8Zm0-6.7a2.7 2.7 0 1 0 0 5.5 2.7 2.7 0 0 0 0-5.5Z" fill="#1A1B22"/>
    <path d="M57.6 53.7a3.3 3.3 0 1 0 0-6.7 3.3 3.3 0 0 0 0 6.7Z" fill="#fff"/>
    <path d="M57.6 54.3a4 4 0 1 1 0-7.9 4 4 0 0 1 0 8Zm0-6.7a2.7 2.7 0 1 0 0 5.5 2.7 2.7 0 0 0 0-5.5Z" fill="#1A1B22"/>
    <path d="M69.6 53.7a3.3 3.3 0 1 0 0-6.7 3.3 3.3 0 0 0 0 6.7Z" fill="#fff"/>
    <path d="M69.6 54.3a4 4 0 1 1 0-7.9 4 4 0 0 1 0 8Zm0-6.7a2.7 2.7 0 1 0 0 5.5 2.7 2.7 0 0 0 0-5.5Z" fill="#1A1B22"/>
    <path d="M131.6 107H46.8c-2.4 0-4.3-2-4.3-4.4v-30c0-2.4 2-4.3 4.3-4.3h84.8c2.3 0 4.3 2 4.3 4.3v30c0 2.4-2 4.3-4.3 4.3ZM46.8 69.4c-1.7 0-3 1.4-3 3.1v30c0 1.7 1.3 3.1 3 3.1h84.8c1.7 0 3-1.4 3-3v-30c0-1.8-1.3-3.2-3-3.2H46.8Z" fill="#fff"/>
    <path d="M122.4 80.4h-68c-1 0-1.8-.8-1.8-1.9V78c0-1 .9-1.8 1.9-1.8h67.9c1 0 1.8.8 1.8 1.8v.5c0 1-.8 1.9-1.8 1.9Z" fill="#fff"/>
    <path d="M91.1 88.1H54.5c-1 0-1.9-.8-1.9-1.8v-.5c0-1 .9-1.9 1.9-1.9H91c1 0 1.9.9 1.9 1.9v.5c0 1-.8 1.8-1.9 1.8Z" fill="#fff"/>
    <path d="M91.1 95.9H54.5c-1 0-1.9-.9-1.9-1.9v-.5c0-1 .9-1.8 1.9-1.8H91c1 0 1.9.8 1.9 1.8v.5c0 1-.8 1.9-1.9 1.9Z" fill="#fff"/>
    <path d="M156 283a7.4 7.4 0 1 0 0-14.8 7.4 7.4 0 0 0 0 14.8Z" fill="#1A1B22"/>
    <path d="M155.1 160.7a7.4 7.4 0 1 0 0-14.7 7.4 7.4 0 0 0 0 14.7Z" fill="#1A1B22"/>
    <path d="M491.4 232.6h-.4a.6.6 0 0 1-.1-1l.1-.1c1.3-2 1.6-5.4 1.6-5.5a.6.6 0 1 1 1.2.2s0 1.4-.5 3c1.1-1 2.7-2 4.8-3 .3-.2.6 0 .8.3.1.3 0 .6-.3.8a16.9 16.9 0 0 0-6.7 5c-.2.2-.3.3-.5.3Z" fill="#1A1B22"/>
    <path d="M446.5 236.7c-.2 0-.4 0-.5-.2-1.4-2-4.5-3-4.5-3a.6.6 0 0 1 .3-1.1c.1 0 1.5.4 3 1.3-.7-1.7-1.5-4-1.8-5.7a.6.6 0 1 1 1.2-.2 37 37 0 0 0 2.8 8 .6.6 0 0 1-.5 1Z" fill="#1A1B22"/>
    <path d="M473 317.6a.6.6 0 0 1-.7-.6c0-.1-.5-12.9.4-27.8 1.3-20.1 4.3-34.5 9-42.6a.6.6 0 1 1 1.1.6c-11.2 19-9.3 69.2-9.3 69.7 0 .4-.2.7-.6.7Z" fill="#1A1B22"/>
    <path d="M478.4 329.7C480 319 488 317 488 317h-30.6s8 2.1 9.7 12.7c1.7 10.5-16.9 43-4.2 74H482.6c12.6-31-6-63.4-4.2-74Z" fill="#fff"/>
    <path d="M482.6 404.3h-19.7a.6.6 0 0 1-.6-.4 66.4 66.4 0 0 1-4.1-31.6c.9-10 3.4-19.4 5.4-26.9 1.9-7 3.4-12.4 2.9-15.6-1.6-10-9.2-12.2-9.3-12.3a.6.6 0 0 1 .2-1.2H488c.3 0 .6.3.6.6s-.1.6-.4.6c0 0-2 .6-4 2.4a15.8 15.8 0 0 0-5.2 9.9c-.5 3.2 1 8.7 2.8 15.6 2 7.5 4.6 16.8 5.5 26.9 1 11.8-.3 22.1-4.2 31.6 0 .3-.3.4-.5.4Zm-19.3-1.2h18.9c3.6-9.2 4.9-19.2 3.9-30.7-1-10-3.5-19.2-5.5-26.6-1.9-7.1-3.4-12.7-2.8-16.2 1-7 4.8-10.5 7.5-12h-25.1c2.6 1.5 6.4 5 7.5 12 .5 3.5-1 9-2.9 16.1-2 7.5-4.5 16.8-5.4 26.7-1 11.5.2 21.5 3.9 30.7Z" fill="#1A1B22"/>
    <path d="M467.5 317s-4.8-31.5-19.8-37.8c0 0 19.1 3.2 25 37.8h-5.2Z" fill="#fff"/>
    <path d="M472.7 317.6h-5.2a.6.6 0 0 1-.6-.6c0-.3-5-31.1-19.5-37.2a.6.6 0 0 1 .3-1.2c.3 0 5.1.9 10.7 6a57.8 57.8 0 0 1 14.8 32.8l-.5.2Zm-4.7-1.3h4a56 56 0 0 0-14.4-30.7 28.6 28.6 0 0 0-4-3.1 46 46 0 0 1 10.2 17.7c2.6 7.4 3.9 14.2 4.2 16.1Z" fill="#1A1B22"/>
    <path d="M472.7 317s-.2-39.6 15.3-45.6c0 0-9.2 9.4-10.4 45.6h-4.9Z" fill="#fff"/>
    <path d="M477.6 317.6h-4.9a.6.6 0 0 1-.6-.6c0-.1 0-10.1 1.9-20.7 2.5-14.3 7.2-22.9 13.8-25.4a.6.6 0 0 1 .7 1s-2.3 2.4-4.7 9c-4 11.3-5.2 25.9-5.5 36 0 .4-.3.7-.7.7Zm-4.3-1.3h3.8c.8-26.8 6.2-38.7 9-43.1-11.9 7.9-12.7 38.4-12.8 43.1Z" fill="#1A1B22"/>
    <path d="M477.6 317s3.7-28.7 17-31.1c0 0-18.3-1.2-21.9 31h5Z" fill="#fff"/>
    <path d="M477.6 317.6h-4.9a.6.6 0 0 1-.6-.7c1-9.3 4-21.8 12.6-28 5.1-3.9 9.8-3.6 10-3.6.3 0 .6.2.6.5s-.2.6-.5.7c-12.8 2.3-16.5 30.3-16.6 30.5 0 .3-.2.6-.6.6Zm-4.2-1.3h3.7c.3-1.8 1.3-7.9 3.5-14.2 2.4-7 5.5-12 9-14.6-1.3.5-2.8 1.2-4.3 2.4-7.9 5.9-10.8 17.5-11.9 26.4Z" fill="#1A1B22"/>
    <path d="M472.7 317.6a.6.6 0 0 1-.6-.6c0-.2 0-11.7-2.2-26-2-13-6.4-31-15.5-42.6a.6.6 0 1 1 1-.8c9.3 11.8 13.6 30 15.7 43.3a192 192 0 0 1 2.2 26c0 .4-.2.7-.6.7Z" fill="#1A1B22"/>
    <path d="M458.6 253.7c1.6-1 0-6.4-3.7-11.9s-8-9-9.7-7.9c-1.6 1.2 0 6.5 3.7 12 3.7 5.4 8 9 9.7 7.8Z" fill="#0072FF"/>
    <path d="M489.5 242.4c3.3-5.7 4.6-11.2 2.8-12.2-1.7-1-5.7 2.9-9 8.6-3.3 5.7-4.6 11.1-2.9 12.1 1.7 1 5.8-2.8 9.1-8.5Z" fill="#0072FF"/>
    <path d="M478.4 333.9H467a.6.6 0 1 1 0-1.2h11.4a.6.6 0 0 1 0 1.2Z" fill="#1A1B22"/>
    <path d="M482.3 349.7h-19a.6.6 0 0 1 0-1.2h19a.6.6 0 1 1 0 1.2Z" fill="#1A1B22"/>
    <path d="M177.3 275.6H156a.6.6 0 0 1 0-1.2h21.2a.6.6 0 0 1 0 1.2Z" fill="#1A1B22"/>
    <path d="M20.3 2V2l14.2 33a.6.6 0 0 1-1.1.5l-14.1-33a.6.6 0 0 1 1-.6Z" fill="#1A1B22"/>
    <path d="M50 11c.2 0 .2.1.2.3L52 26.9a.6.6 0 1 1-1.2.1L49 11.4a.6.6 0 0 1 1-.4Z" fill="#1A1B22"/>
    <path d="m48.7.2.1.3.5 4.4a.6.6 0 1 1-1.2.1L47.6.7a.6.6 0 0 1 1-.5Z" fill="#1A1B22"/>
    <path d="M182.4 217.5h-.2a.6.6 0 0 1-.3-1l15.2-30a.6.6 0 1 1 1 .6l-15.1 30c-.1.3-.3.4-.6.4Z" fill="#1A1B22"/>
    <path d="M202.6 205.7h-.3a.6.6 0 0 1-.3-.8l5.3-12.9c0-.3.4-.5.8-.3.3.1.4.5.3.8l-5.3 12.8c0 .3-.3.4-.5.4Z" fill="#1A1B22"/>
    <path d="M22 41.7a.6.6 0 0 1-.8.9L.2 22.3a.6.6 0 0 1 .8-.9l21 20.3Z" fill="#1A1B22"/>
    <path d="M329.9 403.7H197.6l-17-81.5c-.7-3.6 2-6.9 5.5-6.9h120.7c2.7 0 5 2 5.6 4.5l17.5 83.9Z" fill="#1A1B22"/>
    <path d="M329.9 404.3H197.6a.6.6 0 0 1-.6-.5l-17-81.5a6.3 6.3 0 0 1 6.1-7.6h120.7c3 0 5.6 2.1 6.2 5l17.5 83.9a.6.6 0 0 1-.6.7ZM198 403.1h131L311.8 320a5 5 0 0 0-5-4H186.1a5 5 0 0 0-5 6l17 81Z" fill="#1A1B22"/>
    <path d="M323.9 403.7H191.6l-17-81.5c-.8-3.6 2-6.9 5.5-6.9h120.7c2.7 0 5 2 5.6 4.5l17.5 83.9Z" fill="#fff"/>
    <path d="M323.9 404.3H191.6a.6.6 0 0 1-.6-.5l-17-81.5a6.3 6.3 0 0 1 6.1-7.6h120.7c3 0 5.5 2.1 6.2 5l17.5 83.9a.6.6 0 0 1-.6.7ZM192 403.1h131L305.8 320a5 5 0 0 0-5-4H180.1a5 5 0 0 0-5 6l17 81Z" fill="#1A1B22"/>
    <path d="m182.6 329 13.8 63.7c.5 2.7 2.9 4.6 5.6 4.6h106.7c3.7 0 6.5-3.4 5.7-7l-13.5-64c-.6-2.6-3-4.5-5.7-4.5l-107 .2a5.8 5.8 0 0 0-5.6 7Z" fill="url(#c)"/>
    <path d="M246.8 372.7a10.8 10.8 0 1 0 0-21.5 10.8 10.8 0 0 0 0 21.5Z" fill="#fff"/>
    <path d="M246.8 373.3a11.4 11.4 0 1 1 0-22.8 11.4 11.4 0 0 1 0 22.8Zm0-21.6a10.2 10.2 0 1 0 0 20.4 10.2 10.2 0 0 0 0-20.4Z" fill="#1A1B22"/>
    <path d="M245 351.9a.6.6 0 0 1-.7-.6c-.5-6.1-4-7.3-4-7.3a.6.6 0 0 1 .4-1.2c.1 0 4.2 1.4 4.8 8.4 0 .4-.2.7-.5.7Z" fill="#1A1B22"/>
    <path d="M245.3 351h-.3a.6.6 0 0 1-.6-.5 9 9 0 0 1 2.8-6.1c1.8-1.7 4.4-2.4 7.7-2 .2 0 .3 0 .4.2l.2.4c0 .1-.3 2.1-1.7 4.1-1.3 1.8-3.8 4-8.5 4Zm8.1-7.5c-2.2 0-4 .6-5.4 1.8a7.6 7.6 0 0 0-2.3 4.6c6.4-.2 8-4.7 8.5-6.4h-.8Z" fill="#1A1B22"/>
    <path d="M310.3 177.8a3 3 0 0 1-2-.9L298 166.7c-.3-.3-.7-.5-1.2-.5h-39a3 3 0 0 1-3-3v-30.4a3 3 0 0 1 3-3h60.9a3 3 0 0 1 3 3v30.4a3 3 0 0 1-3 3H315c-1 0-1.8.8-1.8 1.8v6.8a3 3 0 0 1-1.8 2.8 3 3 0 0 1-1.2.2ZM257.7 131c-1 0-1.7.8-1.7 1.8v30.4c0 1 .8 1.8 1.7 1.8h39a3 3 0 0 1 2.2.9l10.2 10.2c.6.6 1.4.6 1.9.3.5-.2 1-.7 1-1.6V168a3 3 0 0 1 3-3h3.7c1 0 1.7-.8 1.7-1.8v-30.4c0-1-.8-1.8-1.7-1.8h-61Z" fill="#1A1B22"/>
    <path d="M273 152.2a4.2 4.2 0 1 0 0-8.4 4.2 4.2 0 0 0 0 8.4Z" fill="#000"/>
    <path d="M288.2 152.2a4.2 4.2 0 1 0 0-8.4 4.2 4.2 0 0 0 0 8.4Z" fill="#000"/>
    <path d="M303.3 152.2a4.2 4.2 0 1 0 0-8.4 4.2 4.2 0 0 0 0 8.4Z" fill="#000"/>
    <path d="M347 113h-.1l-20.5 15.2a.4.4 0 0 1-.5-.7l20.5-15.1a.4.4 0 0 1 .6.6Z" fill="#1A1B22"/>
    <path d="m345.6 135-.2.1L335 139c-.2 0-.4 0-.5-.3 0-.2 0-.4.3-.5l10.4-3.8c.3 0 .5 0 .6.3v.4Z" fill="#1A1B22"/>
    <path d="m352.8 132.3-.2.1-3 1.1a.4.4 0 0 1-.2-.8l2.9-1a.4.4 0 0 1 .5.6Z" fill="#1A1B22"/>
    <path d="M319.9 120.7c-.2.1-.4.2-.6 0a.4.4 0 0 1-.1-.5l10.5-17.8c0-.2.4-.3.6-.2.2.2.2.4.1.6L320 120.6Z" fill="#1A1B22"/>
  </g>
  <defs>
    <linearGradient id="b" x1="89.2" y1="115.7" x2="89.2" y2="59.5" gradientUnits="userSpaceOnUse">
      <stop stop-color="#E2D4DF"/>
      <stop offset="1" stop-color="#3C90ED"/>
    </linearGradient>
    <linearGradient id="c" x1="248.5" y1="321.8" x2="248.5" y2="397.3" gradientUnits="userSpaceOnUse">
      <stop stop-color="#E3D4DF"/>
      <stop offset="1" stop-color="#4199E9" stop-opacity="0"/>
    </linearGradient>
    <clipPath id="a">
      <path fill="#fff" d="M0 0h501v437H0z"/>
    </clipPath>
  </defs>
</svg>