<svg width="174" height="33" viewBox="0 0 174 33" fill="none" xmlns="http://www.w3.org/2000/svg">
<path fill-rule="evenodd" clip-rule="evenodd" d="M20.5368 8.42969C19.4067 8.43082 18.2916 8.70544 17.2752 9.23293C16.2587 9.76042 15.3673 10.5271 14.6679 11.4753C15.5077 11.6144 16.2962 11.9956 16.9483 12.5778C17.6617 11.8202 18.5692 11.3052 19.5562 11.0979C20.5432 10.8906 21.5655 11.0003 22.4942 11.413C23.423 11.8258 24.2165 12.5232 24.7747 13.4172C25.3329 14.3112 25.6308 15.3619 25.6308 16.4366C25.6308 17.5113 25.3329 18.5619 24.7747 19.456C24.2165 20.35 23.423 21.0474 22.4942 21.4601C21.5655 21.8729 20.5432 21.9825 19.5562 21.7752C18.5692 21.5679 17.6617 21.053 16.9483 20.2953C16.2962 20.8776 15.5077 21.2588 14.6679 21.3978C15.4542 22.459 16.4798 23.2895 17.6486 23.8115C18.8175 24.3334 20.0912 24.5297 21.3505 24.3819C22.6097 24.2341 23.8132 23.7471 24.8481 22.9665C25.883 22.1859 26.7155 21.1373 27.2674 19.9191C27.8194 18.7008 28.0727 17.3527 28.0037 16.0012C27.9347 14.6497 27.5456 13.3391 26.873 12.1922C26.2003 11.0453 25.266 10.0997 24.1578 9.44399C23.0495 8.78831 21.8036 8.44405 20.5368 8.44347V8.42969ZM11.0252 20.3339C10.3068 21.0764 9.39978 21.5766 8.41714 21.7719C7.4345 21.9672 6.41977 21.8491 5.49955 21.4323C4.57932 21.0155 3.79432 20.3184 3.24246 19.4281C2.69061 18.5377 2.39632 17.4934 2.39632 16.4256C2.39632 15.3577 2.69061 14.3134 3.24246 13.423C3.79432 12.5327 4.57932 11.8356 5.49955 11.4188C6.41977 11.002 7.4345 10.8839 8.41714 11.0792C9.39978 11.2746 10.3068 11.7747 11.0252 12.5172C11.6942 11.9451 12.4972 11.5799 13.347 11.4616C12.3827 10.1602 11.0632 9.21181 9.57159 8.74804C8.07997 8.28428 6.49021 8.32814 5.02298 8.87353C3.55574 9.41892 2.28381 10.4388 1.38371 11.7916C0.48361 13.1444 0 14.763 0 16.4228C0 18.0826 0.48361 19.7012 1.38371 21.054C2.28381 22.4068 3.55574 23.4267 5.02298 23.9721C6.49021 24.5175 8.07997 24.5613 9.57159 24.0976C11.0632 23.6338 12.3827 22.6854 13.347 21.384C12.4975 21.2682 11.6943 20.9049 11.0252 20.3339ZM16.7627 16.4256C16.7627 18.0817 15.5061 19.4243 13.9559 19.4243C12.4058 19.4243 11.1492 18.0817 11.1492 16.4256C11.1492 14.7694 12.4058 13.4268 13.9559 13.4268C15.5061 13.4268 16.7627 14.7694 16.7627 16.4256Z" fill="url(#paint0_linear_2539_6758)"/>
<path fill-rule="evenodd" clip-rule="evenodd" d="M20.5368 8.42969C19.4067 8.43082 18.2916 8.70544 17.2752 9.23293C16.2587 9.76042 15.3673 10.5271 14.6679 11.4753C15.5077 11.6144 16.2962 11.9956 16.9483 12.5778C17.6617 11.8202 18.5692 11.3052 19.5562 11.0979C20.5432 10.8906 21.5655 11.0003 22.4942 11.413C23.423 11.8258 24.2165 12.5232 24.7747 13.4172C25.3329 14.3112 25.6308 15.3619 25.6308 16.4366C25.6308 17.5113 25.3329 18.5619 24.7747 19.456C24.2165 20.35 23.423 21.0474 22.4942 21.4601C21.5655 21.8729 20.5432 21.9825 19.5562 21.7752C18.5692 21.5679 17.6617 21.053 16.9483 20.2953C16.2962 20.8776 15.5077 21.2588 14.6679 21.3978C15.4542 22.459 16.4798 23.2895 17.6486 23.8115C18.8175 24.3334 20.0912 24.5297 21.3505 24.3819C22.6097 24.2341 23.8132 23.7471 24.8481 22.9665C25.883 22.1859 26.7155 21.1373 27.2674 19.9191C27.8194 18.7008 28.0727 17.3527 28.0037 16.0012C27.9347 14.6497 27.5456 13.3391 26.873 12.1922C26.2003 11.0453 25.266 10.0997 24.1578 9.44399C23.0495 8.78831 21.8036 8.44405 20.5368 8.44347V8.42969ZM11.0252 20.3339C10.3068 21.0764 9.39978 21.5766 8.41714 21.7719C7.4345 21.9672 6.41977 21.8491 5.49955 21.4323C4.57932 21.0155 3.79432 20.3184 3.24246 19.4281C2.69061 18.5377 2.39632 17.4934 2.39632 16.4256C2.39632 15.3577 2.69061 14.3134 3.24246 13.423C3.79432 12.5327 4.57932 11.8356 5.49955 11.4188C6.41977 11.002 7.4345 10.8839 8.41714 11.0792C9.39978 11.2746 10.3068 11.7747 11.0252 12.5172C11.6942 11.9451 12.4972 11.5799 13.347 11.4616C12.3827 10.1602 11.0632 9.21181 9.57159 8.74804C8.07997 8.28428 6.49021 8.32814 5.02298 8.87353C3.55574 9.41892 2.28381 10.4388 1.38371 11.7916C0.48361 13.1444 0 14.763 0 16.4228C0 18.0826 0.48361 19.7012 1.38371 21.054C2.28381 22.4068 3.55574 23.4267 5.02298 23.9721C6.49021 24.5175 8.07997 24.5613 9.57159 24.0976C11.0632 23.6338 12.3827 22.6854 13.347 21.384C12.4975 21.2682 11.6943 20.9049 11.0252 20.3339ZM16.7627 16.4256C16.7627 18.0817 15.5061 19.4243 13.9559 19.4243C12.4058 19.4243 11.1492 18.0817 11.1492 16.4256C11.1492 14.7694 12.4058 13.4268 13.9559 13.4268C15.5061 13.4268 16.7627 14.7694 16.7627 16.4256Z" fill="white"/>
<path d="M33.79 16.8381V16.7936C33.7802 16.0091 33.9184 15.2304 34.1967 14.5023C34.4749 13.7742 34.8877 13.111 35.4112 12.551C35.9347 11.991 36.5587 11.5453 37.2471 11.2395C37.9355 10.9336 38.6747 10.7737 39.4223 10.769C41.5056 10.769 42.8016 11.6841 43.8247 12.8217L42.738 14.0261C41.8687 13.0665 40.8827 12.2849 39.4011 12.2849C37.1694 12.2849 35.4704 14.2708 35.4704 16.7351V16.7824C35.4704 19.2857 37.2118 21.266 39.5071 21.266C40.9118 21.266 41.9959 20.529 42.8652 19.5471L43.9095 20.5735C42.8016 21.8668 41.4843 22.7986 39.4223 22.7986C38.679 22.7971 37.9433 22.6416 37.2575 22.3409C36.5717 22.0403 35.9492 21.6004 35.4259 21.0465C34.9025 20.4927 34.4886 19.8358 34.2079 19.1135C33.9271 18.3913 33.7851 17.618 33.79 16.8381Z" fill="white"/>
<path d="M45.6088 16.8379V16.7934C45.6346 15.2208 46.2465 13.7214 47.3133 12.6167C48.3801 11.5119 49.8169 10.8898 51.3157 10.8836C52.8145 10.8774 54.2559 11.4877 55.331 12.5836C56.406 13.6795 57.0292 15.1738 57.0667 16.7461V16.7934C57.071 17.5873 56.9248 18.3742 56.6366 19.1083C56.3484 19.8423 55.9239 20.5089 55.388 21.0693C54.8521 21.6296 54.2153 22.0725 53.5147 22.3723C52.8142 22.672 52.0638 22.8225 51.3073 22.8152C50.5567 22.8245 49.8119 22.6763 49.1167 22.3792C48.4215 22.0822 47.7899 21.6423 47.259 21.0854C46.7281 20.5285 46.3086 19.8659 46.0252 19.1365C45.7418 18.4071 45.6002 17.6256 45.6088 16.8379ZM55.389 16.8379V16.7934C55.389 14.3152 53.6238 12.2848 51.3073 12.2848C48.9218 12.2848 47.2892 14.3152 47.2892 16.735V16.7823C47.2892 19.2578 49.0332 21.2659 51.3497 21.2659C53.7298 21.277 55.4023 19.2689 55.4023 16.8379H55.389Z" fill="white"/>
<path d="M60.022 11.0137H61.66V12.9607C62.3835 11.8231 63.3616 10.7745 65.2089 10.7745C65.948 10.748 66.6779 10.9521 67.3064 11.361C67.9348 11.77 68.4335 12.3654 68.7394 13.072C69.5345 11.8009 70.6954 10.7745 72.6064 10.7745C75.1376 10.7745 76.6881 12.5602 76.6881 15.4139V22.5482H75.0528V15.8116C75.0528 13.5865 73.9926 12.3293 72.2035 12.3293C70.5443 12.3293 69.1846 13.6254 69.1846 15.9006V22.5482H67.5467V15.7671C67.5467 13.6032 66.4626 12.3293 64.7213 12.3293C62.9799 12.3293 61.66 13.8507 61.66 15.9674V22.5482H60.022V11.0137Z" fill="white"/>
<path d="M80.2397 11.0138H81.8751V13.3335C82.7683 11.9428 84.067 10.769 86.084 10.769C88.7212 10.769 91.3346 12.9552 91.3346 16.7463V16.7936C91.3346 20.5624 88.7425 22.793 86.084 22.793C84.0432 22.793 82.7259 21.6332 81.8751 20.3398V32.5001H80.2397V11.0138ZM89.6569 16.8158V16.7685C89.6569 14.0483 87.8705 12.3183 85.7872 12.3183C83.7463 12.3183 81.8115 14.1262 81.8115 16.7685V16.8158C81.8115 19.4915 83.7463 21.266 85.7872 21.266C87.9129 21.2549 89.6569 19.6028 89.6569 16.8158Z" fill="white"/>
<path d="M94.1836 18.1758V11.0137H95.8216V17.7447C95.8216 19.8863 96.9268 21.227 98.8617 21.227C100.733 21.227 102.156 19.7751 102.156 17.6112V11.0137H103.77V22.5481H102.156V20.54C101.411 21.7888 100.285 22.7929 98.3925 22.7929C95.7368 22.7929 94.1836 20.9182 94.1836 18.1758Z" fill="white"/>
<path d="M107.598 0.5H109.235V22.5482H107.598V0.5Z" fill="white"/>
<path d="M112.122 21.0824L112.949 19.8558C114.142 20.7931 115.459 21.33 116.755 21.33C118.051 21.33 119.029 20.6151 119.029 19.4998V19.4553C119.029 18.2954 117.733 17.8476 116.289 17.4249C114.571 16.9103 112.652 16.2789 112.652 14.1595V14.1289C112.652 12.143 114.227 10.8274 116.395 10.8274C117.799 10.8557 119.168 11.296 120.346 12.0985L119.604 13.3918C118.64 12.7098 117.514 12.3244 116.352 12.2793C115.053 12.2793 114.232 12.9941 114.232 13.9481V13.9926C114.232 15.0857 115.592 15.5085 117.057 15.9785C118.748 16.5014 120.588 17.1885 120.588 19.2689V19.3134C120.588 21.4996 118.865 22.7707 116.676 22.7707C115.023 22.746 113.423 22.1529 112.122 21.0824Z" fill="white"/>
<path d="M122.946 16.8158V16.7685C122.946 13.4475 125.178 10.769 128.218 10.769C131.47 10.769 133.341 13.492 133.341 16.8603C133.345 17.046 133.338 17.2318 133.32 17.4166H124.605C124.839 19.9198 126.516 21.3105 128.473 21.3105C129.127 21.3184 129.776 21.1778 130.374 20.8984C130.973 20.6191 131.506 20.2075 131.939 19.6918L132.96 20.6514C131.855 21.9447 130.513 22.8153 128.43 22.8153C125.411 22.8153 122.946 20.3843 122.946 16.8158ZM131.693 16.1455C131.523 14.0483 130.368 12.2182 128.186 12.2182C126.273 12.2182 124.828 13.887 124.616 16.1455H131.693Z" fill="white"/>
<path d="M142.42 22.1579C145.395 22.1579 147.569 20.337 147.569 17.4957V17.4557C147.569 15.0746 146.024 13.9541 144.117 13.5138L147.302 10.6525V7.8712H137.654V11.0127H142.764L139.694 13.914L140.228 15.935H141.791C143.183 15.935 143.965 16.4752 143.965 17.3757V17.4157C143.965 18.2761 143.297 18.8363 142.249 18.8363C141.028 18.8363 140.018 18.2561 139.065 17.2356L136.738 19.6767C138.035 21.1774 139.846 22.1579 142.42 22.1579Z" fill="white"/>
<path d="M154.74 22.1579C157.657 22.1579 160.041 20.257 160.041 17.1155V17.0755C160.041 14.2742 157.981 12.7135 155.636 12.7135C154.32 12.7135 153.462 13.2337 152.757 13.794C152.928 12.0331 153.71 10.8126 155.274 10.8126C156.341 10.8126 157.104 11.2328 157.924 11.8731L159.659 9.13179C158.382 8.13132 157.085 7.59106 155.216 7.59106C151.041 7.59106 149.02 10.9126 149.02 15.2747V15.3147C149.02 17.9359 149.668 19.5167 150.659 20.5571C151.613 21.5576 152.852 22.1579 154.74 22.1579ZM154.587 19.1365C153.424 19.1365 152.7 18.3361 152.7 17.3156V17.2756C152.7 16.2751 153.386 15.4948 154.549 15.4948C155.712 15.4948 156.437 16.2951 156.437 17.2956V17.3356C156.437 18.3561 155.75 19.1365 154.587 19.1365Z" fill="white"/>
<path d="M167.803 22.1579C171.617 22.1579 174 18.8363 174 14.8745V14.8345C174 10.8726 171.636 7.59106 167.841 7.59106C164.047 7.59106 161.644 10.9126 161.644 14.8745V14.9145C161.644 18.8764 163.99 22.1579 167.803 22.1579ZM167.841 18.7163C166.354 18.7163 165.362 17.1155 165.362 14.8745V14.8345C165.362 12.5934 166.335 11.0327 167.803 11.0327C169.271 11.0327 170.282 12.6534 170.282 14.8745V14.9145C170.282 17.1355 169.328 18.7163 167.841 18.7163Z" fill="white"/>
<defs>
<linearGradient id="paint0_linear_2539_6758" x1="0" y1="16.4297" x2="28.0147" y2="16.4297" gradientUnits="userSpaceOnUse">
<stop stop-color="#EF5023"/>
<stop offset="1" stop-color="#E30A7B"/>
</linearGradient>
</defs>
</svg>
