<svg width="65" height="52" viewBox="0 0 65 52" fill="none" xmlns="http://www.w3.org/2000/svg">
<path d="M32.4068 4.29782C32.1787 4.364 31.9686 4.48078 31.7922 4.63991L18.2064 17.1149L23.3706 36.388L41.3737 40.3988C41.9085 40.5179 42.4668 40.3492 42.8455 39.9534C43.2246 39.5578 43.3697 38.9929 43.2276 38.4637L34.3653 5.38936C34.2547 4.98204 33.9844 4.63669 33.616 4.43168C33.2475 4.22633 32.8114 4.17844 32.407 4.2984L32.4068 4.29782ZM44.9205 8.59502C44.5316 8.71259 44.2038 8.97639 44.0059 9.33097L41.9842 12.8283C41.7655 13.1877 41.7005 13.6204 41.8044 14.0284C41.9079 14.4365 42.1717 14.7858 42.5356 14.9971C42.8997 15.2087 43.3335 15.2647 43.7394 15.1527C44.1453 15.0407 44.4891 14.7701 44.6931 14.4019L46.7204 10.8906C46.9346 10.5269 46.9929 10.0917 46.8819 9.68411C46.7708 9.27651 46.5001 8.93094 46.131 8.72609C45.7615 8.52102 45.3252 8.47356 44.9204 8.59505L44.9205 8.59502ZM4.02916 21.9654C3.62789 22.0729 3.28589 22.3354 3.07785 22.6953C2.87024 23.0554 2.81389 23.4828 2.92141 23.8841L6.74874 38.1679C6.85626 38.5691 7.11887 38.9115 7.47862 39.1192C7.83871 39.3268 8.26614 39.3831 8.66741 39.2756L20.0934 36.214L15.4552 18.9038L4.02916 21.9654ZM47.4492 17.9841C47.0472 18.0915 46.7042 18.3543 46.4959 18.7145C46.2876 19.0748 46.2308 19.5031 46.3386 19.9054C46.4463 20.3073 46.7097 20.6498 47.0702 20.8577C47.4308 21.0659 47.8592 21.1217 48.261 21.0136L52.171 19.9659C52.5734 19.8585 52.9165 19.596 53.1247 19.2354C53.333 18.8752 53.3895 18.447 53.2817 18.045C53.174 17.6427 52.9109 17.3001 52.5504 17.0922C52.1899 16.8844 51.7614 16.8283 51.3593 16.9364L47.4492 17.9841ZM46.4577 25.3261L46.4581 25.3264C46.0535 25.4348 45.7088 25.7009 45.502 26.0652C45.2947 26.4291 45.2422 26.8614 45.3557 27.2647C45.4695 27.6679 45.7397 28.0089 46.1063 28.2112L49.6058 30.229C49.9657 30.4588 50.4041 30.5317 50.8191 30.4307C51.2338 30.3301 51.5896 30.0639 51.8039 29.6947C52.0184 29.3252 52.0725 28.8842 51.9539 28.474C51.8356 28.0637 51.5549 27.7197 51.1769 27.5212L47.6656 25.4939C47.302 25.2775 46.8666 25.2171 46.4583 25.3265L46.4577 25.3261ZM11.4527 41.7727L15.583 49.0066L15.5831 49.0069C15.7548 49.3073 16.021 49.5427 16.3402 49.6761C16.6597 49.8092 17.0144 49.8333 17.3485 49.7437L23.357 48.1338C23.8261 48.0077 24.2099 47.6717 24.397 47.2237C24.5838 46.7754 24.5524 46.2662 24.3116 45.8445L20.5942 39.3236L11.4527 41.7727Z" fill="white"/>
</svg>
