<svg width="323" height="52" viewBox="60 0 323 52" fill="none" xmlns="http://www.w3.org/2000/svg">
<path d="M67.0696 40H59.8906L69.2152 12.3636H78.108L87.4325 40H80.2536L73.7628 19.3267H73.5469L67.0696 40ZM66.1115 29.1236H81.1172V34.1974H66.1115V29.1236ZM100.623 40H90.408V12.3636H100.61C103.426 12.3636 105.85 12.9169 107.883 14.0234C109.925 15.121 111.5 16.7043 112.606 18.7734C113.713 20.8336 114.266 23.2985 114.266 26.1683C114.266 29.0471 113.713 31.5211 112.606 33.5902C111.509 35.6593 109.939 37.2472 107.897 38.3537C105.855 39.4512 103.43 40 100.623 40ZM97.0877 34.3054H100.367C101.914 34.3054 103.223 34.0445 104.294 33.5227C105.373 32.992 106.187 32.1328 106.736 30.9453C107.294 29.7488 107.573 28.1565 107.573 26.1683C107.573 24.1802 107.294 22.5968 106.736 21.4183C106.178 20.2308 105.355 19.3762 104.267 18.8544C103.187 18.3236 101.856 18.0582 100.272 18.0582H97.0877V34.3054ZM126.33 12.3636H134.602L141.619 29.4744H141.943L148.96 12.3636H157.232V40H150.728V23.0241H150.498L143.859 39.8246H139.703L133.064 22.9297H132.834V40H126.33V12.3636ZM167.376 40H160.197L169.522 12.3636H178.415L187.739 40H180.56L174.069 19.3267H173.854L167.376 40ZM166.418 29.1236H181.424V34.1974H166.418V29.1236ZM214.235 12.3636V40H208.568L197.57 24.0497H197.394V40H190.715V12.3636H196.463L207.34 28.2869H207.569V12.3636H214.235ZM224.413 40H217.234L226.559 12.3636H235.452L244.776 40H237.597L231.107 19.3267H230.891L224.413 40ZM223.455 29.1236H238.461V34.1974H223.455V29.1236ZM264.589 21.3913C264.436 20.8246 264.211 20.3253 263.915 19.8935C263.618 19.4527 263.253 19.0793 262.822 18.7734C262.39 18.4676 261.895 18.2382 261.337 18.0852C260.779 17.9233 260.168 17.8423 259.502 17.8423C258.162 17.8423 257.001 18.1662 256.02 18.8139C255.049 19.4616 254.298 20.4062 253.767 21.6477C253.236 22.8802 252.971 24.3781 252.971 26.1413C252.971 27.9136 253.227 29.425 253.74 30.6754C254.253 31.9259 254.995 32.8795 255.966 33.5362C256.938 34.1929 258.117 34.5213 259.502 34.5213C260.725 34.5213 261.76 34.3234 262.606 33.9276C263.46 33.5227 264.108 32.9515 264.549 32.2138C264.99 31.4761 265.21 30.608 265.21 29.6094L266.452 29.7578H259.731V24.8864H271.647V28.5433C271.647 31.0173 271.121 33.1359 270.068 34.8991C269.024 36.6624 267.585 38.0163 265.75 38.9609C263.924 39.9055 261.823 40.3778 259.448 40.3778C256.812 40.3778 254.496 39.8066 252.498 38.6641C250.501 37.5215 248.945 35.8932 247.829 33.7791C246.714 31.656 246.156 29.1371 246.156 26.2223C246.156 23.9553 246.493 21.9446 247.168 20.1903C247.843 18.4271 248.783 16.9337 249.988 15.7102C251.203 14.4867 252.606 13.5601 254.199 12.9304C255.8 12.3007 257.523 11.9858 259.367 11.9858C260.968 11.9858 262.457 12.2152 263.834 12.674C265.219 13.1328 266.443 13.7805 267.504 14.6172C268.575 15.4538 269.443 16.4479 270.108 17.5994C270.774 18.7509 271.188 20.0149 271.35 21.3913H264.589ZM275.584 40V12.3636H294.854V17.7884H282.263V23.456H293.869V28.8942H282.263V34.5753H294.854V40H275.584ZM299.037 40V12.3636H310.453C312.522 12.3636 314.308 12.737 315.81 13.4837C317.322 14.2214 318.487 15.2829 319.305 16.6683C320.124 18.0447 320.533 19.6776 320.533 21.5668C320.533 23.483 320.115 25.1113 319.278 26.4517C318.442 27.7831 317.254 28.7997 315.716 29.5014C314.178 30.1941 312.356 30.5405 310.251 30.5405H303.031V25.2777H309.009C310.017 25.2777 310.858 25.1473 311.533 24.8864C312.216 24.6165 312.734 24.2116 313.085 23.6719C313.435 23.1231 313.611 22.4214 313.611 21.5668C313.611 20.7121 313.435 20.0059 313.085 19.4482C312.734 18.8814 312.216 18.4586 311.533 18.1797C310.849 17.8918 310.008 17.7479 309.009 17.7479H305.717V40H299.037ZM314.596 27.3693L321.478 40H314.191L307.444 27.3693H314.596Z" fill="white"/>
</svg>
