<svg width="174" height="32" fill="none" xmlns="http://www.w3.org/2000/svg">
  <path fill-rule="evenodd" clip-rule="evenodd" d="M20.54 7.93c-1.13 0-2.25.28-3.26.8a7.6 7.6 0 0 0-2.61 2.25c.84.13 1.63.52 2.28 1.1a5 5 0 0 1 2.6-1.48c1-.2 2.02-.1 2.94.31a5.18 5.18 0 0 1 2.28 2 5.7 5.7 0 0 1 0 6.05c-.55.89-1.35 1.59-2.28 2-.92.41-1.95.52-2.93.32a5 5 0 0 1-2.61-1.48c-.65.58-1.44.96-2.28 1.1a7.56 7.56 0 0 0 2.98 2.41 7.05 7.05 0 0 0 7.2-.84 7.88 7.88 0 0 0 2.42-3.05 8.46 8.46 0 0 0-.4-7.73 7.72 7.72 0 0 0-2.71-2.75 7.1 7.1 0 0 0-3.62-1v-.01Zm-9.51 11.9a4.79 4.79 0 0 1-5.53 1.1 5.19 5.19 0 0 1-2.26-2 5.7 5.7 0 0 1 0-6 5.19 5.19 0 0 1 2.26-2.01 4.79 4.79 0 0 1 5.53 1.1 4.54 4.54 0 0 1 2.32-1.06 7.48 7.48 0 0 0-3.78-2.71 7.03 7.03 0 0 0-4.55.12 7.55 7.55 0 0 0-3.64 2.92 8.37 8.37 0 0 0 0 9.26 7.55 7.55 0 0 0 3.64 2.92c1.47.55 3.06.6 4.55.13a7.48 7.48 0 0 0 3.78-2.72 4.52 4.52 0 0 1-2.32-1.05Zm5.73-3.9c0 1.65-1.25 3-2.8 3-1.55 0-2.81-1.35-2.81-3 0-1.66 1.26-3 2.8-3 1.56 0 2.81 1.34 2.81 3Z" fill="url(#a)"/>
  <path d="M33.79 16.34v-.05a6.2 6.2 0 0 1 1.62-4.24 5.66 5.66 0 0 1 4.01-1.78c2.09 0 3.38.91 4.4 2.05l-1.08 1.2c-.87-.95-1.86-1.74-3.34-1.74-2.23 0-3.93 2-3.93 4.46v.04c0 2.5 1.74 4.49 4.04 4.49 1.4 0 2.49-.74 3.36-1.72l1.04 1.02c-1.1 1.3-2.43 2.23-4.49 2.23a5.41 5.41 0 0 1-4-1.75 5.95 5.95 0 0 1-1.63-4.21Z" fill="#010101"/>
  <path d="M45.6 16.34v-.05a6.16 6.16 0 0 1 1.71-4.17 5.6 5.6 0 0 1 4-1.74c1.5 0 2.95.6 4.02 1.7a6.16 6.16 0 0 1 1.74 4.17v.04a6.25 6.25 0 0 1-1.68 4.28 5.7 5.7 0 0 1-4.08 1.75 5.4 5.4 0 0 1-4.05-1.73 5.94 5.94 0 0 1-1.65-4.25Zm9.79 0v-.05c0-2.47-1.77-4.5-4.08-4.5-2.39 0-4.02 2.03-4.02 4.45v.04c0 2.48 1.74 4.49 4.06 4.49 2.38 0 4.05-2 4.05-4.43h-.01Z" fill="#010101"/>
  <path d="M60.02 10.51h1.64v1.95c.72-1.14 1.7-2.19 3.55-2.19a3.6 3.6 0 0 1 2.1.6c.62.4 1.12 1 1.43 1.7.8-1.27 1.96-2.3 3.87-2.3 2.53 0 4.08 1.79 4.08 4.64v7.14h-1.64V15.3c0-2.22-1.06-3.48-2.85-3.48-1.66 0-3.02 1.3-3.02 3.57v6.65h-1.63v-6.78c0-2.17-1.09-3.44-2.83-3.44s-3.06 1.52-3.06 3.64v6.58h-1.64V10.5Z" fill="#010101"/>
  <path d="M80.24 10.51h1.64v2.32c.89-1.39 2.19-2.56 4.2-2.56 2.64 0 5.25 2.19 5.25 5.98v.04c0 3.77-2.59 6-5.25 6a4.92 4.92 0 0 1-4.2-2.45V32h-1.64V10.51Zm9.42 5.8v-.04c0-2.72-1.79-4.45-3.87-4.45-2.04 0-3.98 1.8-3.98 4.45v.05c0 2.67 1.94 4.45 3.98 4.45 2.12-.02 3.87-1.67 3.87-4.45Z" fill="#010101"/>
  <path d="M94.18 17.68V10.5h1.64v6.73c0 2.15 1.1 3.49 3.04 3.49 1.87 0 3.3-1.45 3.3-3.62v-6.6h1.61v11.54h-1.61v-2.01c-.75 1.25-1.88 2.25-3.77 2.25-2.65 0-4.2-1.87-4.2-4.61Z" fill="#010101"/>
  <path d="M107.6 0h1.64v22.05h-1.64V0Z" fill="#010101"/>
  <path d="m112.12 20.58.83-1.22a6.25 6.25 0 0 0 3.8 1.47c1.3 0 2.28-.71 2.28-1.83v-.04c0-1.16-1.3-1.61-2.74-2.04-1.72-.51-3.64-1.14-3.64-3.26v-.03c0-1.99 1.58-3.3 3.74-3.3 1.4.03 2.78.47 3.96 1.27l-.75 1.3a6.03 6.03 0 0 0-3.25-1.12c-1.3 0-2.12.71-2.12 1.67v.04c0 1.1 1.36 1.52 2.83 1.99 1.69.52 3.53 1.2 3.53 3.29v.04c0 2.19-1.73 3.46-3.91 3.46a7.34 7.34 0 0 1-4.56-1.69Z" fill="#010101"/>
  <path d="M122.95 16.32v-.05c0-3.32 2.23-6 5.27-6 3.25 0 5.12 2.72 5.12 6.09 0 .19 0 .37-.02.56h-8.71c.23 2.5 1.9 3.89 3.86 3.89a4.36 4.36 0 0 0 3.47-1.62l1.02.96a5.58 5.58 0 0 1-4.53 2.17c-3.02 0-5.48-2.44-5.48-6Zm8.74-.67c-.17-2.1-1.32-3.93-3.5-3.93-1.92 0-3.36 1.67-3.57 3.93h7.07Z" fill="#010101"/>
  <path d="M142.42 21.66c2.98 0 5.15-1.82 5.15-4.66v-.04c0-2.39-1.55-3.5-3.45-3.95l3.18-2.86V7.37h-9.65v3.14h5.11l-3.07 2.9.54 2.03h1.56c1.4 0 2.18.54 2.18 1.44v.04c0 .86-.67 1.42-1.72 1.42-1.22 0-2.23-.58-3.19-1.6l-2.32 2.44a7.12 7.12 0 0 0 5.68 2.48Z" fill="#010101"/>
  <path d="M154.74 21.66c2.92 0 5.3-1.9 5.3-5.04v-.04c0-2.8-2.06-4.37-4.4-4.37-1.32 0-2.18.52-2.88 1.08.17-1.76.95-2.98 2.51-2.98 1.07 0 1.83.42 2.65 1.06l1.74-2.74a6.68 6.68 0 0 0-4.44-1.54c-4.18 0-6.2 3.32-6.2 7.68v.04c0 2.63.65 4.2 1.64 5.25.95 1 2.2 1.6 4.08 1.6Zm-.15-3.02c-1.17 0-1.89-.8-1.89-1.82v-.04c0-1 .69-1.79 1.85-1.79 1.16 0 1.89.8 1.89 1.8v.05c0 1.02-.69 1.8-1.85 1.8Z" fill="#010101"/>
  <path d="M167.8 21.66c3.82 0 6.2-3.32 6.2-7.29v-.04c0-3.96-2.36-7.24-6.16-7.24-3.8 0-6.2 3.32-6.2 7.28v.04c0 3.97 2.35 7.25 6.16 7.25Zm.04-3.44c-1.49 0-2.48-1.6-2.48-3.85v-.04c0-2.24.97-3.8 2.44-3.8s2.48 1.62 2.48 3.84v.04c0 2.23-.95 3.8-2.44 3.8Z" fill="#010101"/>
  <defs>
    <linearGradient id="a" x1="0" y1="15.93" x2="28.01" y2="15.93" gradientUnits="userSpaceOnUse">
      <stop stop-color="#EF5023"/>
      <stop offset="1" stop-color="#E30A7B"/>
    </linearGradient>
  </defs>
</svg>
