<svg xmlns="http://www.w3.org/2000/svg" width="90" height="12" fill="none" viewBox="0 0 90 12">
  <path d="M5.6.5h-1l-4 9.2h1l1-2.4h5l1 2.4h1.2L5.6.5Zm1.6 5.9H3l2.1-4.7 2 4.7Zm11.6 3.3V.2h-1v4a3.8 3.8 0 0 0-1-1 2.9 2.9 0 0 0-1.6-.4 3.1 3.1 0 0 0-2.2 1c-.3.2-.6.6-.8 1L12 6.3c0 .6 0 1 .2 1.5L13 9a3.2 3.2 0 0 0 2.2 1 2.8 2.8 0 0 0 1.5-.5l.6-.5.5-.6v1.4h1Zm-1-3.4c0 .4 0 .8-.2 1-.1.4-.3.7-.6 1l-.7.4a2.3 2.3 0 0 1-1.8 0c-.3 0-.6-.3-.8-.5a2.7 2.7 0 0 1-.7-1.9c0-.4 0-.8.2-1A2.1 2.1 0 0 1 14.5 4a2.3 2.3 0 0 1 2.5.4c.3.3.5.5.6.8l.2 1.1Zm17.5-4v7.4h1V.6h-1l-3.3 5-3.3-5h-1v9h1V2.4L32 7.2l3.3-4.9Zm7.2 1.5c.6 0 1.1.1 1.5.4.3.3.5.8.5 1.4v.2a8.2 8.2 0 0 0-2-.3c-.5 0-.9 0-1.2.2a3 3 0 0 0-1 .4l-.5.7a2 2 0 0 0-.2 1c0 .3 0 .6.2.8a2.2 2.2 0 0 0 1.4 1 3.3 3.3 0 0 0 2.4-.1l1-.8v1h.9V5.6c0-1-.3-1.6-.8-2-.5-.5-1.2-.7-2-.7l-1.4.1-1.1.4.3.8 1-.3a4 4 0 0 1 1-.1Zm0 2.5a6 6 0 0 1 2 .3v.6c0 .3 0 .5-.2.8 0 .2-.2.4-.4.5a2.4 2.4 0 0 1-1.6.5h-.7l-.5-.3-.4-.5-.1-.5c0-.5.2-.8.5-1 .3-.3.8-.4 1.4-.4Zm7.4-.5L50 5a2 2 0 0 1 2-1.3c.5 0 1 .2 1.3.6.3.3.5.8.5 1.5v3.9h1V5.5c0-.4 0-.8-.2-1l-.5-1-.8-.5-1-.2c-.7 0-1.1.1-1.5.4a3 3 0 0 0-.9 1V3h-1v6.7h1V5.8Zm10.7-2c.7 0 1.2.1 1.5.4.4.3.5.8.5 1.4v.2a8.2 8.2 0 0 0-2-.3c-.4 0-.8 0-1.2.2a3 3 0 0 0-.9.4l-.6.7a2 2 0 0 0-.2 1c0 .3 0 .6.2.8a2.2 2.2 0 0 0 1.4 1 3.3 3.3 0 0 0 2.4-.1l1-.8v1h1V5.6c0-1-.3-1.6-.8-2-.5-.5-1.2-.7-2.2-.7l-1.3.1-1.1.4.3.8 1-.3a4 4 0 0 1 1-.1Zm0 2.5a6 6 0 0 1 2 .3v.6l-.1.8-.5.5a2.4 2.4 0 0 1-1.6.5h-.6l-.6-.3c-.1-.1-.3-.3-.3-.5l-.2-.5c0-.5.2-.8.5-1 .4-.3.9-.4 1.5-.4Zm12.8 2.2V3h-1v1.2l-.4-.6a3 3 0 0 0-1.3-.7 3.2 3.2 0 0 0-3.8 1.7c-.2.5-.2 1-.2 1.4 0 .5 0 1 .2 1.3l.7 1 1 .7 1.2.2c.6 0 1.1-.2 1.6-.5.4-.2.8-.6 1-1v.8c0 .8-.2 1.4-.6 1.8-.5.4-1 .6-1.8.6-.5 0-1 0-1.4-.2l-1.2-.6-.4.7a5.2 5.2 0 0 0 4.4.8 2.8 2.8 0 0 0 1.8-1.7c.2-.4.2-.8.2-1.4Zm-1-2.5a2.1 2.1 0 0 1-.7 1.7 2.5 2.5 0 0 1-1.7.6c-.3 0-.6 0-.9-.2-.3 0-.5-.2-.7-.4l-.5-.8c-.2-.3-.2-.6-.2-1a2.3 2.3 0 0 1 .7-1.6L69 4a2.6 2.6 0 0 1 2.6.4 2.2 2.2 0 0 1 .8 1.7Zm5.2.7h5.3V6.4c0-.5 0-1-.2-1.4-.1-.4-.3-.8-.6-1.1-.3-.4-.6-.6-1-.8a3 3 0 0 0-1.3-.3 3 3 0 0 0-2.3 1L76.8 5a4 4 0 0 0 .7 3.9 3.3 3.3 0 0 0 2.4 1c.7 0 1.2-.2 1.6-.4.5-.2.8-.5 1.2-1L82 8l-1 .7c-.3.2-.7.3-1.2.3-.3 0-.5 0-.8-.2-.3 0-.5-.2-.7-.4a2.5 2.5 0 0 1-.8-1.7Zm0-.8c0-.3 0-.6.2-.9l.5-.7a2 2 0 0 1 1.5-.6c.3 0 .6 0 .8.2.3 0 .5.2.7.4l.4.8.2.8h-4.3ZM87 7c0-.5 0-1 .2-1.3l.5-1 .9-.6 1-.2h.1V3h-.9l-.8.4a3 3 0 0 0-.6.6l-.4.8V3h-1v6.7h1V7Z" fill="#757575"/>
</svg>
