<svg xmlns="http://www.w3.org/2000/svg" width="114" height="22" fill="none"><path d="M14.8 14.9 13 13c-.7.7-1.4 1.2-2 1.6-.8.3-1.6.5-2.6.5-.8 0-1.5-.1-2.1-.4a5.4 5.4 0 0 1-2.8-3 6.4 6.4 0 0 1 0-4.6 5.3 5.3 0 0 1 5-3.4c.8 0 1.6.2 2.4.5a9 9 0 0 1 2 1.5l1.8-2.1a11 11 0 0 0-1.2-1l-1.4-.8A10 10 0 0 0 8.4 1 8.3 8.3 0 0 0 .7 6a8.8 8.8 0 0 0 1.7 9.2 8.3 8.3 0 0 0 6 2.4A9.3 9.3 0 0 0 12 17a9.2 9.2 0 0 0 2.7-2.1Zm14.8-3.5a6.3 6.3 0 0 0-1.9-4.5c-.6-.6-1.2-1-2-1.3C24.9 5.2 24 5 23 5a6.6 6.6 0 0 0-4.7 1.8 6.4 6.4 0 0 0-1.8 4.5 6.3 6.3 0 0 0 3.9 5.8 6.8 6.8 0 0 0 7.2-1.3 6.3 6.3 0 0 0 1.9-4.5Zm-2.8 0c0 .6-.1 1-.3 1.5a3.7 3.7 0 0 1-1.9 2.1c-.4.2-1 .3-1.5.3s-1 0-1.5-.3a4 4 0 0 1-1.2-.8 4 4 0 0 1-.7-1.3 4.4 4.4 0 0 1 .7-4.3l1.1-.8 1.5-.3c.6 0 1.1.1 1.5.3.5.2.9.5 1.2.9.4.3.6.7.8 1.2l.3 1.5Zm15.7-4.2c-.3-.6-.8-1.2-1.4-1.5-.6-.4-1.4-.6-2.2-.6a4.1 4.1 0 0 0-3 1.3 8 8 0 0 0-.7.7V5.3h-2.8v12.2h2.8v-6.9c0-1 .2-1.7.7-2.2.5-.5 1-.8 1.9-.8.8 0 1.4.2 1.8.7.4.6.6 1.3.6 2.2v7H43v-6.9c0-1 .3-1.7.7-2.2.5-.6 1.1-.8 2-.8.7 0 1.3.2 1.7.7.5.6.7 1.3.7 2.3v6.9h2.8V9.7c0-1.5-.4-2.6-1.2-3.4A4 4 0 0 0 46.6 5c-1 0-1.7.2-2.4.6-.6.3-1.2.9-1.7 1.5Zm24.3 4.2c0-1-.2-2-.5-2.7a6 6 0 0 0-3-3.2c-.7-.3-1.4-.4-2.2-.4-1 0-1.8.2-2.4.6A6 6 0 0 0 57 7.3v-2h-2.8v15.8H57v-5.5l1.7 1.5c.6.4 1.4.6 2.4.6a5.5 5.5 0 0 0 5.2-3.6 7 7 0 0 0 .5-2.7Zm-2.8 0c0 .6-.1 1.1-.3 1.6a3.6 3.6 0 0 1-1.9 2c-.4.2-.8.3-1.3.3a3.4 3.4 0 0 1-2.5-1l-.8-1.3c-.2-.5-.2-1-.2-1.6 0-.6 0-1.2.2-1.6.2-.5.5-1 .8-1.2a3.2 3.2 0 0 1 2.5-1.1 3.2 3.2 0 0 1 2.4 1c.4.4.6.8.8 1.3.2.4.3 1 .3 1.6Zm13.6.8c0 1-.2 1.7-.7 2.2-.5.5-1.2.8-2 .8s-1.5-.3-2-.8c-.4-.5-.6-1.2-.6-2.2V5.3h-2.8V13a5 5 0 0 0 1.1 3.4 4 4 0 0 0 3.2 1.3 4 4 0 0 0 2.3-.6c.6-.4 1.1-1 1.5-1.5v1.9h2.8V5.3h-2.8v6.9Zm9.3 5.3V.7H84v16.8h2.8Zm12.3-3.6c0-.6-.1-1.1-.4-1.5-.2-.4-.5-.7-.9-1a5 5 0 0 0-1.2-.6 15.5 15.5 0 0 0-2.3-.8l-1-.4L93 9a.8.8 0 0 1-.2-.5c0-.4.1-.7.4-1a2 2 0 0 1 1.3-.3l1.6.3 1.8.9 1-2A8.3 8.3 0 0 0 94.5 5c-.6 0-1.1 0-1.7.3-.5.1-1 .4-1.4.7l-.9 1.2c-.2.4-.3 1-.3 1.5 0 .6.1 1.1.3 1.5l1 1 1.1.7a28.3 28.3 0 0 0 2.4.7l.9.4.6.4.2.6c0 .5-.2.8-.5 1-.3.3-.8.4-1.4.4-.6 0-1.3-.1-2-.4-.6-.3-1.3-.6-2-1.1l-1.2 1.9a8.5 8.5 0 0 0 5.2 1.8c.6 0 1.2 0 1.7-.2.6-.2 1-.5 1.5-.8.4-.3.7-.7 1-1.2.2-.4.3-1 .3-1.6Zm5-1.5h8.8v-.8c0-.9 0-1.7-.3-2.5a6 6 0 0 0-1-2 5 5 0 0 0-2-1.5c-.6-.4-1.5-.5-2.4-.5a5.6 5.6 0 0 0-4.3 1.8 6.9 6.9 0 0 0-1.7 4.5c0 1 .2 1.8.5 2.6s.8 1.4 1.3 2a6.1 6.1 0 0 0 4.5 1.7 6.2 6.2 0 0 0 5-2.2l-1.7-1.5c-.5.5-1 .8-1.5 1a4 4 0 0 1-1.8.5c-.9 0-1.7-.3-2.3-.8-.6-.6-1-1.3-1.2-2.3Zm-.1-1.9a4 4 0 0 1 1-2.3c.6-.6 1.3-.9 2.1-.9a2.8 2.8 0 0 1 2.2 1c.3.3.5.6.6 1l.3 1.2h-6.2Z" fill="#000"/></svg>