<svg xmlns="http://www.w3.org/2000/svg" width="51" height="29" fill="none"><path fill-rule="evenodd" clip-rule="evenodd" d="M21.2 21.8a7.8 7.8 0 1 1 0-11.6c1.2-1 2.7-1.8 4.4-2a12.3 12.3 0 1 0 0 15.5 7.7 7.7 0 0 1-4.4-2Z" fill="#EF4735"/><path fill-rule="evenodd" clip-rule="evenodd" d="M44.2 16a7.8 7.8 0 0 1-12.9 5.8 7.7 7.7 0 0 1-4.4 1.9 12.3 12.3 0 1 0 0-15.5c1.7.2 3.2 1 4.4 2a7.8 7.8 0 0 1 13 5.8Z" fill="#E31970"/><path d="M26.3 21.1a5.2 5.2 0 1 1 0-10.3 5.2 5.2 0 0 1 0 10.3Z" fill="url(#a)"/><defs><linearGradient id="a" x1="31.4" y1="16" x2="21.1" y2="16" gradientUnits="userSpaceOnUse"><stop stop-color="#E31970"/><stop offset="1" stop-color="#EF4735"/></linearGradient></defs></svg>