<svg width="883" height="717" viewBox="0 0 883 717" fill="none" xmlns="http://www.w3.org/2000/svg">
<g clip-path="url(#clip0_834_37028)">
<path d="M257.768 355.149H34.498C15.8865 355.149 0.742188 340.005 0.742188 321.393V114.863C0.742188 114.417 1.10477 114.054 1.55152 114.054H458.066C458.513 114.054 458.875 114.417 458.875 114.863V265.167C458.875 265.614 458.513 265.976 458.066 265.976C457.619 265.976 457.257 265.614 457.257 265.167V115.673H2.36086V321.393C2.36086 339.114 16.7768 353.53 34.498 353.53H257.768C258.215 353.53 258.577 353.893 258.577 354.339C258.577 354.786 258.215 355.149 257.768 355.149Z" fill="#1A1B22"/>
<path d="M458.066 115.673H1.55152C1.10477 115.673 0.742188 115.31 0.742188 114.863V62.8261C0.742188 46.2088 14.2549 32.6929 30.8657 32.6929H428.742C445.359 32.6929 458.875 46.212 458.875 62.8261V114.86C458.875 115.31 458.516 115.673 458.066 115.673ZM2.36086 114.054H457.257V62.8261C457.257 47.1023 444.466 34.3115 428.742 34.3115H30.8657C15.1484 34.3115 2.36086 47.1023 2.36086 62.8261V114.054Z" fill="#1A1B22"/>
<path d="M44.3782 90.1654C52.2344 90.1654 58.6031 83.7967 58.6031 75.9405C58.6031 68.0843 52.2344 61.7156 44.3782 61.7156C36.522 61.7156 30.1533 68.0843 30.1533 75.9405C30.1533 83.7967 36.522 90.1654 44.3782 90.1654Z" fill="url(#paint0_linear_834_37028)"/>
<path d="M95.2659 90.1654C103.122 90.1654 109.491 83.7967 109.491 75.9405C109.491 68.0843 103.122 61.7156 95.2659 61.7156C87.4097 61.7156 81.041 68.0843 81.041 75.9405C81.041 83.7967 87.4097 90.1654 95.2659 90.1654Z" fill="url(#paint1_linear_834_37028)"/>
<path d="M146.154 90.1654C154.01 90.1654 160.379 83.7967 160.379 75.9405C160.379 68.0843 154.01 61.7156 146.154 61.7156C138.297 61.7156 131.929 68.0843 131.929 75.9405C131.929 83.7967 138.297 90.1654 146.154 90.1654Z" fill="url(#paint2_linear_834_37028)"/>
<path d="M427.113 159.781H23.782C23.3352 159.781 22.9727 159.419 22.9727 158.972C22.9727 158.525 23.3352 158.163 23.782 158.163H427.113C427.56 158.163 427.923 158.525 427.923 158.972C427.923 159.419 427.56 159.781 427.113 159.781Z" fill="#1A1B22"/>
<path d="M427.113 190.766H23.782C23.3352 190.766 22.9727 190.404 22.9727 189.957C22.9727 189.51 23.3352 189.147 23.782 189.147H427.113C427.56 189.147 427.923 189.51 427.923 189.957C427.923 190.404 427.56 190.766 427.113 190.766Z" fill="#1A1B22"/>
<path d="M427.113 221.754H23.782C23.3352 221.754 22.9727 221.391 22.9727 220.945C22.9727 220.498 23.3352 220.135 23.782 220.135H427.113C427.56 220.135 427.923 220.498 427.923 220.945C427.923 221.391 427.56 221.754 427.113 221.754Z" fill="#1A1B22"/>
<path d="M198.236 252.742H23.782C23.3352 252.742 22.9727 252.379 22.9727 251.932C22.9727 251.486 23.3352 251.123 23.782 251.123H198.236C198.683 251.123 199.045 251.486 199.045 251.932C199.045 252.379 198.683 252.742 198.236 252.742Z" fill="#1A1B22"/>
<path d="M198.236 283.726H23.782C23.3352 283.726 22.9727 283.364 22.9727 282.917C22.9727 282.47 23.3352 282.108 23.782 282.108H198.236C198.683 282.108 199.045 282.47 199.045 282.917C199.045 283.364 198.683 283.726 198.236 283.726Z" fill="#1A1B22"/>
<path d="M198.236 314.714H23.782C23.3352 314.714 22.9727 314.352 22.9727 313.905C22.9727 313.458 23.3352 313.096 23.782 313.096H198.236C198.683 313.096 199.045 313.458 199.045 313.905C199.045 314.352 198.683 314.714 198.236 314.714Z" fill="#1A1B22"/>
<path d="M320.945 251.932H213.737V313.905H320.945V251.932Z" fill="#E31970"/>
<path d="M313.401 308.599H221.276C220.829 308.599 220.467 308.236 220.467 307.79V258.048C220.467 257.601 220.829 257.239 221.276 257.239H313.401C313.848 257.239 314.211 257.601 314.211 258.048V307.79C314.211 308.236 313.848 308.599 313.401 308.599ZM222.085 306.98H312.592V258.857H222.085V306.98Z" fill="white"/>
<path d="M226.755 132.74V185.531C226.755 187.813 228.603 189.662 230.886 189.662H298.805C299.899 189.662 300.952 190.096 301.725 190.873L319.424 208.571C322.027 211.174 326.475 209.332 326.475 205.651V193.793C326.475 191.511 328.323 189.662 330.606 189.662H336.851C339.133 189.662 340.981 187.813 340.981 185.531V132.74C340.981 130.457 339.133 128.609 336.851 128.609H230.886C228.603 128.609 226.755 130.461 226.755 132.74Z" fill="white"/>
<path d="M322.311 210.601C321.039 210.601 319.806 210.099 318.851 209.141L301.152 191.443C300.524 190.814 299.689 190.468 298.802 190.468H230.886C228.16 190.468 225.945 188.251 225.945 185.528V132.74C225.945 130.017 228.163 127.8 230.886 127.8H336.854C339.579 127.8 341.794 130.017 341.794 132.74V185.531C341.794 188.257 339.576 190.471 336.854 190.471H330.609C328.776 190.471 327.287 191.961 327.287 193.793V205.648C327.287 207.684 326.119 209.432 324.238 210.213C323.603 210.475 322.952 210.601 322.311 210.601ZM230.886 129.418C229.053 129.418 227.564 130.907 227.564 132.74V185.531C227.564 187.364 229.053 188.853 230.886 188.853H298.805C300.126 188.853 301.366 189.367 302.298 190.3L319.997 207.998C321.152 209.154 322.625 209.128 323.616 208.717C324.607 208.306 325.665 207.286 325.665 205.648V193.793C325.665 191.067 327.883 188.853 330.605 188.853H336.85C338.683 188.853 340.172 187.364 340.172 185.531V132.74C340.172 130.907 338.683 129.418 336.85 129.418H230.886Z" fill="#1A1B22"/>
<path d="M257.58 166.486C261.639 166.486 264.929 163.196 264.929 159.137C264.929 155.078 261.639 151.788 257.58 151.788C253.522 151.788 250.231 155.078 250.231 159.137C250.231 163.196 253.522 166.486 257.58 166.486Z" fill="url(#paint3_linear_834_37028)"/>
<path d="M283.867 166.486C287.926 166.486 291.216 163.196 291.216 159.137C291.216 155.078 287.926 151.788 283.867 151.788C279.809 151.788 276.519 155.078 276.519 159.137C276.519 163.196 279.809 166.486 283.867 166.486Z" fill="url(#paint4_linear_834_37028)"/>
<path d="M310.154 166.486C314.213 166.486 317.503 163.196 317.503 159.137C317.503 155.078 314.213 151.788 310.154 151.788C306.096 151.788 302.806 155.078 302.806 159.137C302.806 163.196 306.096 166.486 310.154 166.486Z" fill="url(#paint5_linear_834_37028)"/>
<path d="M547.346 177.474C547.054 177.474 546.773 177.315 546.627 177.04C542.02 168.205 541.292 157.46 544.251 147.933C543.59 147.399 542.978 146.829 542.412 146.22C535.96 139.299 536.549 128.616 539.252 120.927C540.978 116.019 543.564 111.435 546.064 107C547.757 103.999 549.505 100.894 550.962 97.7345C554.545 89.9552 556.549 81.3179 556.76 72.7552C556.87 68.2067 556.996 63.0528 554.785 59.0126C551.211 52.4861 546.552 47.6949 540.939 44.778C536.161 42.295 530.712 41.2331 525.186 41.7058C515.707 42.5216 506.94 47.8664 504.794 54.1437C504.648 54.5677 504.188 54.7911 503.768 54.6487C503.344 54.503 503.12 54.0433 503.263 53.6224C505.603 46.7787 514.969 40.9644 525.047 40.0968C537.928 38.9896 549.285 45.6003 556.203 58.2389C558.625 62.6611 558.492 68.0448 558.375 72.7972C558.162 81.5769 556.106 90.4343 552.431 98.4144C550.949 101.636 549.181 104.766 547.472 107.796C545.005 112.17 542.457 116.689 540.777 121.464C538.229 128.706 537.634 138.723 543.593 145.116C543.972 145.524 544.377 145.913 544.801 146.285C545.853 143.375 547.258 140.6 549.01 138.056C551.111 135.003 553.827 132.397 556.65 130.723C559.974 128.748 563.455 128.043 566.705 128.68C571.328 129.584 575.167 133.271 576.258 137.852C577.353 142.433 575.588 147.454 571.872 150.348C568.443 153.015 563.571 153.935 557.391 153.074C552.661 152.417 548.721 151.034 545.62 148.953C542.972 157.943 543.726 167.998 548.055 176.295C548.262 176.69 548.106 177.179 547.711 177.386C547.598 177.444 547.472 177.474 547.346 177.474ZM546.145 147.337C549.094 149.432 552.936 150.817 557.624 151.468C563.354 152.264 567.819 151.455 570.888 149.066C574.06 146.596 575.627 142.135 574.691 138.221C573.759 134.307 570.35 131.034 566.401 130.263C559.864 128.985 553.823 133.922 550.347 138.972C548.569 141.552 547.164 144.375 546.145 147.337Z" fill="#1A1B22"/>
<path d="M345.332 246.724L354.086 234.904C354.086 234.904 357.695 230.398 360.098 229.494L362.5 228.591C363.753 221.582 361.334 219.617 358.602 219.407C355.494 219.167 352.674 221.255 351.81 224.25L345.332 246.724Z" fill="white"/>
<path d="M345.332 247.533C345.212 247.533 345.089 247.507 344.972 247.449C344.623 247.274 344.445 246.876 344.555 246.5L351.036 224.03C352.02 220.621 355.225 218.338 358.666 218.604C360.259 218.727 361.499 219.352 362.354 220.456C363.662 222.146 363.976 224.93 363.296 228.737C363.244 229.018 363.05 229.252 362.784 229.352L360.382 230.255C358.582 230.932 355.682 234.208 354.717 235.412L345.979 247.206C345.824 247.416 345.581 247.533 345.332 247.533ZM358.119 220.2C355.604 220.2 353.318 221.942 352.59 224.477L347.352 242.635L353.435 234.425C353.836 233.923 357.274 229.695 359.812 228.74L361.781 228.002C362.279 224.904 362.043 222.699 361.075 221.45C360.502 220.711 359.673 220.307 358.543 220.219C358.401 220.206 358.262 220.2 358.119 220.2Z" fill="#1A1B22"/>
<path d="M420.597 278.123H372.089C369.916 278.123 368.094 276.491 367.854 274.335L358.767 192.725C358.485 190.2 360.46 187.992 363.001 187.992H411.51C413.682 187.992 415.505 189.623 415.744 191.779L424.832 273.39C425.113 275.915 423.135 278.123 420.597 278.123Z" fill="#1A1B22"/>
<path d="M420.597 278.932H372.088C369.502 278.932 367.336 276.993 367.048 274.422L357.96 192.812C357.802 191.381 358.262 189.944 359.22 188.869C360.181 187.794 361.557 187.179 362.998 187.179H411.506C414.093 187.179 416.259 189.118 416.543 191.689L425.631 273.299C425.789 274.73 425.33 276.167 424.371 277.242C423.413 278.317 422.037 278.932 420.597 278.932ZM363.001 188.801C362.02 188.801 361.085 189.219 360.431 189.95C359.777 190.682 359.463 191.66 359.573 192.634L368.66 274.244C368.854 275.996 370.33 277.313 372.091 277.313H420.6C421.581 277.313 422.516 276.896 423.17 276.164C423.824 275.432 424.138 274.455 424.028 273.48L414.941 191.87C414.747 190.119 413.271 188.801 411.509 188.801H363.001Z" fill="#1A1B22"/>
<path d="M415.942 278.123H367.433C365.261 278.123 363.439 276.491 363.199 274.335L354.112 192.725C353.83 190.2 355.805 187.992 358.346 187.992H406.855C409.027 187.992 410.849 189.623 411.089 191.779L420.176 273.39C420.458 275.915 418.483 278.123 415.942 278.123Z" fill="white"/>
<path d="M415.941 278.932H367.433C364.846 278.932 362.681 276.993 362.392 274.422L353.305 192.812C353.147 191.381 353.606 189.944 354.564 188.869C355.523 187.794 356.902 187.179 358.342 187.179H406.851C409.438 187.179 411.603 189.118 411.891 191.689L420.979 273.299C421.137 274.73 420.678 276.167 419.719 277.242C418.761 278.317 417.382 278.932 415.941 278.932ZM358.346 188.801C357.365 188.801 356.429 189.219 355.775 189.95C355.121 190.682 354.807 191.66 354.917 192.634L364.005 274.244C364.199 275.996 365.675 277.313 367.436 277.313H415.945C416.926 277.313 417.864 276.896 418.518 276.164C419.172 275.432 419.486 274.455 419.376 273.48L410.289 191.87C410.095 190.119 408.618 188.801 406.857 188.801H358.346Z" fill="#1A1B22"/>
<path d="M377.456 201.061H364.889C362.839 201.061 361.114 199.53 360.871 197.497C360.583 195.088 362.464 192.968 364.889 192.968H377.456C379.505 192.968 381.231 194.499 381.473 196.532C381.762 198.941 379.881 201.061 377.456 201.061Z" fill="#1A1B22"/>
<path d="M377.456 201.87H364.889C362.432 201.87 360.36 200.032 360.069 197.594C359.904 196.215 360.337 194.829 361.257 193.793C362.176 192.754 363.5 192.158 364.889 192.158H377.456C379.914 192.158 381.985 193.997 382.277 196.435C382.442 197.814 382.008 199.196 381.089 200.236C380.169 201.275 378.845 201.87 377.456 201.87ZM364.889 193.777C363.963 193.777 363.083 194.175 362.468 194.865C361.852 195.558 361.564 196.48 361.674 197.4C361.869 199.025 363.251 200.252 364.889 200.252H377.456C378.382 200.252 379.263 199.854 379.878 199.164C380.493 198.475 380.781 197.549 380.671 196.629C380.477 195.004 379.095 193.777 377.456 193.777H364.889Z" fill="#1A1B22"/>
<path d="M366.64 201.061H364.889C362.839 201.061 361.114 199.53 360.871 197.497C360.583 195.088 362.464 192.968 364.889 192.968H366.64C368.689 192.968 370.415 194.499 370.657 196.532C370.946 198.941 369.065 201.061 366.64 201.061Z" fill="white"/>
<path d="M366.64 201.87H364.889C362.432 201.87 360.36 200.032 360.069 197.594C359.904 196.215 360.337 194.829 361.257 193.793C362.176 192.754 363.5 192.158 364.889 192.158H366.64C369.098 192.158 371.169 193.997 371.461 196.435C371.626 197.814 371.192 199.2 370.273 200.236C369.353 201.275 368.029 201.87 366.64 201.87ZM364.889 193.777C363.963 193.777 363.083 194.175 362.468 194.865C361.852 195.558 361.564 196.48 361.674 197.4C361.869 199.025 363.251 200.252 364.889 200.252H366.64C367.566 200.252 368.447 199.854 369.062 199.164C369.677 198.471 369.965 197.549 369.855 196.629C369.661 195.004 368.279 193.777 366.64 193.777H364.889Z" fill="#1A1B22"/>
<path d="M237.729 612.029L252.685 578.16L295.266 594.57L281.756 629.475C281.756 629.475 246.146 649.615 237.729 612.029Z" fill="white"/>
<path d="M261.892 635.662C258.179 635.662 254.77 634.998 251.782 633.671C244.388 630.388 239.396 623.166 236.939 612.204C236.9 612.036 236.919 611.857 236.987 611.699L251.944 577.83C252.119 577.435 252.572 577.247 252.977 577.402L295.557 593.816C295.758 593.893 295.92 594.046 296.007 594.243C296.095 594.441 296.098 594.661 296.024 594.861L282.514 629.766C282.446 629.941 282.32 630.087 282.158 630.178C281.986 630.275 277.888 632.573 272.096 634.176C268.516 635.17 265.091 635.662 261.892 635.662ZM238.577 612.11C240.934 622.398 245.595 629.155 252.439 632.191C264.243 637.432 279.021 630.016 281.109 628.905L294.217 595.033L253.113 579.189L238.577 612.11Z" fill="#1A1B22"/>
<path d="M464.026 650.906C363.661 642.748 341.647 559.225 347.633 522.073L385.543 445.043L426.064 457.002C424.239 462.807 429.826 466.996 434.359 465.61L452.293 460.175L448.231 471.593L446.518 496.643C444.475 509.162 462.129 505.611 464.026 493.872C466.441 505.65 480.054 497.867 479.604 488.767C482.33 497.757 495.612 491.638 496.807 483.94L497.875 475.814L509.199 478.326C509.199 478.326 533.467 443.982 566.97 457.756C566.97 457.756 564.26 436.62 571.12 424.036L593.115 417.338C616.54 407.286 604.52 368.299 604.52 368.299L592.202 326.754L581.642 292.869C572.794 273.661 559.521 271.632 559.521 271.632L546.898 268.339C585.365 257.148 693.945 291.441 717.827 465.656C737.135 606.512 585.28 660.764 464.026 650.906Z" fill="url(#paint6_linear_834_37028)"/>
<path d="M746.808 589.429C728.423 589.429 710.585 585.829 693.797 578.726C677.578 571.866 663.013 562.048 650.507 549.538C638.001 537.029 628.179 522.468 621.319 506.249C614.216 489.457 610.616 471.622 610.616 453.237C610.616 434.852 614.216 417.014 621.319 400.226C628.179 384.006 637.998 369.445 650.507 356.936C663.016 344.427 677.578 334.608 693.797 327.748C710.589 320.645 728.423 317.045 746.808 317.045C765.193 317.045 783.031 320.645 799.82 327.748C816.039 334.608 830.604 344.427 843.109 356.936C855.615 369.445 865.437 384.006 872.297 400.226C879.4 417.018 883 434.852 883 453.237C883 471.622 879.4 489.46 872.297 506.249C865.437 522.468 855.619 537.033 843.109 549.538C830.6 562.044 816.039 571.866 799.82 578.726C783.031 585.826 765.193 589.429 746.808 589.429ZM746.808 318.664C728.64 318.664 711.016 322.222 694.428 329.24C678.403 336.019 664.01 345.722 651.653 358.082C639.293 370.442 629.59 384.832 622.811 400.857C615.793 417.448 612.235 435.069 612.235 453.237C612.235 471.405 615.793 489.029 622.811 505.617C629.59 521.642 639.293 536.035 651.653 548.392C664.013 560.753 678.403 570.455 694.428 577.234C711.019 584.253 728.643 587.81 746.808 587.81C764.973 587.81 782.6 584.253 799.188 577.234C815.213 570.455 829.607 560.753 841.963 548.392C854.324 536.032 864.026 521.642 870.805 505.617C877.824 489.026 881.381 471.402 881.381 453.237C881.381 435.072 877.824 417.445 870.805 400.857C864.026 384.832 854.324 370.439 841.963 358.082C829.603 345.722 815.213 336.019 799.188 329.24C782.6 322.222 764.976 318.664 746.808 318.664Z" fill="white"/>
<path d="M427.175 611.233C405.958 611.233 385.375 607.636 365.996 600.543C347.271 593.689 330.456 583.88 316.011 571.381C301.56 558.875 290.213 544.31 282.285 528.091C274.071 511.289 269.908 493.439 269.908 475.037C269.908 456.636 274.071 438.789 282.285 421.984C290.213 405.765 301.56 391.2 316.011 378.694C330.453 366.198 347.271 356.385 365.996 349.532C385.375 342.439 405.958 338.842 427.175 338.842C448.393 338.842 468.976 342.439 488.355 349.532C507.079 356.385 523.894 366.195 538.339 378.694C552.791 391.2 564.138 405.765 572.069 421.984C580.282 438.786 584.446 456.636 584.446 475.037C584.446 493.439 580.282 511.286 572.069 528.091C564.141 544.31 552.794 558.875 538.339 571.381C523.894 583.877 507.079 593.689 488.355 600.543C468.976 607.636 448.393 611.233 427.175 611.233ZM427.175 340.467C406.149 340.467 385.75 344.032 366.553 351.057C348.012 357.842 331.366 367.554 317.073 379.921C302.787 392.281 291.573 406.674 283.741 422.696C275.638 439.274 271.527 456.886 271.527 475.037C271.527 493.189 275.635 510.8 283.741 527.379C291.573 543.4 302.79 557.794 317.073 570.154C331.369 582.524 348.016 592.236 366.553 599.018C385.753 606.046 406.149 609.607 427.175 609.607C448.202 609.607 468.597 606.043 487.798 599.018C506.335 592.233 522.985 582.521 537.277 570.154C551.564 557.794 562.778 543.4 570.609 527.379C578.712 510.8 582.824 493.189 582.824 475.037C582.824 456.886 578.715 439.274 570.609 422.696C562.778 406.674 551.561 392.281 537.277 379.921C522.981 367.551 506.335 357.839 487.798 351.057C468.597 344.032 448.202 340.467 427.175 340.467Z" fill="white"/>
<path d="M560.324 716.129C535.594 716.129 512.344 706.498 494.856 689.01C477.367 671.522 467.736 648.271 467.736 623.541C467.736 598.811 477.367 575.56 494.856 558.072C512.344 540.584 535.594 530.953 560.324 530.953C585.055 530.953 608.305 540.584 625.793 558.072C643.281 575.56 652.913 598.811 652.913 623.541C652.913 648.271 643.281 671.522 625.793 689.01C608.308 706.498 585.058 716.129 560.324 716.129ZM560.324 532.572C536.025 532.572 513.182 542.034 495.998 559.215C478.815 576.395 469.355 599.241 469.355 623.541C469.355 647.841 478.818 670.683 495.998 687.867C513.179 705.051 536.025 714.51 560.324 714.51C584.624 714.51 607.467 705.048 624.65 687.867C641.831 670.686 651.294 647.841 651.294 623.541C651.294 599.241 641.831 576.399 624.65 559.215C607.47 542.034 584.624 532.572 560.324 532.572Z" fill="white"/>
<path d="M347.634 523.241C319.627 523.241 296.843 500.457 296.843 472.451C296.843 444.444 319.627 421.66 347.634 421.66C375.64 421.66 398.424 444.444 398.424 472.451C398.424 500.457 375.64 523.241 347.634 523.241ZM347.634 423.282C320.521 423.282 298.461 445.341 298.461 472.454C298.461 499.567 320.521 521.626 347.634 521.626C374.746 521.626 396.806 499.567 396.806 472.454C396.806 445.341 374.746 423.282 347.634 423.282Z" fill="white"/>
<path d="M518.731 389.371C494.001 389.371 470.75 379.74 453.262 362.252C435.774 344.763 426.143 321.513 426.143 296.783C426.143 272.053 435.774 248.802 453.262 231.314C470.75 213.826 494.001 204.195 518.731 204.195C543.461 204.195 566.711 213.826 584.2 231.314C601.688 248.802 611.319 272.053 611.319 296.783C611.319 321.513 601.688 344.763 584.2 362.252C566.711 379.74 543.461 389.371 518.731 389.371ZM518.731 205.813C494.431 205.813 471.588 215.276 454.405 232.457C437.224 249.637 427.761 272.483 427.761 296.783C427.761 321.082 437.224 343.925 454.405 361.109C471.585 378.289 494.431 387.752 518.731 387.752C543.03 387.752 565.873 378.289 583.057 361.109C600.237 343.928 609.7 321.082 609.7 296.783C609.7 272.483 600.237 249.64 583.057 232.457C565.876 215.273 543.03 205.813 518.731 205.813Z" fill="white"/>
<path d="M527.219 232.013C526.789 232.013 526.429 231.673 526.41 231.239C526.391 230.793 526.737 230.414 527.184 230.394C536.161 229.993 538.343 224.072 538.796 222.269C539.66 218.84 538.553 215.428 536.109 213.968C534.769 213.168 533.322 213.023 531.69 213.525C531.263 213.657 530.809 213.418 530.68 212.99C530.551 212.563 530.787 212.11 531.214 211.98C533.28 211.343 535.209 211.547 536.941 212.579C539.997 214.405 541.405 218.552 540.369 222.667C539.741 225.16 538.32 227.335 536.261 228.96C533.898 230.825 530.871 231.851 527.258 232.013C527.245 232.01 527.232 232.013 527.219 232.013Z" fill="#1A1B22"/>
<path d="M495.406 248.592C492.57 248.592 490.31 247.87 488.565 246.931C483.016 243.936 480.782 237.63 481.058 233.036L483.414 201.278C483.447 200.831 483.842 200.498 484.282 200.53C484.729 200.562 485.062 200.951 485.03 201.398L482.673 233.146C482.43 237.232 484.408 242.852 489.332 245.506C493.46 247.734 500.867 248.527 512.729 239.679C513.088 239.411 513.593 239.485 513.862 239.844C514.13 240.204 514.056 240.709 513.697 240.977C505.972 246.74 499.951 248.592 495.406 248.592Z" fill="#1A1B22"/>
<path d="M529.343 264.788C529.022 264.788 527.782 264.71 526.682 263.6C525.438 262.344 524.885 260.285 525.031 257.481L526.413 231.162C526.436 230.715 526.827 230.375 527.264 230.394C527.711 230.417 528.054 230.799 528.032 231.246L526.649 257.565C526.529 259.864 526.937 261.557 527.834 262.46C528.537 263.169 529.34 263.169 529.34 263.169C529.78 263.147 530.162 263.496 530.181 263.943C530.201 264.39 529.854 264.765 529.407 264.785C529.395 264.788 529.372 264.788 529.343 264.788Z" fill="#1A1B22"/>
<path d="M488.229 265.976C487.824 265.976 487.4 265.944 486.963 265.876C486.519 265.808 486.215 265.397 486.283 264.956C486.351 264.516 486.762 264.208 487.202 264.276C488.015 264.399 488.75 264.383 489.381 264.228C492.117 263.558 492.418 260.385 492.421 260.353L493.072 247.947C493.094 247.501 493.473 247.157 493.923 247.18C494.37 247.203 494.713 247.585 494.69 248.031L494.036 260.463C494.02 260.667 493.619 264.853 489.77 265.798C489.29 265.918 488.772 265.976 488.229 265.976Z" fill="#1A1B22"/>
<path d="M532.333 207.639C532.091 209.886 531.084 211.317 531.45 212.748C528.798 213.563 526.477 215.736 525.218 217.102L524.855 217.082C525.933 214.768 527.341 209.896 520.239 209.711C510.909 209.465 508.231 197.03 508.231 197.03C493.883 207.325 484.226 201.336 484.226 201.336C480.727 196.584 489.231 174.502 513.22 182.563C529.371 187.992 533.557 196.318 532.333 207.639Z" fill="#1A1B22"/>
<path d="M525.218 217.914C525.205 217.914 525.189 217.914 525.176 217.914L524.813 217.895C524.545 217.882 524.302 217.733 524.163 217.503C524.024 217.273 524.011 216.989 524.124 216.746C524.648 215.616 525.403 213.515 524.551 212.142C523.923 211.126 522.463 210.582 520.216 210.524C516.108 210.414 512.586 208.053 510.038 203.69C508.827 201.621 508.112 199.585 507.746 198.358C493.654 207.921 484.201 202.275 483.8 202.026C483.712 201.971 483.634 201.899 483.573 201.818C481.627 199.177 482.864 193.168 486.328 188.419C489.102 184.615 497.296 176.36 513.476 181.799C521.443 184.476 526.834 187.953 529.958 192.43C532.774 196.47 533.817 201.475 533.14 207.73C533.03 208.753 532.777 209.601 532.554 210.349C532.288 211.239 532.081 211.942 532.233 212.55C532.34 212.968 532.101 213.395 531.686 213.521C529.174 214.295 526.927 216.441 525.811 217.649C525.658 217.817 525.441 217.914 525.218 217.914ZM508.229 196.224C508.326 196.224 508.426 196.244 508.52 196.279C508.776 196.376 508.963 196.597 509.018 196.862C509.044 196.979 511.68 208.678 520.255 208.905C523.081 208.979 524.988 209.779 525.921 211.288C526.581 212.353 526.652 213.593 526.448 214.781C527.62 213.771 529.022 212.799 530.56 212.204C530.54 211.43 530.764 210.676 530.997 209.889C531.21 209.174 531.431 208.435 531.524 207.555C532.454 198.973 530.971 189.387 512.952 183.33C507.902 181.633 495.318 178.823 487.626 189.371C484.415 193.774 483.573 198.801 484.777 200.724C485.328 201.019 487.542 202.087 490.983 202.239C497.665 202.537 503.79 199.212 507.749 196.373C507.895 196.273 508.06 196.224 508.229 196.224Z" fill="#1A1B22"/>
<path d="M540.842 343.116L554.008 386.486L523.548 402.388L437.56 379.86L448.127 329.923L406.097 328.551L425.142 291.004C432.993 276.841 447.509 267.647 463.67 266.598L487.082 265.079C487.082 265.079 487.189 267.65 488.523 270.654C490.63 275.4 493.615 289.78 500.948 300.787C513.217 286.676 528.064 269.864 529.21 266.057C529.572 264.853 529.627 264.082 529.627 264.082L546.899 268.589L559.521 271.881C559.521 271.881 572.794 273.911 581.642 293.118L592.202 327.003L540.842 343.116Z" fill="#BAE5FF"/>
<path d="M441.941 273.742C443.029 273.241 444.104 272.71 445.166 272.153C446.528 271.434 447.865 270.667 449.177 269.861C446.208 271.042 443.375 272.519 440.711 274.264C440.951 274.157 441.197 274.04 441.439 273.972C441.608 273.895 441.776 273.82 441.941 273.742Z" fill="#3593C1"/>
<path d="M500.948 301.593C500.928 301.593 500.906 301.593 500.883 301.59C500.627 301.571 500.394 301.428 500.258 301.211C492.084 288.09 486.354 265.5 486.295 265.274C486.185 264.84 486.451 264.4 486.885 264.293C487.318 264.183 487.759 264.448 487.866 264.882C487.921 265.102 493.324 286.397 501.058 299.415C516.231 281.807 529.618 263.979 529.754 263.797C530.022 263.441 530.527 263.367 530.887 263.636C531.246 263.904 531.317 264.413 531.048 264.769C530.909 264.953 517.063 283.396 501.556 301.315C501.404 301.49 501.181 301.593 500.948 301.593Z" fill="#1A1B22"/>
<path d="M512.12 241.155C512.12 241.155 505.367 254.05 493.615 253.062L493.858 248.465C493.858 248.465 504.182 248.145 512.12 241.155Z" fill="#1A1B22"/>
<path d="M494.868 253.927C494.428 253.927 493.991 253.907 493.547 253.872C493.11 253.836 492.783 253.46 492.806 253.023L493.049 248.426C493.071 248.006 493.411 247.672 493.832 247.659C493.932 247.656 503.971 247.254 511.586 240.55C511.88 240.291 512.314 240.281 512.622 240.521C512.929 240.76 513.02 241.188 512.838 241.534C512.767 241.67 511.055 244.907 507.843 248.061C503.913 251.913 499.452 253.927 494.868 253.927ZM494.467 252.302C501.048 252.499 505.959 248.051 508.756 244.626C502.819 248.245 496.723 249.051 494.628 249.226L494.467 252.302Z" fill="#1A1B22"/>
<path d="M528.893 225.975C528.851 225.975 528.806 225.972 528.76 225.966C528.32 225.894 528.019 225.477 528.093 225.036C528.466 222.77 530.327 218.413 534.701 218.151C535.151 218.122 535.53 218.465 535.555 218.911C535.581 219.358 535.241 219.74 534.795 219.766C530.602 220.015 529.696 225.244 529.686 225.299C529.625 225.694 529.281 225.975 528.893 225.975Z" fill="#1A1B22"/>
<path d="M493.819 234.894C492.732 234.894 491.521 234.7 490.19 234.224C489.77 234.075 489.549 233.609 489.702 233.188C489.85 232.767 490.317 232.547 490.737 232.699C496.668 234.82 499.575 230.433 499.695 230.246C499.938 229.87 500.437 229.76 500.812 230C501.188 230.239 501.301 230.738 501.061 231.113C501.029 231.162 498.598 234.894 493.819 234.894Z" fill="#1A1B22"/>
<path d="M491.948 230.676C491.508 230.676 491.038 230.608 490.582 230.417C489.624 230.019 488.937 229.21 488.539 228.012C487.607 225.182 489.646 222.984 491.135 222.013L491.372 217.539C491.394 217.092 491.78 216.749 492.223 216.772C492.67 216.794 493.013 217.176 492.99 217.623L492.731 222.528C492.718 222.809 492.557 223.062 492.311 223.198C492.188 223.266 489.232 224.93 490.08 227.507C490.326 228.248 490.692 228.711 491.203 228.925C492.171 229.326 493.395 228.734 493.408 228.727C493.806 228.527 494.295 228.685 494.496 229.083C494.696 229.482 494.538 229.97 494.14 230.171C494.078 230.194 493.11 230.676 491.948 230.676Z" fill="#1A1B22"/>
<path d="M501.069 219.02C501.161 217.276 500.558 215.826 499.722 215.782C498.886 215.738 498.135 217.117 498.043 218.861C497.951 220.606 498.554 222.055 499.39 222.099C500.225 222.143 500.977 220.765 501.069 219.02Z" fill="#1A1B22"/>
<path d="M487.888 218.327C487.98 216.582 487.377 215.133 486.541 215.089C485.706 215.045 484.954 216.423 484.862 218.168C484.771 219.912 485.374 221.362 486.209 221.406C487.045 221.45 487.797 220.071 487.888 218.327Z" fill="#1A1B22"/>
<path d="M504.542 216.089C504.244 216.089 503.959 215.923 503.817 215.639C502.871 213.738 500.676 214.334 500.583 214.363C500.152 214.486 499.705 214.237 499.582 213.806C499.459 213.376 499.708 212.929 500.139 212.806C501.372 212.456 504.034 212.447 505.264 214.92C505.464 215.321 505.299 215.807 504.901 216.004C504.785 216.063 504.662 216.089 504.542 216.089Z" fill="#1A1B22"/>
<path d="M484.224 215.023C483.965 215.023 483.706 214.897 483.55 214.664C483.301 214.292 483.401 213.79 483.77 213.541C485.972 212.064 488.034 211.945 488.121 211.941C488.565 211.925 488.947 212.262 488.97 212.709C488.992 213.155 488.649 213.534 488.206 213.557C488.186 213.557 486.48 213.67 484.67 214.884C484.534 214.978 484.379 215.02 484.224 215.023Z" fill="#1A1B22"/>
<path d="M484.761 494.759C483.971 494.759 483.237 494.61 482.557 494.316C479.682 493.063 478.989 489.657 478.96 489.512C478.876 489.075 479.161 488.647 479.601 488.563C480.041 488.479 480.465 488.764 480.55 489.204C480.556 489.23 481.119 491.933 483.214 492.836C484.813 493.526 486.953 493.05 489.575 491.418C497.597 486.423 497.099 476.546 497.076 476.138C497.07 476.077 497.073 476.015 497.083 475.954L499.724 455.892C499.757 455.649 499.896 455.432 500.106 455.306C507.475 450.829 515.277 440.686 515.354 440.586C515.458 440.45 515.6 440.353 515.762 440.304L570.894 423.515C571.25 423.408 571.636 423.554 571.827 423.874C572.018 424.195 571.966 424.603 571.7 424.865C563.623 432.822 567.738 457.381 567.78 457.627C567.828 457.909 567.725 458.197 567.508 458.381C567.291 458.566 566.99 458.624 566.721 458.53C557.896 455.494 549.427 454.665 541.548 456.06C535.251 457.177 529.304 459.712 523.875 463.597C514.59 470.24 509.974 478.637 509.929 478.722C509.76 479.032 509.404 479.201 509.058 479.13L498.724 477.061C498.688 479.974 497.889 488.162 490.443 492.798C488.319 494.099 486.422 494.759 484.761 494.759ZM498.776 475.416L508.786 477.42C509.958 475.432 514.535 468.284 522.862 462.311C528.491 458.271 534.665 455.633 541.208 454.467C548.994 453.079 557.317 453.788 565.967 456.572C565.255 451.628 563.283 434.441 568.851 425.82L516.471 441.771C515.299 443.276 508.284 452.078 501.269 456.478L498.776 475.416Z" fill="#1A1B22"/>
<path d="M433.246 466.465C430.591 466.465 428.538 465.698 427.14 464.183C424.608 461.437 425.236 457.297 425.265 457.119C425.272 457.08 425.282 457.041 425.291 457.005C426.033 454.645 427.778 452.344 430.481 450.162C430.539 450.113 430.607 450.074 430.678 450.045L452.074 441.104C453.204 440.278 465.959 431.032 480.883 423.742L553.037 386.078L540.065 343.349L532.784 320.027C532.651 319.599 532.888 319.146 533.315 319.013C533.742 318.881 534.196 319.117 534.328 319.544L541.612 342.873L554.782 386.25C554.895 386.622 554.727 387.024 554.381 387.202L481.612 425.186C466.173 432.729 453.084 442.369 452.955 442.463C452.903 442.502 452.844 442.534 452.786 442.56L431.407 451.492C429.034 453.425 427.502 455.422 426.855 457.426C426.8 457.873 426.47 461.075 428.335 463.092C429.568 464.425 431.546 465.002 434.21 464.811L451.666 459.757L454.217 452.583C454.366 452.162 454.829 451.942 455.25 452.091C455.671 452.24 455.891 452.703 455.742 453.124L453.052 460.689C452.964 460.936 452.764 461.123 452.514 461.195L434.579 466.384C434.528 466.4 434.472 466.41 434.417 466.413C434.019 466.449 433.624 466.465 433.246 466.465Z" fill="#1A1B22"/>
<path d="M452.103 505.216C450.365 505.216 448.943 504.743 447.859 503.798C445.143 501.431 445.651 497.029 445.713 496.562L447.118 476.005C447.464 470.949 449.079 466.779 449.147 466.604L451.533 460.142C451.689 459.721 452.155 459.508 452.573 459.663C452.99 459.819 453.207 460.285 453.052 460.702L450.659 467.18C450.637 467.235 449.06 471.321 448.73 476.119L447.322 496.702C447.322 496.721 447.318 496.744 447.315 496.763C447.309 496.802 446.778 500.719 448.924 502.584C450.281 503.762 452.485 503.921 455.48 503.053C462.074 501.082 463.12 494.756 463.214 494.076L462.851 472.823C462.851 472.748 462.861 472.671 462.88 472.6L466.862 457.795C466.979 457.365 467.422 457.109 467.853 457.225C468.283 457.342 468.539 457.785 468.423 458.216L464.473 472.91L464.836 494.108C464.836 494.144 464.836 494.18 464.829 494.215C464.79 494.542 463.806 502.25 455.939 504.607C454.525 505.012 453.246 505.216 452.103 505.216Z" fill="#1A1B22"/>
<path d="M469.672 500.667C468.429 500.667 467.318 500.344 466.357 499.699C463.712 497.925 463.242 494.371 463.223 494.222C463.168 493.778 463.482 493.374 463.926 493.319C464.369 493.26 464.774 493.578 464.829 494.021C464.832 494.057 465.24 497.009 467.266 498.362C468.38 499.107 469.821 499.246 471.55 498.78C477.506 497.171 478.824 490.013 478.94 489.301L478.578 468.058C478.578 467.983 478.588 467.905 478.607 467.834L482.589 453.03C482.705 452.599 483.149 452.344 483.579 452.46C484.01 452.577 484.266 453.02 484.149 453.451L480.196 468.145L480.559 489.343C480.559 489.385 480.556 489.427 480.553 489.469C480.54 489.56 480.229 491.716 479.041 494.125C477.438 497.375 474.994 499.525 471.97 500.34C471.161 500.557 470.394 500.667 469.672 500.667Z" fill="#1A1B22"/>
<path d="M515.989 441.88C515.611 441.88 515.271 441.612 515.196 441.223C513.791 433.93 509.168 433.389 509.123 433.382C508.679 433.337 508.352 432.942 508.398 432.499C508.443 432.055 508.835 431.731 509.282 431.773C509.521 431.796 515.154 432.45 516.786 440.919C516.87 441.359 516.582 441.783 516.145 441.867C516.09 441.877 516.038 441.88 515.989 441.88Z" fill="#1A1B22"/>
<path d="M309.394 600.824C309.297 600.824 309.2 600.808 309.103 600.769L243.589 575.518C243.385 575.44 243.22 575.282 243.136 575.078C243.051 574.877 243.048 574.647 243.136 574.447L308.634 419.737C312.696 406.862 318.896 395.894 327.054 387.137C333.594 380.118 341.402 374.498 350.256 370.435C365.329 363.521 378.428 363.511 378.557 363.524C378.625 363.524 378.693 363.533 378.758 363.55L447.681 381.682L523.752 401.601C524.183 401.715 524.442 402.158 524.332 402.589C524.218 403.023 523.775 403.278 523.344 403.165L447.273 383.246L378.453 365.139C377.239 365.152 364.944 365.46 350.868 371.934C342.221 375.913 334.597 381.41 328.21 388.27C320.223 396.852 314.153 407.613 310.168 420.258C310.162 420.284 310.152 420.307 310.142 420.329L244.955 574.304L308.999 598.989L346.912 521.956C347.109 521.555 347.595 521.39 347.997 521.587C348.398 521.785 348.563 522.27 348.366 522.672L310.126 600.368C309.98 600.656 309.695 600.824 309.394 600.824Z" fill="#1A1B22"/>
<path d="M554.008 387.296C553.704 387.296 553.413 387.124 553.277 386.833C553.086 386.428 553.26 385.946 553.662 385.755L566.297 379.791C566.702 379.6 567.184 379.775 567.375 380.177C567.566 380.581 567.392 381.064 566.99 381.255L554.355 387.218C554.241 387.27 554.125 387.296 554.008 387.296Z" fill="#1A1B22"/>
<path d="M347.634 523.128C347.514 523.128 347.391 523.102 347.278 523.044C346.876 522.847 346.711 522.361 346.909 521.959L384.818 444.93C384.993 444.577 385.394 444.399 385.773 444.512L418.988 454.315C419.415 454.441 419.661 454.891 419.535 455.322C419.409 455.749 418.959 455.995 418.528 455.869L385.967 446.261L348.359 522.678C348.22 522.963 347.932 523.128 347.634 523.128Z" fill="#1A1B22"/>
<path d="M571.12 425.092C570.777 425.092 570.457 424.872 570.35 424.525C570.214 424.098 570.45 423.645 570.878 423.509L592.843 416.574C593.147 416.448 597.107 414.752 600.697 410.067C606.913 401.958 607.304 391.239 606.531 383.647L591.419 327.204C591.302 326.774 591.558 326.33 591.992 326.213C592.425 326.097 592.869 326.356 592.982 326.786L608.11 383.291C608.12 383.333 608.13 383.375 608.133 383.417C608.949 391.336 608.531 402.573 601.914 411.136C597.916 416.306 593.588 418.021 593.406 418.089C593.39 418.096 593.374 418.102 593.358 418.106L571.363 425.05C571.282 425.079 571.201 425.092 571.12 425.092Z" fill="#1A1B22"/>
<path d="M385.543 445.289L314.694 414.923L221.176 528.237L166.533 504.41L252.614 360.487C252.614 360.487 287.908 308.615 353.273 343.119L467.642 399.41L473.696 392.181L483.366 407.497L385.543 445.289Z" fill="white"/>
<path d="M410.927 336.495C410.927 336.495 393.662 308.612 384.704 290.201C387.187 280.813 382.464 272.839 382.464 272.839C382.043 269.149 384.4 265.707 387.993 264.765L395.549 262.791C407.217 260.256 402.348 248.87 396.465 248.87C401.538 238.08 391.179 233.709 387.184 236.137C392.364 227.503 384.147 223.253 380.709 223.619L362.499 228.591C359.476 229.417 356.818 231.233 354.947 233.745L346.18 245.523C341.919 251.317 339.699 257.122 341.761 262.891L350.272 286.679L366.743 349.742L410.927 336.495Z" fill="white"/>
<path d="M366.747 350.558C366.388 350.558 366.061 350.315 365.964 349.953L349.502 286.925L341.001 263.169C339.065 257.756 340.544 251.829 345.527 245.047L354.296 233.266C356.265 230.621 359.104 228.682 362.286 227.814L380.496 222.842C380.538 222.829 380.581 222.822 380.623 222.819C382.986 222.566 386.676 224.065 388.509 226.934C389.551 228.565 390.344 231.171 388.81 234.755C391.102 234.435 393.899 235.273 395.858 237.031C399.784 240.556 398.7 245.467 397.638 248.196C400.542 248.834 403.074 251.748 403.436 255.124C404.097 261.262 397.735 263.147 395.738 263.584L388.198 265.555C385.064 266.374 382.963 269.382 383.251 272.593C383.925 273.801 387.777 281.263 385.56 290.12C394.433 308.288 411.442 335.799 411.61 336.074C411.847 336.453 411.73 336.952 411.348 337.188C410.969 337.424 410.471 337.308 410.235 336.926C410.063 336.647 392.844 308.796 383.973 290.56C383.889 290.386 383.87 290.188 383.918 290C386.285 281.043 381.811 273.335 381.765 273.26C381.707 273.163 381.671 273.053 381.659 272.94C381.192 268.873 383.828 265.027 387.787 263.992L395.343 262.017C395.353 262.013 395.365 262.01 395.375 262.01C401.698 260.634 401.992 256.86 401.824 255.302C401.503 252.314 398.998 249.692 396.463 249.692C396.185 249.692 395.929 249.55 395.78 249.317C395.631 249.084 395.611 248.789 395.731 248.54C398.444 242.767 396.298 239.611 394.773 238.245C392.484 236.189 389.218 235.862 387.602 236.843C387.285 237.037 386.874 236.989 386.612 236.727C386.346 236.464 386.298 236.056 386.489 235.736C388.298 232.719 388.525 229.98 387.143 227.814C385.602 225.399 382.474 224.298 380.856 224.434L362.71 229.391C359.874 230.164 357.346 231.89 355.591 234.247L346.825 246.024C342.124 252.421 340.755 257.701 342.519 262.638L351.03 286.426C351.036 286.449 351.046 286.472 351.049 286.494L367.521 349.558C367.634 349.992 367.375 350.432 366.942 350.545C366.883 350.548 366.815 350.558 366.747 350.558Z" fill="#1A1B22"/>
<path d="M437.56 380.666C437.505 380.666 437.447 380.659 437.392 380.649C436.955 380.556 436.676 380.128 436.767 379.691L447.9 327.081L452.543 304.607C452.633 304.17 453.061 303.889 453.498 303.979C453.935 304.07 454.216 304.497 454.126 304.934L449.483 327.411L438.35 380.025C438.272 380.403 437.936 380.666 437.56 380.666Z" fill="#1A1B22"/>
<path d="M415.676 362.556C415.621 362.556 415.562 362.549 415.507 362.536C415.07 362.442 414.792 362.012 414.886 361.575C416.058 356.075 415.776 351.435 415.329 348.512C414.847 345.336 414.073 343.442 414.067 343.423C413.895 343.009 414.093 342.536 414.507 342.368C414.921 342.196 415.394 342.393 415.562 342.805C415.698 343.128 418.826 350.862 416.469 361.915C416.385 362.297 416.048 362.556 415.676 362.556Z" fill="#1A1B22"/>
<path d="M314.697 415.732C314.412 415.732 314.133 415.58 313.988 415.312C307.008 402.592 311.87 389.219 312.078 388.655C312.233 388.238 312.699 388.024 313.117 388.179C313.534 388.335 313.748 388.801 313.593 389.219C313.544 389.351 308.788 402.476 315.402 414.531C315.616 414.923 315.474 415.415 315.082 415.629C314.962 415.7 314.826 415.732 314.697 415.732Z" fill="#1A1B22"/>
<path d="M367.223 277.52C366.867 277.52 366.54 277.281 366.443 276.922C365.417 273.092 367.715 265.921 369.823 260.576C371.321 256.779 374.578 253.881 378.538 252.823L396.262 248.087C396.693 247.97 397.136 248.229 397.253 248.66C397.369 249.09 397.11 249.534 396.68 249.65L378.955 254.386C375.488 255.312 372.639 257.847 371.328 261.169C368.476 268.401 367.297 273.846 368.006 276.501C368.123 276.931 367.867 277.375 367.433 277.491C367.362 277.514 367.291 277.52 367.223 277.52Z" fill="#1A1B22"/>
<path d="M357.397 262.195C357.022 262.195 356.685 261.933 356.607 261.551C356.057 258.909 356.847 254.817 358.951 249.388C360.9 244.37 365.186 240.637 370.421 239.404L386.692 235.568C387.129 235.464 387.563 235.736 387.666 236.17C387.77 236.604 387.498 237.041 387.064 237.144L370.793 240.981C366.076 242.094 362.214 245.455 360.46 249.974C358.498 255.031 357.711 258.922 358.19 261.22C358.281 261.657 357.999 262.088 357.562 262.179C357.507 262.192 357.452 262.195 357.397 262.195Z" fill="#1A1B22"/>
<path d="M378.984 297.592C378.777 297.592 378.569 297.514 378.411 297.356C378.094 297.038 378.094 296.527 378.411 296.21C378.715 295.905 379.168 295.582 379.693 295.206C381.201 294.128 383.484 292.493 383.908 290.059C383.986 289.619 384.406 289.324 384.843 289.402C385.284 289.479 385.578 289.897 385.501 290.337C384.963 293.426 382.357 295.29 380.635 296.524C380.169 296.857 379.767 297.145 379.557 297.356C379.398 297.514 379.191 297.592 378.984 297.592Z" fill="#1A1B22"/>
<path d="M284.466 615.943C284.466 615.943 281.375 616.467 277.554 621.187C274.528 624.93 269.96 627.092 265.146 627.021L264.67 627.014C260.999 626.959 257.47 625.613 254.689 623.214C249.759 618.96 241.445 612.511 235.877 612.029L196.987 626.001C196.987 626.001 191.049 625.82 184.367 627.235C174.06 629.417 166.692 638.539 166.536 649.074L289.131 650.906C289.128 650.906 290.53 611.692 284.466 615.943Z" fill="#1A1B22"/>
<path d="M289.128 651.716C289.125 651.716 289.118 651.716 289.115 651.716L166.52 649.883C166.073 649.877 165.717 649.508 165.724 649.061C165.801 643.774 167.682 638.608 171.014 634.512C174.361 630.401 179.042 627.536 184.196 626.445C190.379 625.137 195.847 625.173 196.851 625.189L235.599 611.265C235.709 611.226 235.825 611.21 235.942 611.22C241.529 611.702 249.506 617.675 255.214 622.599C257.846 624.871 261.209 626.15 264.676 626.202L265.152 626.208C269.733 626.286 274.019 624.26 276.92 620.676C280.4 616.373 283.369 615.38 284.136 615.185C285.091 614.59 285.865 614.836 286.253 615.046C287.616 615.784 289.481 618.575 289.963 634.205C290.222 642.622 289.934 650.848 289.931 650.932C289.921 651.372 289.565 651.716 289.128 651.716ZM167.372 648.277L288.345 650.087C288.409 647.834 288.562 641.104 288.351 634.253C287.879 618.941 286.04 616.775 285.489 616.474C285.421 616.438 285.285 616.364 284.933 616.61C284.835 616.678 284.725 616.723 284.609 616.742C284.551 616.755 281.702 617.354 278.186 621.699C274.971 625.671 270.203 627.898 265.136 627.83L264.66 627.824C260.811 627.766 257.085 626.348 254.165 623.826C249.688 619.964 241.416 613.444 235.981 612.851L197.262 626.762C197.165 626.798 197.061 626.811 196.964 626.811C196.906 626.811 191.04 626.649 184.536 628.028C179.741 629.044 175.387 631.709 172.273 635.535C169.337 639.138 167.614 643.635 167.372 648.277Z" fill="#1A1B22"/>
<path d="M280.461 643.557H193.701C193.429 643.557 193.173 643.418 193.024 643.192C192.875 642.965 192.852 642.674 192.962 642.424C196.336 634.762 194.575 629.472 194.558 629.42C194.413 628.999 194.636 628.536 195.057 628.39C195.478 628.242 195.938 628.465 196.087 628.883C196.167 629.109 197.919 634.269 194.918 641.939H279.769C280.147 639.773 281.656 633.467 286.467 632.563C286.907 632.482 287.328 632.771 287.412 633.211C287.496 633.651 287.205 634.072 286.765 634.156C282.223 635.008 281.277 642.764 281.268 642.842C281.219 643.25 280.873 643.557 280.461 643.557Z" fill="white"/>
<path d="M224.494 633.34C224.206 633.34 223.928 633.185 223.782 632.916L217.738 621.692C217.527 621.297 217.673 620.809 218.068 620.595C218.46 620.381 218.952 620.53 219.165 620.925L225.21 632.149C225.42 632.544 225.274 633.033 224.879 633.246C224.756 633.308 224.624 633.34 224.494 633.34Z" fill="white"/>
<path d="M155.352 528.457L169.415 505.666L211.872 524.18L196.582 551.756C196.586 551.756 158.557 566.842 155.352 528.457Z" fill="white"/>
<path d="M180.752 555.482C175.148 555.482 170.23 554.242 166.316 551.818C159.44 547.554 155.481 539.716 154.545 528.525C154.532 528.353 154.571 528.179 154.662 528.033L168.725 505.242C168.935 504.899 169.366 504.766 169.738 504.925L212.196 523.439C212.406 523.53 212.565 523.705 212.64 523.921C212.714 524.138 212.691 524.375 212.581 524.572L197.291 552.148C197.201 552.313 197.055 552.439 196.883 552.507C196.699 552.578 192.328 554.297 186.369 555.094C184.433 555.353 182.558 555.482 180.752 555.482ZM156.183 528.654C157.113 539.163 160.806 546.492 167.165 550.439C178.129 557.24 193.798 551.915 196.022 551.102L210.736 524.566L169.738 506.686L156.183 528.654Z" fill="#1A1B22"/>
<path d="M201.118 538.722C201.118 538.722 197.981 538.82 193.555 542.973C190.043 546.265 185.226 547.784 180.467 547.055L179.994 546.984C176.365 546.427 173.053 544.611 170.625 541.856C166.323 536.968 158.968 529.444 153.516 528.204L113.081 536.735C113.081 536.735 107.225 535.744 100.41 536.233C89.9021 536.987 81.3587 545.016 79.7627 555.43L200.956 573.993C200.959 573.993 207.703 535.336 201.118 538.722Z" fill="#1A1B22"/>
<path d="M200.959 574.803C200.917 574.803 200.878 574.8 200.836 574.793L79.6424 556.23C79.4287 556.198 79.2409 556.081 79.1114 555.91C78.9819 555.738 78.9301 555.521 78.9625 555.308C79.7621 550.079 82.3294 545.217 86.1915 541.617C90.0666 538.001 95.0974 535.803 100.352 535.427C106.655 534.974 112.068 535.757 113.061 535.913L153.347 527.415C153.46 527.392 153.58 527.392 153.693 527.418C159.165 528.661 166.248 535.667 171.23 541.322C173.529 543.932 176.682 545.66 180.113 546.185L180.586 546.256C185.112 546.952 189.634 545.537 192.998 542.384C197.035 538.6 200.11 538.02 200.897 537.933C201.923 537.473 202.658 537.823 203.014 538.085C204.264 539.004 205.731 542.021 204.07 557.57C203.176 565.942 201.768 574.055 201.752 574.136C201.687 574.524 201.347 574.803 200.959 574.803ZM80.701 554.754L200.292 573.074C200.664 570.85 201.736 564.204 202.461 557.389C204.086 542.157 202.561 539.759 202.053 539.386C201.991 539.341 201.865 539.247 201.483 539.445C201.38 539.5 201.263 539.529 201.146 539.532C201.088 539.535 198.184 539.739 194.105 543.562C190.376 547.059 185.361 548.626 180.34 547.855L179.867 547.784C176.063 547.201 172.564 545.285 170.013 542.391C166.105 537.952 158.802 530.361 153.499 529.033L113.243 537.525C113.142 537.547 113.042 537.547 112.942 537.531C112.883 537.522 107.095 536.563 100.465 537.039C95.5766 537.389 90.8986 539.435 87.2922 542.798C83.8995 545.968 81.5751 550.189 80.701 554.754Z" fill="#1A1B22"/>
<path d="M193.487 565.537C193.451 565.537 193.412 565.534 193.377 565.531L107.428 553.679C107.156 553.64 106.923 553.469 106.807 553.223C106.69 552.977 106.706 552.685 106.849 552.452C111.235 545.32 110.216 539.843 110.206 539.788C110.119 539.351 110.403 538.923 110.841 538.836C111.281 538.745 111.705 539.027 111.792 539.464C111.841 539.7 112.87 545.052 108.85 552.238L192.907 563.831C193.577 561.737 195.934 555.696 200.823 555.46C201.269 555.434 201.648 555.783 201.671 556.23C201.693 556.677 201.347 557.056 200.9 557.078C196.297 557.302 194.29 564.854 194.27 564.932C194.176 565.291 193.853 565.537 193.487 565.537Z" fill="white"/>
<path d="M147.563 545.476C147.236 545.476 146.925 545.275 146.805 544.948L142.351 533.005C142.195 532.588 142.409 532.121 142.826 531.963C143.247 531.807 143.71 532.021 143.869 532.439L148.323 544.381C148.479 544.799 148.265 545.265 147.848 545.424C147.75 545.459 147.657 545.476 147.563 545.476Z" fill="white"/>
<path d="M139.44 547.768C139.113 547.768 138.802 547.567 138.682 547.24L134.227 535.297C134.072 534.88 134.286 534.413 134.703 534.255C135.124 534.099 135.587 534.313 135.746 534.731L140.2 546.673C140.356 547.091 140.142 547.557 139.725 547.716C139.631 547.751 139.534 547.768 139.44 547.768Z" fill="white"/>
<path d="M218.451 515.799C218.341 515.799 218.231 515.776 218.124 515.728L177.696 497.76C177.288 497.579 177.103 497.1 177.285 496.692C177.466 496.284 177.945 496.1 178.353 496.281L218.781 514.248C219.189 514.429 219.373 514.909 219.192 515.316C219.056 515.621 218.761 515.799 218.451 515.799Z" fill="#1A1B22"/>
<path d="M307.186 587.665C307.082 587.665 306.979 587.645 306.875 587.603L253.462 565.473C253.048 565.301 252.854 564.828 253.025 564.414C253.197 564 253.67 563.805 254.084 563.977L307.497 586.107C307.911 586.279 308.105 586.752 307.934 587.166C307.804 587.477 307.503 587.665 307.186 587.665Z" fill="#1A1B22"/>
<path d="M198.237 506.818C198.075 506.818 197.913 506.77 197.774 506.673C197.408 506.417 197.318 505.912 197.577 505.546L285.934 379.422C286.277 378.84 290.323 372.129 298.119 366.787C305.51 361.724 317.763 357.056 334.147 363.585C334.163 363.592 334.18 363.598 334.196 363.608L471.624 429.028C472.029 429.219 472.201 429.702 472.006 430.106C471.815 430.511 471.33 430.683 470.928 430.488L333.526 365.078C320.913 360.06 309.307 361.086 299.035 368.124C291.353 373.388 287.355 380.196 287.316 380.267C287.303 380.287 287.293 380.306 287.277 380.326L198.901 506.472C198.742 506.695 198.493 506.818 198.237 506.818Z" fill="#1A1B22"/>
<path d="M286.613 574.803C286.506 574.803 286.396 574.78 286.289 574.735C285.878 574.557 285.69 574.081 285.868 573.67L348.553 429.433C348.731 429.022 349.207 428.837 349.618 429.012C350.029 429.19 350.217 429.666 350.039 430.077L287.354 574.314C287.221 574.621 286.923 574.803 286.613 574.803Z" fill="#1A1B22"/>
<path d="M495.419 182.284C495.419 182.284 471.268 183.372 483.425 207.325C483.425 207.325 487.403 189.306 495.419 182.284Z" fill="#1A1B22"/>
<path d="M483.424 208.134C483.123 208.134 482.842 207.966 482.702 207.691C478.763 199.928 478.138 193.644 480.841 189.012C482.537 186.101 485.6 183.877 489.698 182.572C492.748 181.604 495.28 181.478 495.386 181.475C495.726 181.462 496.047 181.663 496.173 181.98C496.303 182.3 496.215 182.663 495.956 182.89C488.232 189.656 484.256 207.319 484.218 207.497C484.143 207.83 483.868 208.083 483.528 208.125C483.492 208.131 483.457 208.134 483.424 208.134ZM493.179 183.385C490.113 183.939 484.755 185.505 482.233 189.831C480.058 193.566 480.378 198.639 483.182 204.936C484.409 200.303 487.694 189.585 493.179 183.385Z" fill="#1A1B22"/>
<path d="M571.12 482.985C570.732 482.985 570.392 482.707 570.324 482.312L566.174 457.896C566.099 457.455 566.394 457.038 566.837 456.963C567.278 456.892 567.695 457.183 567.77 457.627L571.92 482.043C571.994 482.483 571.7 482.901 571.256 482.975C571.211 482.979 571.166 482.985 571.12 482.985Z" fill="#1A1B22"/>
<path d="M598.201 350.212C598.084 350.212 597.965 350.186 597.851 350.131C597.447 349.94 597.278 349.454 597.469 349.053C601.629 340.341 610.856 338.166 611.247 338.078C611.684 337.978 612.115 338.253 612.215 338.69C612.313 339.127 612.041 339.558 611.604 339.658C611.503 339.681 602.74 341.769 598.929 349.752C598.79 350.044 598.502 350.212 598.201 350.212Z" fill="#1A1B22"/>
<path d="M418.758 488.178C418.577 488.178 418.392 488.116 418.24 487.99C417.897 487.705 417.848 487.194 418.137 486.851C418.256 486.705 421.131 483.283 426.291 480.01C431.06 476.986 438.755 473.548 448.299 474.351C448.746 474.39 449.076 474.779 449.037 475.225C448.998 475.672 448.607 475.999 448.163 475.963C430.727 474.5 419.493 487.751 419.383 487.883C419.221 488.078 418.991 488.178 418.758 488.178Z" fill="#1A1B22"/>
<path d="M518.731 486.546C518.491 486.546 518.255 486.443 518.096 486.239C518.051 486.18 513.383 480.35 508.98 479.107C508.549 478.984 508.3 478.537 508.42 478.106C508.543 477.676 508.989 477.427 509.42 477.546C514.328 478.935 519.161 484.976 519.365 485.232C519.644 485.581 519.585 486.09 519.232 486.368C519.083 486.488 518.909 486.546 518.731 486.546Z" fill="#1A1B22"/>
<path d="M448.127 330.729C448.118 330.729 448.108 330.729 448.101 330.729L406.071 329.357C405.624 329.341 405.275 328.968 405.287 328.522C405.304 328.075 405.679 327.722 406.123 327.738L448.153 329.111C448.6 329.127 448.95 329.499 448.937 329.946C448.924 330.386 448.564 330.729 448.127 330.729Z" fill="#1A1B22"/>
<path d="M525.468 451.677C524.276 451.677 523.046 451.638 521.771 451.557C514.784 451.123 509.223 449.634 508.99 449.569C508.559 449.453 508.303 449.009 508.42 448.575C508.536 448.145 508.98 447.886 509.414 448.006C509.634 448.064 531.687 453.901 542.033 445.526C545.886 442.408 547.663 437.63 547.32 431.327C547.294 430.88 547.637 430.498 548.084 430.475C548.527 430.453 548.913 430.793 548.935 431.239C549.307 438.093 547.326 443.324 543.05 446.785C539.032 450.035 533.127 451.677 525.468 451.677Z" fill="#1A1B22"/>
<path d="M496.25 265.976H487.94C487.493 265.976 487.131 265.614 487.131 265.167C487.131 264.72 487.493 264.357 487.94 264.357H496.25C496.697 264.357 497.06 264.72 497.06 265.167C497.06 265.614 496.697 265.976 496.25 265.976Z" fill="#1A1B22"/>
<path d="M500.102 280.276C499.957 280.276 499.814 280.237 499.681 280.156C499.639 280.13 495.567 277.695 491.74 279.243C491.326 279.411 490.853 279.21 490.688 278.796C490.523 278.382 490.72 277.909 491.135 277.744C495.732 275.886 500.335 278.657 500.53 278.777C500.912 279.01 501.028 279.508 500.795 279.89C500.64 280.14 500.374 280.276 500.102 280.276Z" fill="#1A1B22"/>
<path d="M506.93 281.14C506.759 281.14 506.587 281.085 506.442 280.975C506.085 280.706 506.017 280.198 506.286 279.842C506.422 279.664 509.663 275.471 514.619 276.294C515.059 276.368 515.357 276.782 515.283 277.226C515.208 277.666 514.794 277.964 514.35 277.89C510.372 277.226 507.6 280.784 507.575 280.819C507.416 281.03 507.176 281.14 506.93 281.14Z" fill="#1A1B22"/>
<path d="M144.189 530.982C143.885 530.982 143.607 530.814 143.467 530.538C143.033 529.684 132.888 509.486 137.064 501.671C138.016 499.89 139.605 498.851 141.787 498.589C143.933 498.33 145.64 498.942 146.857 500.412C152.299 506.98 145.261 529.464 144.96 530.419C144.859 530.733 144.581 530.953 144.254 530.982C144.231 530.979 144.212 530.982 144.189 530.982ZM142.71 500.149C142.477 500.149 142.234 500.166 141.981 500.195C140.33 500.392 139.191 501.124 138.491 502.432C136.954 505.307 137.556 510.917 140.233 518.654C141.544 522.452 143.072 525.909 144.014 527.936C146.115 520.58 149.291 505.88 145.614 501.438C144.892 500.574 143.94 500.149 142.71 500.149Z" fill="#1A1B22"/>
<path d="M143.043 529.775C142.965 529.775 142.887 529.765 142.813 529.742C142.771 529.729 138.413 528.425 133.861 526.362C127.604 523.526 123.952 520.652 123.007 517.822C122.492 516.275 122.764 514.769 123.819 513.351C124.858 511.95 126.17 511.292 127.71 511.396C130.588 511.587 134.179 514.572 138.378 520.266C141.427 524.401 143.729 528.538 143.752 528.58C143.91 528.868 143.881 529.224 143.674 529.48C143.518 529.668 143.285 529.775 143.043 529.775ZM127.413 512.999C126.526 512.999 125.771 513.429 125.117 514.313C124.386 515.297 124.198 516.278 124.541 517.307C125.959 521.561 135.775 525.679 141.291 527.554C138.187 522.384 131.877 513.29 127.6 513.005C127.539 513.002 127.477 512.999 127.413 512.999Z" fill="#1A1B22"/>
<path d="M226.845 618.471C226.544 618.471 226.263 618.303 226.123 618.031C225.686 617.176 215.476 597.014 219.626 589.183C220.571 587.399 222.158 586.357 224.34 586.085C226.486 585.819 228.195 586.425 229.416 587.891C234.88 594.441 227.914 616.95 227.616 617.905C227.519 618.219 227.24 618.442 226.913 618.468C226.891 618.468 226.868 618.471 226.845 618.471ZM225.285 587.642C225.045 587.642 224.799 587.658 224.54 587.691C222.892 587.895 221.753 588.629 221.057 589.937C219.529 592.815 220.15 598.426 222.85 606.156C224.174 609.951 225.712 613.402 226.661 615.428C228.739 608.066 231.866 593.356 228.173 588.927C227.457 588.066 226.509 587.642 225.285 587.642Z" fill="#1A1B22"/>
<path d="M225.696 617.27C225.622 617.27 225.544 617.26 225.466 617.238C225.424 617.225 221.063 615.936 216.505 613.887C210.238 611.071 206.576 608.209 205.624 605.383C205.103 603.838 205.372 602.333 206.421 600.909C207.457 599.504 208.765 598.84 210.306 598.94C213.184 599.122 216.784 602.093 221.002 607.775C224.064 611.899 226.379 616.03 226.402 616.072C226.56 616.36 226.531 616.713 226.327 616.972C226.172 617.16 225.939 617.27 225.696 617.27ZM210.024 600.543C209.134 600.543 208.379 600.977 207.726 601.864C206.997 602.851 206.813 603.832 207.159 604.861C208.59 609.109 218.422 613.198 223.941 615.053C220.821 609.892 214.482 600.818 210.205 600.549C210.144 600.546 210.082 600.543 210.024 600.543Z" fill="#1A1B22"/>
<path d="M232.226 629.961C231.937 629.961 231.659 629.805 231.513 629.537L225.469 618.313C225.259 617.918 225.405 617.429 225.799 617.215C226.191 617.002 226.683 617.151 226.897 617.546L232.941 628.769C233.151 629.164 233.006 629.653 232.611 629.867C232.488 629.928 232.355 629.961 232.226 629.961Z" fill="white"/>
<path d="M221.177 529.046C221.067 529.046 220.956 529.023 220.853 528.978L166.21 505.151C165.996 505.057 165.834 504.879 165.763 504.656C165.692 504.436 165.721 504.193 165.841 503.992L251.922 360.07C251.928 360.057 251.938 360.044 251.948 360.031C252.038 359.898 261.083 346.79 278.067 338.14C288.047 333.057 298.782 330.474 309.971 330.464C309.993 330.464 310.013 330.464 310.035 330.464C323.975 330.464 338.65 334.478 353.652 342.4L467.429 398.4L473.075 391.66C473.363 391.316 473.871 391.271 474.214 391.559C474.557 391.847 474.603 392.356 474.314 392.699L468.261 399.928C468.021 400.213 467.616 400.297 467.283 400.135L352.914 343.844C338.126 336.039 323.703 332.086 310.032 332.086C310.026 332.086 310.022 332.086 310.016 332.086C299.093 332.089 288.611 334.601 278.863 339.555C262.508 347.865 253.673 360.387 253.294 360.928L167.699 504.038L220.937 527.253L314.066 414.412C314.296 414.133 314.678 414.039 315.008 414.182L385.854 444.548C386.265 444.723 386.456 445.199 386.278 445.61C386.103 446.021 385.624 446.212 385.216 446.034L314.927 415.907L221.795 528.752C221.643 528.943 221.413 529.046 221.177 529.046Z" fill="#1A1B22"/>
<path d="M477.101 84.6394C480.222 91.6677 483.223 98.4175 486.327 105.404C480.244 101.979 474.404 98.6927 468.37 95.2935C468.218 101.836 468.069 108.175 467.91 114.86C462.222 108.016 456.728 101.409 451.121 94.6622C447.408 99.5377 443.763 104.322 439.995 109.269C437.346 101.752 434.753 94.3968 432.121 86.9347C425.417 90.0296 418.78 93.0921 411.92 96.2615C412.733 89.1199 413.529 82.1531 414.339 75.0309C405.879 75.7076 397.537 76.3712 388.929 77.0608C392.758 72.4378 396.407 68.035 400.211 63.4412C392.924 60.4985 385.756 57.6043 378.589 54.7134C378.595 54.6357 378.602 54.558 378.608 54.4803C384.494 53.2339 390.376 51.9907 396.556 50.6829C385.746 43.8715 375.183 37.2123 364.616 30.5563C364.639 30.4786 364.658 30.4009 364.681 30.3232C375.766 31.7282 386.85 33.1364 398.233 34.5803C391.661 27.2412 385.277 20.1126 378.893 12.984C378.938 12.916 378.98 12.848 379.026 12.78C387.446 15.9299 395.866 19.0799 404.517 22.314C403.047 15.1109 401.626 8.13765 400.14 0.850388C408.382 6.73912 416.404 12.466 424.539 18.277C426.832 12.4368 429.088 6.68732 431.432 0.711182C436.084 7.85924 440.603 14.8033 445.22 21.8996C450.956 17.6425 456.641 13.4242 462.514 9.06677C462.734 18.0795 462.951 26.8948 463.171 35.8979C471.322 35.1695 479.39 34.4476 487.745 33.6997C482.857 39.7827 478.147 45.6423 473.274 51.7026C482.384 53.0591 491.31 54.3896 500.484 55.759C495.408 59.0546 490.543 62.2143 485.538 65.4646C493.22 69.657 500.734 73.7554 508.248 77.8571C508.222 77.9219 508.196 77.9834 508.173 78.0481C500.193 77.4719 492.213 76.8957 483.896 76.2935C492.922 84.4387 501.708 92.3702 510.497 100.302C510.452 100.373 510.404 100.441 510.358 100.512C499.358 95.2611 488.357 90.0101 477.101 84.6394Z" fill="#F68636"/>
<path d="M712.689 651.716H23.782C23.3352 651.716 22.9727 651.353 22.9727 650.906C22.9727 650.46 23.3352 650.097 23.782 650.097H712.689C713.136 650.097 713.499 650.46 713.499 650.906C713.499 651.353 713.136 651.716 712.689 651.716Z" fill="#1A1B22"/>
<path d="M716.296 225.451C716.137 225.451 715.979 225.405 715.839 225.308C715.48 225.062 715.38 224.573 715.613 224.208C715.629 224.182 715.694 224.078 715.82 223.91C717.542 221.307 717.96 216.781 717.966 216.733C718.005 216.286 718.4 215.959 718.844 215.998C719.291 216.037 719.617 216.428 719.579 216.875C719.569 217.001 719.404 218.769 718.853 220.802C720.346 219.569 722.411 218.17 725.17 216.907C725.577 216.72 726.057 216.901 726.241 217.306C726.429 217.714 726.248 218.193 725.843 218.377C720.32 220.909 717.762 224.007 717.138 224.852C717.076 224.943 717.015 225.033 716.95 225.117C716.791 225.337 716.545 225.451 716.296 225.451Z" fill="#1A1B22"/>
<path d="M656.69 230.916C656.434 230.916 656.185 230.796 656.029 230.572C654.129 227.889 650.124 226.72 650.082 226.707C649.652 226.584 649.403 226.137 649.526 225.707C649.649 225.276 650.095 225.027 650.526 225.15C650.646 225.185 652.514 225.729 654.42 226.95C653.488 224.655 652.416 221.657 652.08 219.29C652.015 218.847 652.323 218.439 652.766 218.374C653.213 218.309 653.618 218.617 653.682 219.06C654.271 223.185 657.386 229.685 657.418 229.75C657.599 230.129 657.463 230.585 657.101 230.799C656.971 230.88 656.832 230.916 656.69 230.916Z" fill="#1A1B22"/>
<path d="M691.796 338.039C691.366 338.039 691.006 337.7 690.987 337.263C690.98 337.094 690.326 320.218 691.537 300.409C693.166 273.743 697.212 254.743 703.564 243.94C703.79 243.554 704.286 243.425 704.671 243.651C705.056 243.878 705.186 244.373 704.959 244.759C690.093 270.042 692.576 336.528 692.602 337.198C692.622 337.645 692.272 338.02 691.825 338.039C691.819 338.039 691.806 338.039 691.796 338.039Z" fill="#1A1B22"/>
<path d="M699.021 354.11C701.255 340.114 711.861 337.23 711.861 337.23H691.524H671.187C671.187 337.23 681.792 340.111 684.026 354.11C686.26 368.108 661.685 411.012 678.429 452.188H691.524H704.619C721.365 411.009 696.787 368.105 699.021 354.11Z" fill="white"/>
<path d="M704.619 452.994H678.426C678.096 452.994 677.801 452.794 677.675 452.489C672.57 439.938 670.783 426.221 672.207 410.556C673.418 397.244 676.762 384.894 679.449 374.968C681.939 365.771 683.907 358.503 683.224 354.236C682.334 348.661 680.006 344.239 676.306 341.092C673.541 338.739 670.996 338.017 670.971 338.01C670.579 337.903 670.33 337.521 670.385 337.12C670.44 336.719 670.779 336.417 671.184 336.417H711.858C712.263 336.417 712.606 336.719 712.661 337.12C712.716 337.521 712.464 337.903 712.072 338.007C712.049 338.014 709.505 338.735 706.737 341.089C703.036 344.236 700.709 348.658 699.818 354.233C699.139 358.503 701.104 365.767 703.593 374.965C706.28 384.89 709.624 397.244 710.835 410.553C712.26 426.218 710.469 439.932 705.367 452.486C705.248 452.797 704.95 452.994 704.619 452.994ZM678.973 451.376H704.072C708.922 439.206 710.609 425.894 709.226 410.705C708.028 397.535 704.704 385.256 702.033 375.392C699.492 366.007 697.484 358.593 698.219 353.983L699.019 354.11L698.219 353.983C699.702 344.692 704.704 340.134 708.168 338.043H674.872C678.335 340.134 683.337 344.692 684.82 353.983C685.555 358.597 683.548 366.007 681.01 375.395C678.339 385.259 675.014 397.539 673.816 410.708C672.44 425.894 674.127 439.206 678.973 451.376Z" fill="#1A1B22"/>
<path d="M684.56 337.23C684.56 337.23 678.176 295.527 658.286 287.187C658.286 287.187 683.699 291.493 691.524 337.23H684.56Z" fill="white"/>
<path d="M691.524 338.04H684.561C684.162 338.04 683.822 337.748 683.761 337.353C683.699 336.942 677.215 296.003 657.975 287.935C657.597 287.776 657.396 287.359 657.513 286.964C657.626 286.569 658.021 286.323 658.425 286.391C658.694 286.436 665.101 287.585 672.524 294.465C684.81 305.851 690.074 323.931 692.324 337.094C692.363 337.331 692.298 337.57 692.146 337.751C691.99 337.933 691.764 338.04 691.524 338.04ZM685.247 336.421H690.563C688.267 323.594 683.088 306.459 671.423 295.65C669.549 293.911 667.736 292.558 666.088 291.503C671.317 296.537 675.855 304.42 679.646 315.061C683.11 324.802 684.813 333.899 685.247 336.421Z" fill="#1A1B22"/>
<path d="M691.525 337.23C691.525 337.23 691.279 284.74 711.862 276.883C711.862 276.883 699.54 289.288 698.067 337.23H691.525Z" fill="white"/>
<path d="M698.067 338.039H691.524C691.077 338.039 690.718 337.68 690.715 337.233C690.715 337.1 690.682 323.876 693.178 309.861C696.565 290.845 702.755 279.495 711.573 276.128C711.929 275.992 712.331 276.122 712.541 276.442C712.748 276.763 712.706 277.184 712.437 277.452C712.408 277.481 709.381 280.638 706.209 289.547C700.903 304.462 699.291 323.721 698.876 337.253C698.86 337.693 698.504 338.039 698.067 338.039ZM692.34 336.421H697.283C698.472 300.897 705.552 285.05 709.174 279.191C693.554 289.677 692.421 330.179 692.34 336.421Z" fill="#1A1B22"/>
<path d="M698.067 337.23C698.067 337.23 702.978 299.227 720.657 296.035C720.657 296.035 696.28 294.445 691.524 337.23H698.067Z" fill="white"/>
<path d="M698.066 338.039H691.524C691.294 338.039 691.074 337.942 690.922 337.771C690.769 337.599 690.695 337.369 690.721 337.143C692.094 324.782 696.101 308.298 707.393 299.942C714.24 294.873 720.446 295.216 720.712 295.232C721.12 295.258 721.443 295.585 721.466 295.993C721.489 296.401 721.204 296.763 720.802 296.834C703.91 299.884 698.918 336.961 698.869 337.337C698.814 337.738 698.471 338.039 698.066 338.039ZM692.433 336.421H697.364C697.723 334.025 699.076 325.89 701.967 317.563C705.234 308.155 709.271 301.655 714.023 298.126C712.265 298.79 710.287 299.793 708.261 301.308C697.772 309.146 693.855 324.54 692.433 336.421Z" fill="#1A1B22"/>
<path d="M691.524 338.039C691.078 338.039 690.715 337.677 690.715 337.23C690.715 337.078 690.679 321.717 687.759 302.901C685.076 285.585 679.333 261.712 667.225 246.322C666.95 245.969 667.008 245.461 667.361 245.186C667.71 244.911 668.222 244.969 668.497 245.322C680.825 260.991 686.649 285.161 689.362 302.678C692.295 321.613 692.331 337.078 692.331 337.23C692.334 337.677 691.971 338.039 691.524 338.039Z" fill="#1A1B22"/>
<path d="M672.743 253.45C674.935 251.97 672.745 244.894 667.853 237.644C662.96 230.394 657.216 225.716 655.024 227.195C652.833 228.674 655.022 235.751 659.915 243.001C664.808 250.251 670.551 254.929 672.743 253.45Z" fill="#E31970"/>
<path d="M713.814 238.397C718.187 230.823 719.876 223.611 717.586 222.288C715.296 220.966 709.894 226.035 705.521 233.609C701.148 241.184 699.459 248.396 701.749 249.718C704.039 251.04 709.441 245.972 713.814 238.397Z" fill="#E31970"/>
<path d="M699.054 359.675H683.991C683.544 359.675 683.182 359.312 683.182 358.865C683.182 358.418 683.544 358.056 683.991 358.056H699.054C699.501 358.056 699.864 358.418 699.864 358.865C699.864 359.312 699.501 359.675 699.054 359.675Z" fill="#1A1B22"/>
<path d="M704.263 380.62H678.986C678.539 380.62 678.177 380.258 678.177 379.811C678.177 379.364 678.539 379.001 678.986 379.001H704.263C704.71 379.001 705.073 379.364 705.073 379.811C705.073 380.258 704.71 380.62 704.263 380.62Z" fill="#1A1B22"/>
<path d="M744.419 461.408H638.83C636.078 461.408 633.838 459.168 633.838 456.416C633.838 453.665 636.078 451.424 638.83 451.424H744.419C747.171 451.424 749.411 453.665 749.411 456.416C749.411 459.168 747.171 461.408 744.419 461.408ZM638.83 453.043C636.968 453.043 635.457 454.555 635.457 456.416C635.457 458.278 636.968 459.79 638.83 459.79H744.419C746.281 459.79 747.793 458.278 747.793 456.416C747.793 454.555 746.281 453.043 744.419 453.043H638.83Z" fill="#1A1B22"/>
<path d="M634.339 651.716H626.514C626.068 651.716 625.705 651.353 625.705 650.906C625.705 650.459 626.068 650.097 626.514 650.097H633.604L651.607 460.521C651.649 460.078 652.047 459.754 652.488 459.793C652.934 459.835 653.258 460.23 653.216 460.677L635.142 650.984C635.103 651.398 634.753 651.716 634.339 651.716Z" fill="#1A1B22"/>
<path d="M756.737 651.716H748.912C748.495 651.716 748.145 651.398 748.106 650.984L730.032 460.677C729.99 460.233 730.317 459.838 730.76 459.793C731.204 459.754 731.599 460.078 731.641 460.521L749.644 650.097H756.734C757.18 650.097 757.543 650.459 757.543 650.906C757.543 651.353 757.184 651.716 756.737 651.716Z" fill="#1A1B22"/>
<path d="M691.624 652.842C691.177 652.842 690.814 652.48 690.814 652.033V460.599C690.814 460.152 691.177 459.79 691.624 459.79C692.071 459.79 692.433 460.152 692.433 460.599V652.033C692.433 652.48 692.071 652.842 691.624 652.842Z" fill="#1A1B22"/>
<path d="M692.499 563.297C679.624 563.297 667.513 562.336 658.393 560.591C648.626 558.72 643.673 556.266 643.673 553.297C643.673 550.328 648.626 547.871 658.393 546.003C667.509 544.258 679.624 543.297 692.499 543.297C705.373 543.297 717.484 544.258 726.604 546.003C736.371 547.874 741.324 550.328 741.324 553.297C741.324 556.266 736.371 558.723 726.604 560.591C717.484 562.336 705.373 563.297 692.499 563.297ZM692.499 544.912C679.724 544.912 667.72 545.864 658.697 547.59C645.936 550.031 645.292 552.769 645.292 553.294C645.292 553.818 645.939 556.557 658.697 558.998C667.717 560.724 679.721 561.675 692.499 561.675C705.276 561.675 717.277 560.724 726.3 558.998C739.061 556.557 739.706 553.818 739.706 553.294C739.706 552.769 739.058 550.031 726.3 547.59C717.277 545.864 705.273 544.912 692.499 544.912Z" fill="#1A1B22"/>
</g>
<defs>
<linearGradient id="paint0_linear_834_37028" x1="58.4191" y1="75.7425" x2="29.9705" y2="76.1415" gradientUnits="userSpaceOnUse">
<stop stop-color="#EE2963"/>
<stop offset="1" stop-color="#F68636"/>
</linearGradient>
<linearGradient id="paint1_linear_834_37028" x1="81.0405" y1="75.9394" x2="109.492" y2="75.9394" gradientUnits="userSpaceOnUse">
<stop stop-color="#EE2963"/>
<stop offset="1" stop-color="#F68636"/>
</linearGradient>
<linearGradient id="paint2_linear_834_37028" x1="146.056" y1="87.4569" x2="146.296" y2="59.0065" gradientUnits="userSpaceOnUse">
<stop stop-color="#EE2963"/>
<stop offset="1" stop-color="#F68636"/>
</linearGradient>
<linearGradient id="paint3_linear_834_37028" x1="250.231" y1="159.136" x2="264.929" y2="159.136" gradientUnits="userSpaceOnUse">
<stop stop-color="#EE2963"/>
<stop offset="1" stop-color="#F68636"/>
</linearGradient>
<linearGradient id="paint4_linear_834_37028" x1="276.518" y1="159.136" x2="291.216" y2="159.136" gradientUnits="userSpaceOnUse">
<stop stop-color="#EE2963"/>
<stop offset="1" stop-color="#F68636"/>
</linearGradient>
<linearGradient id="paint5_linear_834_37028" x1="302.806" y1="159.136" x2="317.503" y2="159.136" gradientUnits="userSpaceOnUse">
<stop stop-color="#EE2963"/>
<stop offset="1" stop-color="#F68636"/>
</linearGradient>
<linearGradient id="paint6_linear_834_37028" x1="348.727" y1="601.912" x2="743.607" y2="345.274" gradientUnits="userSpaceOnUse">
<stop stop-color="#EE2963"/>
<stop offset="1" stop-color="#F68636"/>
</linearGradient>
<clipPath id="clip0_834_37028">
<rect width="882.258" height="715.418" fill="white" transform="translate(0.742188 0.711182)"/>
</clipPath>
</defs>
</svg>
