<svg width="20" height="20" viewBox="0 0 20 20" fill="none" xmlns="http://www.w3.org/2000/svg">
<path d="M19.5328 10.2215C19.5328 9.40207 19.4664 8.80413 19.3225 8.18405H9.96582V11.8824H15.458C15.3473 12.8015 14.7493 14.1856 13.4206 15.1157L13.4019 15.2395L16.3603 17.5313L16.5653 17.5518C18.4477 15.8133 19.5328 13.2554 19.5328 10.2215Z" fill="#4285F4"/>
<path d="M9.96566 19.9657C12.6563 19.9657 14.9152 19.0798 16.5651 17.5518L13.4204 15.1157C12.5789 15.7025 11.4494 16.1122 9.96566 16.1122C7.33032 16.1122 5.0936 14.3738 4.29627 11.971L4.1794 11.9809L1.10322 14.3616L1.06299 14.4735C2.70177 17.7289 6.06795 19.9657 9.96566 19.9657Z" fill="#34A853"/>
<path d="M4.29626 11.971C4.08588 11.3509 3.96412 10.6865 3.96412 10C3.96412 9.31345 4.08588 8.6491 4.28519 8.02902L4.27962 7.89696L1.16489 5.47803L1.06298 5.5265C0.387557 6.87742 0 8.39444 0 10C0 11.6056 0.387557 13.1225 1.06298 14.4734L4.29626 11.971Z" fill="#FBBC05"/>
<path d="M9.96566 3.88772C11.837 3.88772 13.0992 4.69604 13.819 5.37154L16.6315 2.62543C14.9042 1.01986 12.6563 0.0343628 9.96566 0.0343628C6.06795 0.0343628 2.70177 2.27108 1.06299 5.5265L4.2852 8.02902C5.0936 5.62619 7.33032 3.88772 9.96566 3.88772Z" fill="#EB4335"/>
</svg>
