<svg width="449" height="428" fill="none" xmlns="http://www.w3.org/2000/svg">
  <g opacity=".5">
    <g opacity=".45">
      <path d="M52.93 256.08a3.56 3.56 0 0 0 3.12-2.62.79.79 0 0 0-.2-.74 10.5 10.5 0 0 0-1.17-1.07l-.14-.1c-1.53-1.15-4-2.32-6.76-.97-4.68 2.16-4.68 8.03-11.44 8.64-4 .39-6.2.2-7.35 0a.2.2 0 0 0-.08 0 .2.2 0 0 0-.15.18l.01.1.06.09c2.72 1.93 10.81 7.12 15.53 3.93 5.19-3.59 5.5-6.91 8.57-7.44Z" fill="url(#a)" style="mix-blend-mode:multiply" opacity=".34"/>
      <path d="M55.5 255a.23.23 0 0 0 .13.34l1.46.41c.05.02.1.01.14 0a.22.22 0 0 0 .11-.1c.43-.65.67-1.41.7-2.2a.22.22 0 0 0-.16-.2c-.43-.14-1.69-.55-1.68-.53.25.64-.38 1.78-.7 2.28Z" fill="url(#b)"/>
      <path d="M127.8 286.06a6.19 6.19 0 0 0-4.73.66l-.15-.44c-11.73 3.85-24.1 7.81-27.97 10.2a.5.5 0 0 1-.47-.07c-6.25-4.92-11.4-9.16-15.94-12.61a14 14 0 0 0-6.55-8.7l-.06-.1V273.89c.1-4.59 2.31-3.97 2.31-3.97l1 .18c.39.05.75.09 1.07.1.33.03.66.04.97 0a1.97 1.97 0 0 0 1.55-.78c.16-.23.3-.47.4-.73.35-1.01.6-2.05.77-3.11v-.06c0-.25.2-1.3.22-1.52.85-.13 2.38-.47 1.53-1.18-.84-.72-1.2-2.56-1.2-2.56.1-1.85.1-3.52.06-4.62.59-1.38.61-3.5-.6-4.72a13.26 13.26 0 0 0-11.33-3.8c-5.66.64-9.24 3.08-10.62 7.32-.3.92-.5 1.88-.58 2.85-.41 4.32 1.4 8.87 3.88 11.12.12.1.24.22.36.31a2.88 2.88 0 0 0 2.52.53c-.36.58-1.2 2.96-2.03 4.26-3.09 1.31-7.2 4.25-7.33 10.77-.11 4.65-1 19.42-1.22 20.82-1.76 11.21-4.64 22.67-8.28 32.15a1.83 1.83 0 0 0 .26 1.78c.24.32.5.62.79.91-.65 1.88-1.84 7.39 2.31 14.2 2.55 4.2 6.75 14.58 9.34 21.05-2.54 9.93-4.46 22.78-6.83 36.35l-.11-.05s-4.33 8.24-3.3 9.24c1.03 1 13.67 6.19 13.67 6.19h5.9v-.33c3.1.11 9.52-.1 12.17-.19a6.02 6.02 0 0 0 2.26-.53l2.22-1.03a1.82 1.82 0 0 0 .5-3 4.75 4.75 0 0 0-4.14-1.4c-3.61.57-9.76-4.47-10.14-4.8.12-13.97-.47-27.2.8-37.87l2.77-6.33c.17-.4.29-.81.34-1.24 2.03-10.57 2.38-20.78 3.18-30.6 0-2.17-.28-4.34-.81-6.45-.97-3.96-.8-11.16-.56-16.54.29-6.5 1.83-13.27 2.68-19.56 3.42 2.62 6.96 5.32 9.71 7.47a7.33 7.33 0 0 0 8.27.87c6.81-3.22 16.97-8.97 27.6-15.06l-.18-.55c.53-.42 1.86-1.07 5.05-1.03 2.69.04 3.93-1.25 4.59-2.29.17-.3.32-.6.44-.91-.76.51-3.71 1.17-6.36.51ZM65.24 416.11s-.26 3.1-.26 5.9c-.4-.27-.84-.48-1.3-.6-3.65-1-7.56-9.17-7.56-9.17h-.13l6.68-15.28c.99 5.96 2.18 12.33 3.63 19.19-.34 0-.7-.01-1.06-.04Z" fill="url(#c)" style="mix-blend-mode:multiply" opacity=".3"/>
    </g>
    <path d="m377.94 269.17.04 87.68-288.5.13-.05-87.68 288.51-.13Z" fill="url(#d)" style="mix-blend-mode:multiply" opacity=".16"/>
    <g opacity=".13">
      <path d="m447.73 412.67-4.68-6.55c-.11-.15-.25-.28-.4-.38l.34-.25c-5.56-15.55-11.2-31.52-14.99-38.09-.9-13.46-1.78-27.04-3.52-34.59.18-1.25.13-2.53-.13-3.77-2.46-10.8-4.38-25.78-3.53-31.83.12-.82.2-1.66.3-2.52.14-1.05.22-2.11.22-3.18v-.1c0-.23 0-.47.03-.7.17-4.03.07-8.08-.1-11.3-.2-4.16-3.44-7.42-7.25-7.2-2.03.14-4.04.47-6 .98-1.79-3.11-1.65-7.41-1.65-7.41l.93-.39c1.96-.9 3.44-3.2 4.13-6.16.88-4.11.4-8.4-1.39-12.2-2.49-5.34-12.87-6-17.85-4.38-3.57 1.16-5.48 3.45-6.5 6.94l-.14.47c-.45 1.65-.06 3.48.72 5.24l-.25.08c.1 2.33.55 9.22 2.18 11.5.4.52.92.94 1.52 1.2.77.3 1.59.46 2.41.47h.33c.9.14 3.32 1.25 3.1 9.24l-.22.1-7.08 1.63c-2.27-1.31-13.92-4.04-22.95-6.36a1.03 1.03 0 0 0-1.17.46 4.35 4.35 0 0 1-1.57-2.82c-.21-2.03-1.46-2.46-1.5-2.47l.04 4.37V276.22a2.03 2.03 0 0 0 2.03 2c.34.01.66-.09.94-.28.22-.16.47-.3.73-.4.18.42.4.81.65 1.18.18.22.4.4.66.51 3.45 1.74 6.83 3.43 10 4.95-2.72.73-5.47 1.49-8.27 2.28-.3.08-.62.06-.92-.04-3.68-1.55-14.15-4.38-23.5-7l-.16.42c-.2-.13-2.5-1.62-2.76-1.72-.66-.15-1.3-.4-1.9-.74a1.97 1.97 0 0 0-1.3-.28c-.3.04-.54.19-.58.48v.1c.05.94 2.16 1.44 2.16 1.44s-4.46-.76-5.27-1.09c-.29-.12-.58.25-.83.82a7.17 7.17 0 0 0-.5 3.71c.38 1.36 5.84 1.27 5.84 1.27s3.09.25 3.73 0l-.15.4 22.1 11.74a10.1 10.1 0 0 0 7.2.88c5.68-.93 11.23-1.88 16.67-2.85.27 1.93.52 3.86.75 5.8.6 5.75 1.4 13.48 1.52 14.44.98 10.9 1.48 20.86 1.56 27.68.23.22.49.4.78.53.83.47 1.7.84 2.62 1.1-1.17 6.56-.93 20.8-.92 33.81-.04 1.45.13 2.89.5 4.28 2.11 8.31 3.93 20.6 5.63 33.62a3.4 3.4 0 0 0 1.35 2.2.94.94 0 0 0-.34.15l-4.58 5.14-1.23-.12c-.34-.03-.68.05-.97.22l-2.89 1.68a1.64 1.64 0 0 0-.66 2.1 1.62 1.62 0 0 0 1.55.96l16.31-.56a1.66 1.66 0 0 0 1.48-1.06c.08-.2.11-.42.1-.64v-.86c0-.11-.01-.22-.04-.33l-1.66-6.97a1.16 1.16 0 0 0-1.17-.85c.34-.54.53-1.16.54-1.8.75-15.6 1.67-32 .6-38.72 0-.29.05-.57.12-.85.95-3.07 1.9-6.32 2.83-9.7l1.81 4.7c1.03 2.7 1.84 4.8 2.3 5.96.25.67.6 1.3 1.03 1.88 6.22 8.51 12.98 19.43 19.95 31.43l-.96.73a1.43 1.43 0 0 0-.55 1.4c.16.88.32 2.19.04 2.8-.38.8-2.1 6.03-2.62 7.67-.1.31-.31.59-.6.76l-1.66 1.06a1.46 1.46 0 0 0-.65 1.08c-.02.25.02.5.13.72l.39.88a1.44 1.44 0 0 0 1.11.83c1.5.22 4.71.66 5.39.45.86-.23 10.4-12.21 10.96-12.91l.05-.07.18-.27a1.43 1.43 0 0 0-.03-1.7Z" fill="url(#e)" style="mix-blend-mode:multiply" opacity=".3"/>
      <path d="M359.44 274.32c.37.05 1.68 1.54 1.68 1.54v-2.01c-.4-.21-.78-.46-1.14-.74-.43-.38-1.31-.66-1.55-.1-.28.54.63 1.27 1 1.31Z" fill="url(#f)"/>
    </g>
    <path d="m88.82 138.27-.04-87.69 288.5-.13.05 87.68-288.51.14Z" fill="url(#g)" style="mix-blend-mode:multiply" opacity=".16"/>
    <path d="M355.72 110.55H110.38a21.58 21.58 0 0 0-21.58 21.58v147.5a21.58 21.58 0 0 0 21.58 21.58h245.34a21.58 21.58 0 0 0 21.59-21.58v-147.5a21.58 21.58 0 0 0-21.59-21.58Z" fill="#fff"/>
    <path opacity=".12" d="M150.98 206.24h-77.3v56.91h77.3v-56.91Z" fill="url(#h)"/>
    <path opacity=".12" d="M153.58 142.54h-77.3v33.95h77.3v-33.95Z" fill="url(#i)"/>
    <g opacity=".31" fill="#4791FC">
      <path d="M154.95 208.86a28.45 28.45 0 0 0-16.5 51.63l32.94-46.4a28.34 28.34 0 0 0-16.44-5.23Z"/>
      <path d="M154.95 237.31h28.46a28.4 28.4 0 0 0-12.02-23.22l-17.29 24.36-15.64 22.04c.35.25.7.5 1.07.73a28.44 28.44 0 0 0 43.86-22.77c0-.38.04-.76.04-1.14h-28.48Z"/>
    </g>
    <path d="M179.51 234.7a28.4 28.4 0 0 0-12.02-23.22l-16.43 23.22h28.45Z" fill="#3585F9"/>
    <path opacity=".31" d="m162.94 145.98-.34-.18-.27-.13c-.31-.15-.66-.29-.95-.41l-.53-.21-.29-.1c-.4-.14-.81-.27-1.23-.37l-.17-.05c-.44-.1-.89-.2-1.36-.28l-.24-.04-.42-.07h-.3c-.3 0-.6-.05-.9-.06h-1.45a17.57 17.57 0 0 0-14.73 9.53 16.97 16.97 0 1 0 32.26 7.57 17.53 17.53 0 0 0-9.08-15.2Z" fill="#4791FC"/>
    <path d="M151.06 206.24a28.45 28.45 0 0 0-16.5 51.63l32.93-46.4a28.31 28.31 0 0 0-16.43-5.23Z" fill="#fff"/>
    <path d="m151.06 234.7 16.43-23.22-17.25 24.35-15.65 22.04a28.45 28.45 0 0 0 44.94-22.04l.03-1.14h-28.5Z" fill="#5B95FC"/>
    <path d="M154.4 163.68a4.08 4.08 0 0 0 1.65-3.27 4.3 4.3 0 0 0-8.6 0 4.1 4.1 0 0 0 2.02 3.51l-.6.03a5.68 5.68 0 0 0-5.33 5.7v4.57a16.98 16.98 0 0 0 16.41.26v-5.12a5.66 5.66 0 0 0-5.55-5.68Z" fill="#fff"/>
    <path d="M154.07 142.66c-.4-.05-.8-.07-1.2-.1a16.82 16.82 0 0 1 1.2.1Z" fill="#3384E5"/>
    <path d="M168.94 159.72a17.57 17.57 0 0 0-9.07-15.2l-.34-.17-.27-.14c-2-.96-4.17-1.5-6.38-1.62h-1.46a17.58 17.58 0 0 0-14.73 9.57 16.98 16.98 0 0 0 6.85 22.12v-4.58a5.67 5.67 0 0 1 5.33-5.69l.6-.03a4.1 4.1 0 0 1-2.03-3.51 4.3 4.3 0 0 1 8.61 0 4.08 4.08 0 0 1-1.65 3.27 5.66 5.66 0 0 1 5.55 5.7v5.12a17.02 17.02 0 0 0 8.99-14.84Z" fill="#3384E5"/>
    <path opacity=".41" d="M132.96 128.2a3.34 3.34 0 1 0 0-6.69 3.34 3.34 0 0 0 0 6.68Z" fill="#B8DFFF"/>
    <path opacity=".6" d="M145.62 127.92a3.34 3.34 0 1 0 0-6.67 3.34 3.34 0 0 0 0 6.67Z" fill="#D6F1FC"/>
    <path d="M146.62 127.64a3.34 3.34 0 1 0 0-6.68 3.34 3.34 0 0 0 0 6.68Z" fill="#D6F1FC"/>
    <path d="M133.87 127.64a3.34 3.34 0 1 0 0-6.68 3.34 3.34 0 0 0 0 6.68Z" fill="#2B75F9"/>
    <path opacity=".41" d="M120.3 128.2a3.34 3.34 0 1 0 0-6.69 3.34 3.34 0 0 0 0 6.68Z" fill="#B8DFFF"/>
    <path d="M121.13 127.64a3.34 3.34 0 1 0 0-6.68 3.34 3.34 0 0 0 0 6.68Z" fill="#FC6B86"/>
    <path opacity=".12" d="M211.67 128.19v95.17a36.11 36.11 0 0 1 51.06 0 36.13 36.13 0 0 0 47.38 3.23 37.24 37.24 0 0 0 5.06-4.75l39.48-44.18v-49.47H211.67Z" fill="url(#j)"/>
    <path d="M288.32 234.24a36.46 36.46 0 0 1-25.81-10.65 35.79 35.79 0 0 0-50.6 0 .33.33 0 0 1-.47 0 .33.33 0 0 1 0-.46 36.44 36.44 0 0 1 51.53 0 35.9 35.9 0 0 0 46.94 3.2c1.82-1.4 3.5-2.98 5.01-4.71l39.49-44.18a.33.33 0 0 1 .46 0 .34.34 0 0 1 .1.23c0 .04 0 .09-.03.13a.33.33 0 0 1-.07.1l-39.48 44.18a35.6 35.6 0 0 1-27.1 12.18l.03-.02Z" fill="url(#k)" opacity=".58"/>
    <path d="M238.11 214.97a2.17 2.17 0 1 0 0-4.34 2.17 2.17 0 0 0 0 4.34Z" fill="#88B8FC"/>
    <path d="M342.5 193.97a2.17 2.17 0 1 0 0-4.33 2.17 2.17 0 0 0 0 4.33Z" fill="#88B8FC"/>
    <path d="M289.16 236.1a2.17 2.17 0 1 0 0-4.33 2.17 2.17 0 0 0 0 4.33Z" fill="#88B8FC"/>
    <path d="M238.11 196.58a.32.32 0 0 1-.23-.1.32.32 0 0 1-.1-.22v-23.7a.33.33 0 1 1 .66 0v23.7c0 .08-.03.17-.1.23a.32.32 0 0 1-.23.1Z" fill="url(#l)" opacity=".15"/>
    <path d="M342.5 179.64a.33.33 0 0 1-.32-.33v-23.7a.33.33 0 0 1 .65 0v23.7a.34.34 0 0 1-.32.33Z" fill="url(#m)" opacity=".15"/>
    <path d="M289.16 222.8a.33.33 0 0 1-.32-.32v-23.7c0-.09.03-.17.1-.23.05-.07.14-.1.22-.1a.33.33 0 0 1 .33.33v23.7c0 .09-.03.17-.1.23a.33.33 0 0 1-.23.1Z" fill="url(#n)" opacity=".15"/>
    <path opacity=".31" d="M348.6 250.24H221.94a4.44 4.44 0 0 0-4.44 4.43v.42a4.44 4.44 0 0 0 4.44 4.43H348.6a4.44 4.44 0 0 0 4.44-4.43v-.42a4.44 4.44 0 0 0-4.44-4.43Z" fill="#4791FC"/>
    <path opacity=".31" d="M349.1 272H222.42a4.44 4.44 0 0 0-4.44 4.45v.4a4.44 4.44 0 0 0 4.44 4.45h126.66a4.44 4.44 0 0 0 4.44-4.44v-.41a4.44 4.44 0 0 0-4.44-4.44Z" fill="#4791FC"/>
    <path d="M352.25 247.62H225.58a4.44 4.44 0 0 0-4.44 4.44v.4a4.44 4.44 0 0 0 4.44 4.45h126.67a4.44 4.44 0 0 0 4.44-4.44v-.41a4.44 4.44 0 0 0-4.44-4.44Z" fill="#5B95FC"/>
    <path d="M352.75 269.39H226.08a4.44 4.44 0 0 0-4.44 4.44v.41a4.44 4.44 0 0 0 4.44 4.44h126.67a4.44 4.44 0 0 0 4.43-4.44v-.41a4.44 4.44 0 0 0-4.43-4.44Z" fill="#5B95FC"/>
    <path d="M257.66 278.69a4.65 4.65 0 1 0 0-9.3 4.65 4.65 0 0 0 0 9.3Z" fill="#0D69D6"/>
    <path d="M341.45 256.91a4.65 4.65 0 1 0 0-9.3 4.65 4.65 0 0 0 0 9.3Z" fill="#0D69D6"/>
    <path d="M255.95 278.55a4.65 4.65 0 1 0 0-9.3 4.65 4.65 0 0 0 0 9.3Z" fill="#fff"/>
    <path d="m437.8 414.52-.05.07c-.57.71-10.16 12.75-11.02 12.98-.66.18-3.93-.24-5.42-.45a1.43 1.43 0 0 1-1.11-.84l-.4-.88a1.43 1.43 0 0 1 .08-1.34c.11-.19.27-.35.45-.47l1.68-1.06c.28-.18.49-.45.6-.77.53-1.65 2.25-6.9 2.61-7.7.3-.63.13-1.94-.04-2.82a1.44 1.44 0 0 1 .55-1.4l5.45-4.15a1.44 1.44 0 0 1 1.63-.09c.17.1.31.23.43.4l4.7 6.6a1.45 1.45 0 0 1 0 1.66l-.14.26Z" fill="#3585F9"/>
    <path d="M353.92 276.3c-.28.19-.6.3-.94.29a2.03 2.03 0 0 1-2.04-2.02l-.08-7.08.05 4.39v3.56a2.03 2.03 0 0 0 2.03 2c.34.01.67-.09.94-.28.35-.27.75-.43 1.18-.5l-.17-.82c-.35.08-.68.24-.97.46Z" fill="#FCB9C8"/>
    <path d="M352.98 276.59c.33 0 .66-.1.94-.3.3-.22.64-.37 1-.45l-.53-2.7a4.52 4.52 0 0 1-2.01-3.15c-.22-2.05-1.47-2.48-1.52-2.5l.08 7.08a2.03 2.03 0 0 0 2.04 2.02Z" fill="#FCF0F2"/>
    <path d="M349.24 273.1a1.67 1.67 0 0 1-1.04-.89c-.25.56.66 1.31 1.04 1.31s1.7 1.55 1.7 1.55v-.44s-1.34-1.48-1.7-1.52Z" fill="#FCB9C8"/>
    <path d="M350.92 273.9v.44-.44Z" fill="#FCF0F2"/>
    <path d="m350.92 273.9-.01-2.02h-.01l.02 1.63v.39Z" fill="#FCF0F2"/>
    <path d="M349.24 273.1c.37.05 1.67 1.53 1.7 1.55v-1.59c-.42-.2-.8-.46-1.16-.75-.43-.37-1.3-.65-1.56-.1a1.69 1.69 0 0 0 1.02.9Z" fill="#FCF0F2"/>
    <path d="M332 281.97c-.42.28-3.82 0-3.82 0s-5.5.1-5.9-1.27a6.25 6.25 0 0 1 .16-2.62 7.15 7.15 0 0 0-.5 3.73c.37 1.37 5.9 1.27 5.9 1.27s3.39.29 3.8 0l1.38-3.99-1.02 2.88Z" fill="#FCB9C8"/>
    <path d="M327.02 276.3c-.3.04-.54.19-.58.49l2.51.45a4.72 4.72 0 0 1-1.93-.94Z" fill="#FCF0F2"/>
    <path d="M322.3 280.7c.39 1.36 5.9 1.27 5.9 1.27s3.4.28 3.82 0l1-2.91a50.1 50.1 0 0 0-2.77-1.73c-.67-.16-1.3-.4-1.9-.74a1.96 1.96 0 0 0-1.32-.29c.57.46 1.23.78 1.93.94l-2.51-.45v.1c.05.94 2.18 1.44 2.18 1.44s-4.49-.76-5.3-1.1c-.3-.11-.6.26-.84.83a6.24 6.24 0 0 0-.18 2.64Z" fill="#FCF0F2"/>
    <path d="M414.04 346.71c-.5-6.76-8.5-5.54-8.5-5.54l8.7-10.47c-.23-.9-.55-1.78-.94-2.62l-20.95 11.06c3.88 12.1 11.49 31.81 13.31 36.5a8.1 8.1 0 0 0 1.04 1.89c6.36 8.69 13.3 19.96 20.44 32.25l5.46-4.01c-16.55-43.43-16.1-33.33-16.77-38.29-.66-4.95-1.3-14-1.79-20.77Z" fill="#5B95FC"/>
    <path d="m401.34 364.46 1.7-9.62 2.6 20.8-4.3-11.18Z" fill="#0D69D6"/>
    <path d="m404.16 336.96-15.59.82a3.4 3.4 0 0 0-3.17 3.27c-1.74 5.13-1.44 21.36-1.42 36.05-.04 1.45.12 2.9.5 4.3 2.12 8.35 3.92 20.7 5.65 33.8a3.32 3.32 0 0 0 3.93 2.76l1.2-.26a3.4 3.4 0 0 0 2.67-3.27c.76-15.71 1.67-32.17.6-38.92.01-.29.05-.57.12-.85a542.37 542.37 0 0 0 8.87-33.38 3.4 3.4 0 0 0-3.36-4.32Z" fill="#5B95FC"/>
    <path d="M418.15 367.08c-.98-14.56-1.93-29.25-3.93-36.38l-9.73 10.35s9.03-1.13 9.53 5.63c.5 6.77 1.16 15.79 1.84 20.8.67 5 .22-5.14 16.76 38.28l.59-.43c-5.58-15.6-11.25-31.66-15.06-38.25Z" fill="#0D69D6"/>
    <path d="m378.85 248.35-1.65 3.01s-1.06.77-1.04 1.26c.73-.28 1.31 1.43 2.14 1.43a6.69 6.69 0 0 1 1.36 13.21c2.8 1.31 10.27-.32 11.02-.53l2.38-8.86-14.21-9.52Z" fill="#FCB9C8"/>
    <path d="M384.87 260.73a6.64 6.64 0 0 0-6.54-6.68c-.8 0-1.6.16-2.36.45.1 2.34.56 9.27 2.2 11.56.4.53.92.94 1.52 1.2a6.66 6.66 0 0 0 5.18-6.53Z" fill="#FCF0F2"/>
    <path d="m393.9 265.44-11.78 2.3s3.75-.56 3.45 9.4a.17.17 0 0 0 .06.14 14.74 14.74 0 0 1 8.27-11.84Z" fill="#FCB9C8"/>
    <path d="M398.6 273.22c-2.38-3.12-2.2-8.3-2.2-8.3l-2.5.52a14.73 14.73 0 0 0-8.3 11.84c1 1.13 15.3-1.04 13-4.06Z" fill="#FCF0F2"/>
    <path d="M381.92 259.64c4.25 1.3 2.32-3.45 5.8-2.62 3.48.82 3.14 4.89 2.53 5.89-.6 1 7.32 2.94 11.24-4.58.89-4.13.4-8.44-1.4-12.26-2.5-5.36-12.94-6.03-17.94-4.4-3.6 1.16-5.5 3.47-6.55 6.97.8 2.5 2.98 9.93 6.32 11Z" fill="#FF5C74"/>
    <path d="M381.25 261.26c.8.38 1.64.64 2.51.8a.97.97 0 0 0 1.1-1 1.21 1.21 0 0 1 0-.33c.73-1.17 1.12-2.36 3.03-1.64 2.68 1.01-1.1 4.81-.5 6.03.6 1.2 5.3 1.5 9.93-.58 1.96-.9 3.45-3.22 4.15-6.2-3.93 7.5-11.82 5.52-11.24 4.59.6-.93.98-5.17-2.53-5.9-3.5-.71-2.29 3.09-5.8 1.03-3.01-1.78-5.52-6.92-6.3-9.4l-.15.47c-1.12 4.2 3.13 9.66 5.8 12.13Z" fill="#C43155"/>
    <path d="m404.73 272.8-26.53 5.94c-2.29-1.31-14-4.06-23.07-6.39a1.08 1.08 0 0 0-.97.24 1.06 1.06 0 0 0-.34.94c.13 1.58.66 3.1 1.55 4.42.17.22.4.4.65.5 8.23 4.16 16.08 8.01 21.67 10.1.84.39 1.8.49 2.7.29l26.67-5.97-2.33-10.07Z" fill="#fff"/>
    <path d="M414.47 328.52c-2.46-10.85-4.4-25.91-3.54-32 .12-.82.2-1.67.29-2.53.15-1.06.23-2.12.23-3.19v-.1l.04-.7c.16-4.06.07-8.14-.1-11.36 0 0-3.58 26.19-6.92 34.24a18.63 18.63 0 0 1-.12 28.3c3.15-1.6 6.1-3.57 8.79-5.85 1.7-1.3 1.8-4.68 1.33-6.81Z" fill="url(#o)" style="mix-blend-mode:multiply" opacity=".3"/>
    <path d="M404.46 312.9c3.35-8.08 6.93-34.23 6.93-34.23-.22-4.2-3.47-7.47-7.3-7.25-12.24.7-28.14 10.87-28.14 10.87 3.67 20.98 5.4 45.96 5.55 59.21.23.22.5.4.79.54.9.52 1.85.91 2.85 1.18 6.76 2.76 13.85.69 19.2-2.03a18.64 18.64 0 0 0 .12-28.29Z" fill="#fff"/>
    <path d="M377.76 292.8s1.97 19.5 2.19 20.89c.21 1.38 7.63-21.42 6.6-24.88-1.03-3.46-8.79 3.98-8.79 3.98Z" fill="url(#p)" style="mix-blend-mode:multiply" opacity=".3"/>
    <path d="M387.36 284.64a6.4 6.4 0 0 0-7.62-4.67c-7 1.64-14.4 3.6-22.01 5.75-.31.08-.63.07-.93-.04-3.7-1.56-14.23-4.4-23.62-7.04l-1.75 4.86 22.21 11.79a10.17 10.17 0 0 0 7.27.89c7.36-1.22 14.53-2.46 21.53-3.72a6.29 6.29 0 0 0 4.92-7.86v.04Z" fill="#fff"/>
    <path d="M391.13 417.6c.3-.32 5.85-1.29 5.85-1.29a1.2 1.2 0 0 1 .97.07 1.19 1.19 0 0 1 .6.77l1.68 7.03.05.33v.88a1.65 1.65 0 0 1-1.6 1.7l-16.4.56a1.67 1.67 0 0 1-1.7-1.6 1.66 1.66 0 0 1 .82-1.47l2.9-1.7c.29-.16.63-.24.97-.2l1.24.1 4.62-5.19Z" fill="#3585F9"/>
    <path d="m73.77 343.77-17.9-3.6s-3.09 6.44 2.06 14.9c3.84 6.31 11.42 26.64 11.6 26.58a399.33 399.33 0 0 0 6.6 38.47l3.28-.3c.31-18.42-.93-35.81 2.04-48.08.05-.6-.88-2.47-1.08-3.03l-6.6-24.94Z" fill="#5B95FC"/>
    <path d="M82.16 349.1c1.37-8.87-1.14-14.4-1.14-14.4l2.15-1.11-10.56-7.33s-5.04 7.43-4.17 15.19c.86 7.75.06 30.33.06 30.33-3.22 10.42-5.34 25.26-8.1 41.03l2.77.4c8.44-33.25 10.99-34.23 13.97-39.64 3.02-5.5 3.62-15.6 5.02-24.47Z" fill="#5B95FC"/>
    <path d="M65.3 413.14s3.92 8.16 7.55 9.17c3.63 1 3.71 5.51 3.71 5.51h-5.89S58 422.64 57 421.64s3.33-9.24 3.33-9.24c1.57.65 3.27.9 4.97.74Z" fill="#0658CE"/>
    <path d="M81.03 275.82c-4.58.13-7.5-.5-9.49-1.46-3.1 1.31-7.32 4.22-7.47 10.84-.1 4.65-1 19.42-1.23 20.81-1.76 11.22-4.63 22.67-8.27 32.15a1.85 1.85 0 0 0 .25 1.79 9.9 9.9 0 0 0 3.41 2.83c5.13 2.48 24.15-2.03 24.15-2.03s-4.7-20.2 1.31-37c6.08-16.97-2.66-27.93-2.66-27.93Zm-19.82 45.54.06-.52c0 .18-.03.35-.06.52Z" fill="#FCD017"/>
    <path d="M89.4 264.93c0 .19-.18 1.27-.22 1.52.09-.5.18-1 .23-1.52Z" fill="#FCF0F2"/>
    <path d="m84.41 271-1-.18 1 .19Z" fill="#FCF0F2"/>
    <path d="m83.4 270.82.99.18c.39.05.75.08 1.07.1a13.8 13.8 0 0 1-1.91-.58l-.15.3Z" fill="#FCB9C8"/>
    <path d="M65.03 253.6v-.03s-6.45-.72-8.9 3.27c0 0 2.41-5.45 6.55-4.85a5.72 5.72 0 0 0-3.56.06c-2.44.65-3.58 2.81-5 4.73-.55.74-1.26 1.72-1.82 2.46a6.34 6.34 0 0 1-3.12 2.32 15.5 15.5 0 0 1-10.9-1.1l-.35-.16a.18.18 0 0 0 .08.17c2.7 1.93 10.8 7.13 15.52 3.93 5.23-3.57 5.53-6.88 8.6-7.42a3.56 3.56 0 0 0 3.11-2.61.8.8 0 0 0-.21-.77Z" fill="#C43155"/>
    <path d="m64.75 253.33.25.22c-.05-.03-.13-.12-.25-.22Z" fill="#C43155"/>
    <path d="M50.97 259.33c1.2-2.07 4.71-6.65 8.12-7.57 2.78-.73 4.93.92 5.66 1.57l.25.22c-.37-.37-.76-.73-1.17-1.06l-.14-.1c-1.53-1.15-3.99-2.3-6.76-.97-4.62 2.24-4.62 8.11-11.42 8.76-3.99.38-6.2.2-7.34 0h-.08a.19.19 0 0 0-.15.18c3.8 2.01 11.86.95 13.03-1.03Z" fill="#FF5C74"/>
    <path d="M45.5 262.1c1.23-.05 2.44-.22 3.63-.51a6.34 6.34 0 0 0 3.13-2.33l1.81-2.45c1.42-1.92 2.57-4.09 5-4.74 1.15-.4 2.4-.41 3.56-.05-4.14-.6-6.54 4.85-6.54 4.85 2.44-4.02 8.9-3.28 8.9-3.28l-.25-.22c-.73-.65-2.9-2.32-5.66-1.58-3.4.89-6.91 5.47-8.11 7.54-1.2 2.07-9.23 3.04-13.1 1l.35.16a15.5 15.5 0 0 0 7.28 1.6Z" fill="#FF5C74"/>
    <path d="M66.5 256.56c.44-.65.69-1.42.7-2.2a.21.21 0 0 0-.15-.2c-.43-.15-1.7-.55-1.68-.53.25.65-.39 1.78-.7 2.27a.22.22 0 0 0-.02.2c.01.04.03.07.06.09.02.02.05.04.09.05l1.45.42a.23.23 0 0 0 .26-.1Z" fill="#115BFA"/>
    <path d="M76.48 267.2a.6.6 0 0 1-.06.17l.44.22-.27-.21-.11-.18Z" fill="#FCB9C8"/>
    <path d="M79.28 262.36c-5.17-2.39-4.58 2.39-3.19 4.12l.52.45 1.03.98.15.14 4.05 2-.24-.37 1.96.84a6.16 6.16 0 0 1-3.04-7.89c-.43 0-.85-.1-1.24-.27Z" fill="#FCB9C8"/>
    <path d="m76.48 267.2.1.18.28.2.93.47-.15-.14c-.33-.33-.65-.66-1.03-.98l-.52-.45.16.19a.66.66 0 0 1 .23.53Z" fill="#FCB9C8"/>
    <path d="M83.39 270.81Z" fill="#FCB9C8"/>
    <path d="m81.84 270.05 1.55.76.18-.29-1.97-.83.24.36Z" fill="#FCB9C8"/>
    <path d="M79.4 269.38c.66.34 1.34.63 2.04.88l-2.12-.92.08.04Z" fill="#FCB9C8"/>
    <path d="M81.47 270.27c.62.22 1.26.4 1.91.54l-1.26-.36-.65-.18Z" fill="#FCB9C8"/>
    <path d="m77.79 268.05.87.84a35.85 35.85 0 0 1-1.8-1.3l-.44-.22c-.1.2-.23.37-.4.52l3.28 1.44-.66-.44-.85-.84Z" fill="#FCB9C8"/>
    <path d="m81.84 270.05-4.05-2 .87.84.65.45 2.12.92.65.18-.24-.39Z" fill="#FCB9C8"/>
    <path d="m78.66 268.9-.87-.85-.93-.46c.34.26.98.75 1.8 1.3Z" fill="#FCB9C8"/>
    <path d="m82.12 270.45 1.26.36-1.54-.77.28.41Z" fill="#FCB9C8"/>
    <path d="M90.94 263.72c-.83-.7-1.2-2.56-1.2-2.56.1-1.85.11-3.52.06-4.62-.13.34-.33.66-.58.94-1.71 1.77-5.71 5.23-8.7 5.15a6.16 6.16 0 0 0 3.05 7.9c.63.23 1.27.43 1.92.57.36 0 .65.04.96 0a1.97 1.97 0 0 0 1.55-.78c.17-.23.3-.47.4-.73.36-1.01.62-2.06.78-3.11l-1.03-1.25a.17.17 0 0 1-.07-.04.17.17 0 0 1-.03-.07.2.2 0 0 1 .2-.2h1.15c.86-.15 2.38-.46 1.54-1.2Z" fill="#FCF0F2"/>
    <path d="M88.9 264.92h-.65a.2.2 0 0 0-.2.2c0 .03.02.07.05.1l1.03 1.24v-.04c.04-.25.2-1.3.22-1.52l-.44.02Z" fill="#FCB9C8"/>
    <path d="M71.28 267.64c3.08.25 2.76-1.52 2.22-2.85a4.33 4.33 0 0 0-2.22-.5l6.24-9.47 5.95-2.62 4.65 2.28a3.68 3.68 0 0 0-1-4.4 13.3 13.3 0 0 0-9.26-2.07c-5.66.65-9.23 3.09-10.61 7.33.16 3.03.92 12.06 4.03 12.3Z" fill="#FF5C74"/>
    <path d="m73.27 262.12-.1-.7h.48c.8-1.14 2.41-2.05 5.24-1.48 3.48.7 7.98-2.28 9.21-5.46l-4.63-2.28-5.95 2.62-6.24 9.46c.77-.03 1.54.14 2.22.5l-.34-.76c-.2-.62-.17-1.3.1-1.9Z" fill="#FF5C74"/>
    <path d="m73.27 262.12.06-.15c.1-.2.2-.37.31-.54h-.48l.1.7Z" fill="#FF5C74"/>
    <path d="M74.42 267.01v.18l.19.08-.19-.26Z" fill="#C43155"/>
    <path d="M89.2 251.82a13.24 13.24 0 0 0-2.08-1.73 3.68 3.68 0 0 1 1 4.39c-1.23 3.18-5.73 6.16-9.21 5.46-2.85-.57-4.48.34-5.24 1.49-.12.17-.22.35-.3.54l-.07.15c-.28.6-.32 1.28-.1 1.9l.32.77c.54 1.3.87 3.1-2.21 2.85-3.09-.25-3.87-9.27-4.04-12.3-.3.93-.5 1.89-.58 2.85-.41 4.33 1.4 8.88 3.88 11.13l.36.32a2.89 2.89 0 0 0 4.1-.54l.12-.18v-.04c.26-.35.55-.69.88-.99.16-.15.3-.33.4-.52a.6.6 0 0 0 .05-.18.65.65 0 0 0-.23-.53 1.2 1.2 0 0 1-.16-.19c-1.35-1.73-1.96-6.5 3.2-4.12.38.18.8.27 1.23.28 2.98.05 6.98-3.39 8.7-5.16.24-.28.44-.6.58-.94.58-1.37.6-3.47-.6-4.71Z" fill="#C43155"/>
    <path d="M83.38 270.81c-.65-.14-1.29-.32-1.92-.54-.7-.25-1.38-.55-2.04-.88l-.07-.05-3.27-1.44c-.17.18-.38.38-.57.6a10.05 10.05 0 0 1 5.61 6.29c.1-4.58 2.33-3.97 2.33-3.97l-.07-.01Z" fill="#FCB9C8"/>
    <path d="M81.07 275.07v-.29a10.06 10.06 0 0 0-5.62-6.29c-.11.13-.21.26-.3.4v.04l-.13.18c-.4.52-.95.9-1.57 1.06-.4.65-1.4 3.5-2.3 4.65l.74.53c2.58 2.66 9.21.65 9.21.65l-.03-.93Z" fill="#FCF0F2"/>
    <path d="m68.3 351.7-2.17-.6 2.17 8.32s.18-8.26 0-7.72Z" fill="#0658CE"/>
    <path d="M74.4 417.02c1.7.12 3.4-.04 5.03-.48 0 0 6.43 5.4 10.16 4.8a4.77 4.77 0 0 1 4.13 1.41 1.83 1.83 0 0 1-.5 3l-2.24 1.05a5.9 5.9 0 0 1-2.26.54c-3.35.12-12.73.42-13.82 0-1.31-.5-.5-10.3-.5-10.3" fill="#0658CE"/>
    <path d="M339.67 256.91a4.65 4.65 0 1 0 0-9.3 4.65 4.65 0 0 0 0 9.3Z" fill="#fff"/>
    <path opacity=".35" d="M266.97 129.45a4.45 4.45 0 1 0 0-8.9 4.45 4.45 0 0 0 0 8.9Z" fill="#5B95FC"/>
    <path d="M266.97 128.67a4.45 4.45 0 1 0 0-8.9 4.45 4.45 0 0 0 0 8.9Z" fill="#428EFC"/>
    <path d="M266.97 125.82a1.6 1.6 0 1 0 0-3.2 1.6 1.6 0 0 0 0 3.2Z" fill="#fff"/>
    <path opacity=".35" d="M303.54 121.67h-3.2a2.05 2.05 0 0 0-1.92 1.28c-.1.25-.16.52-.16.79v7.12l1.86-1.86H303.54a2.07 2.07 0 0 0 2.07-2.08v-3.2a2.07 2.07 0 0 0-2.07-2.05Z" fill="#5B95FC"/>
    <path d="M304.25 120.73h-3.2a2.07 2.07 0 0 0-2.08 2.07v7.12l1.86-1.86H304.25a2.08 2.08 0 0 0 2.07-2.08v-3.18a2.07 2.07 0 0 0-2.07-2.07Z" fill="#428EFC"/>
    <path d="M304.61 123.37h-3.75a.33.33 0 0 1 0-.66h3.75c.09 0 .17.04.23.1a.33.33 0 0 1-.23.56Z" fill="#fff"/>
    <path d="M304.61 124.83h-3.75a.33.33 0 0 1-.24-.56c.06-.06.15-.1.24-.1h3.75c.09 0 .17.04.23.1a.33.33 0 0 1-.23.56Z" fill="#fff"/>
    <path d="M304.61 126.3h-3.75a.33.33 0 0 1 0-.66h3.75a.33.33 0 0 1 .33.33.33.33 0 0 1-.33.32Z" fill="#fff"/>
    <path opacity=".35" d="M340.64 122.15h-6.18a.76.76 0 0 0-.76.76v5c0 .43.34.77.76.77h6.18c.42 0 .76-.34.76-.76v-5.01a.76.76 0 0 0-.76-.76Z" fill="#5B95FC"/>
    <path d="M341.77 121.36h-6.18a.76.76 0 0 0-.76.76v5.01c0 .42.34.76.76.76h6.19c.41 0 .75-.34.75-.76v-5a.76.76 0 0 0-.75-.77Z" fill="#428EFC"/>
    <path d="m335.1 121.5 3.36 2.94a.35.35 0 0 0 .44 0l3.37-2.94" fill="#428EFC"/>
    <path d="M338.69 124.85a.65.65 0 0 1-.44-.17l-3.38-2.92a.34.34 0 0 1-.12-.23.32.32 0 0 1 .19-.32.34.34 0 0 1 .26-.01c.04.01.08.03.1.07l3.38 2.94 3.38-2.94a.3.3 0 0 1 .11-.07.32.32 0 0 1 .35.1c.03.03.06.06.07.1a.32.32 0 0 1-.07.35l-3.37 2.95c-.13.1-.3.16-.46.15Z" fill="#fff"/>
    <path d="M82.38 345.71c-.06 1.07-.18 2.2-.36 3.4-1.37 8.87-1.96 18.98-5.02 24.5-2.98 5.4-5.53 6.38-13.96 39.64l1.96.29 18.02-41.2c.17-.4.28-.8.34-1.23 2.03-10.57 2.37-20.79 3.18-30.6v-1.25c-2.35 1.09-6.74 2.08-8.05 2.37 3.01-.25 4.03 1.49 3.89 4.08Z" fill="#0658CE"/>
    <path d="M85.16 317.52c.72-16.1 9.08-33.85-4.25-41.68 0 0 7.5 9.73 3.14 25.4-2.96 10.63-4.3 20.05-3.88 27.61a14.87 14.87 0 0 1-3.8 10.8c-1.31 1.44-2.67 2.7-4.59 3.1 1.68-.17 3.34-.45 4.98-.83a9.67 9.67 0 0 1 1.7-.3c1.3-.28 5.7-1.3 8.04-2.36-.12-1.75-.39-3.5-.8-5.2-.92-3.97-.78-11.16-.54-16.54Z" fill="#F9A319"/>
    <path d="M138.51 289.05c-4.5-.06-5.59 1.13-5.8 1.44l.2.57s.66-1.46 5.39-1.4c2.68.04 3.92-1.26 4.58-2.29a5.43 5.43 0 0 1-4.37 1.68Z" fill="#FCB9C8"/>
    <path d="M136.97 286.94a6.08 6.08 0 0 0-5.14.95l.88 2.62c.21-.31 1.31-1.5 5.8-1.44a5.44 5.44 0 0 0 4.36-1.68c.17-.29.32-.6.44-.91-.74.52-3.7 1.1-6.34.46Z" fill="#FCF0F2"/>
    <path d="M87.09 294.25s8.5 10.53 13.48 11.57c4.58.97 29.05-13.09 32.67-15.16l-.26-.78-.9-2.7c-11.73 3.84-24.1 7.81-27.97 10.2a.52.52 0 0 1-.47-.07c-9.33-7.35-16.25-13.17-22.25-17.2l-13.68 1.37a315.9 315.9 0 0 0 17.73 14.62c0 .02-.66-2.42 1.65-1.86Z" fill="#FCD017"/>
    <path d="M86.2 296.7c3.93 3 8.16 6.23 11.36 8.73a7.32 7.32 0 0 0 8.27.86c6.8-3.22 16.97-8.96 27.6-15.06l-.21-.59c-3.62 2.1-28.08 16.13-32.67 15.17-4.38-.92-11.43-9.24-13.1-11.24a1.3 1.3 0 0 0-1.16-.49c-1.31.2-1.2 1.78-1.2 1.78l.62.49.5.36Z" fill="#F9A319"/>
  </g>
  <defs>
    <linearGradient id="a" x1="46.18" y1="268.35" x2="45.35" y2="233.82" gradientUnits="userSpaceOnUse">
      <stop stop-color="#E3F1FC"/>
      <stop offset="1" stop-color="#3E8CFF"/>
    </linearGradient>
    <linearGradient id="b" x1="77" y1="476.34" x2="38.38" y2="52.81" gradientUnits="userSpaceOnUse">
      <stop stop-color="#E3F1FC"/>
      <stop offset="1" stop-color="#3E8CFF"/>
    </linearGradient>
    <linearGradient id="c" x1="101.97" y1="474.06" x2="63.35" y2="50.54" gradientUnits="userSpaceOnUse">
      <stop stop-color="#E3F1FC"/>
      <stop offset="1" stop-color="#3E8CFF"/>
    </linearGradient>
    <linearGradient id="d" x1="233.76" y1="377.56" x2="234.78" y2="212.28" gradientUnits="userSpaceOnUse">
      <stop offset=".19" stop-color="#fff"/>
      <stop offset="1" stop-color="#3EA9FF"/>
    </linearGradient>
    <linearGradient id="e" x1="406.09" y1="476.33" x2="374.39" y2="37.74" gradientUnits="userSpaceOnUse">
      <stop stop-color="#E3F1FC"/>
      <stop offset="1" stop-color="#3E8CFF"/>
    </linearGradient>
    <linearGradient id="f" x1="358.36" y1="274.28" x2="361.12" y2="274.28" gradientUnits="userSpaceOnUse">
      <stop stop-color="#E3F1FC"/>
      <stop offset="1" stop-color="#3E8CFF"/>
    </linearGradient>
    <linearGradient id="g" x1="233.82" y1="52.02" x2="233.31" y2="135.2" gradientUnits="userSpaceOnUse">
      <stop stop-color="#fff"/>
      <stop offset="1" stop-color="#3EA9FF"/>
    </linearGradient>
    <linearGradient id="h" x1="48.37" y1="235.03" x2="191.42" y2="234.28" gradientUnits="userSpaceOnUse">
      <stop offset=".22" stop-color="#fff"/>
      <stop offset="1" stop-color="#3EB6FF"/>
    </linearGradient>
    <linearGradient id="i" x1="51.07" y1="159.85" x2="193.89" y2="159.1" gradientUnits="userSpaceOnUse">
      <stop offset=".22" stop-color="#fff"/>
      <stop offset="1" stop-color="#3EB6FF"/>
    </linearGradient>
    <linearGradient id="j" x1="283.23" y1="132.89" x2="282.77" y2="280.3" gradientUnits="userSpaceOnUse">
      <stop offset=".22" stop-color="#fff"/>
      <stop offset="1" stop-color="#3EB6FF"/>
    </linearGradient>
    <linearGradient id="k" x1="211.34" y1="205.78" x2="354.99" y2="205.78" gradientUnits="userSpaceOnUse">
      <stop stop-color="#538AFF"/>
      <stop offset="1" stop-color="#3EB6FF"/>
    </linearGradient>
    <linearGradient id="l" x1="237.78" y1="184.4" x2="238.44" y2="184.4" gradientUnits="userSpaceOnUse">
      <stop stop-color="#538AFF"/>
      <stop offset="1" stop-color="#3EB6FF"/>
    </linearGradient>
    <linearGradient id="m" x1="342.18" y1="167.45" x2="342.83" y2="167.45" gradientUnits="userSpaceOnUse">
      <stop stop-color="#538AFF"/>
      <stop offset="1" stop-color="#3EB6FF"/>
    </linearGradient>
    <linearGradient id="n" x1="288.84" y1="210.63" x2="289.49" y2="210.63" gradientUnits="userSpaceOnUse">
      <stop stop-color="#538AFF"/>
      <stop offset="1" stop-color="#3EB6FF"/>
    </linearGradient>
    <linearGradient id="o" x1="410.96" y1="357.55" x2="373.4" y2="219.38" gradientUnits="userSpaceOnUse">
      <stop stop-color="#E3F1FC"/>
      <stop offset="1" stop-color="#3E8CFF"/>
    </linearGradient>
    <linearGradient id="p" x1="383.43" y1="320.52" x2="375.52" y2="260.2" gradientUnits="userSpaceOnUse">
      <stop stop-color="#E3F1FC"/>
      <stop offset="1" stop-color="#3E8CFF"/>
    </linearGradient>
  </defs>
</svg>
