<svg width="1018" height="648" viewBox="0 0 1018 648" fill="none" xmlns="http://www.w3.org/2000/svg">
<g clip-path="url(#clip0_6766_37247)">
<path d="M960.461 112.376V225.007C960.461 234.925 952.413 242.973 942.487 242.973H729.466C719.54 242.973 711.5 234.925 711.5 225.007V112.376H960.461Z" fill="url(#paint0_linear_6766_37247)"/>
<path d="M960.462 83.9994V112.376H711.497V83.9994C711.497 75.1695 718.654 68.0049 727.483 68.0049H944.467C953.297 68.0049 960.462 75.1695 960.462 83.9994Z" fill="white"/>
<path d="M960.462 113.441H711.497C710.908 113.441 710.433 112.965 710.433 112.376V83.9998C710.433 74.5934 718.081 66.9409 727.483 66.9409H944.467C953.874 66.9409 961.526 74.5934 961.526 83.9998V112.376C961.526 112.965 961.05 113.441 960.462 113.441ZM712.561 111.312H959.393V83.9998C959.393 75.7707 952.696 69.0738 944.467 69.0738H727.483C719.254 69.0738 712.561 75.7707 712.561 83.9998V111.312Z" fill="#1A1B22"/>
<path d="M734.854 98.9051C739.138 98.9051 742.611 95.432 742.611 91.1477C742.611 86.8635 739.138 83.3904 734.854 83.3904C730.569 83.3904 727.096 86.8635 727.096 91.1477C727.096 95.432 730.569 98.9051 734.854 98.9051Z" fill="#45AFFA"/>
<path d="M762.605 98.9051C766.889 98.9051 770.362 95.432 770.362 91.1477C770.362 86.8635 766.889 83.3904 762.605 83.3904C758.321 83.3904 754.848 86.8635 754.848 91.1477C754.848 95.432 758.321 98.9051 762.605 98.9051Z" fill="#45AFFA"/>
<path d="M790.356 98.9051C794.641 98.9051 798.114 95.432 798.114 91.1477C798.114 86.8635 794.641 83.3904 790.356 83.3904C786.072 83.3904 782.599 86.8635 782.599 91.1477C782.599 95.432 786.072 98.9051 790.356 98.9051Z" fill="#45AFFA"/>
<path d="M936.686 222.176H735.273C731.116 222.176 727.733 218.793 727.733 214.636V140.716C727.733 136.559 731.116 133.176 735.273 133.176H936.686C940.842 133.176 944.225 136.559 944.225 140.716V214.632C944.225 218.793 940.842 222.176 936.686 222.176ZM735.273 135.309C732.289 135.309 729.866 137.736 729.866 140.716V214.632C729.866 217.616 732.293 220.039 735.273 220.039H936.686C939.669 220.039 942.092 217.612 942.092 214.632V140.716C942.092 137.732 939.665 135.309 936.686 135.309H735.273Z" fill="white"/>
<path d="M914.474 160.851H753.997C752.328 160.851 750.973 159.496 750.973 157.827V154.194C750.973 152.525 752.328 151.17 753.997 151.17H914.474C916.143 151.17 917.498 152.525 917.498 154.194V157.827C917.498 159.496 916.143 160.851 914.474 160.851Z" fill="white"/>
<path d="M841.759 178.837H753.997C752.328 178.837 750.973 177.483 750.973 175.813V172.181C750.973 170.511 752.328 169.157 753.997 169.157H841.759C843.428 169.157 844.783 170.511 844.783 172.181V175.813C844.783 177.483 843.428 178.837 841.759 178.837Z" fill="white"/>
<path d="M841.759 196.824H753.997C752.328 196.824 750.973 195.469 750.973 193.8V190.167C750.973 188.498 752.328 187.143 753.997 187.143H841.759C843.428 187.143 844.783 188.498 844.783 190.167V193.8C844.783 195.469 843.428 196.824 841.759 196.824Z" fill="white"/>
<path d="M911.841 196.824H866.264C863.14 196.824 860.607 194.291 860.607 191.167V174.813C860.607 171.689 863.14 169.157 866.264 169.157H911.841C914.965 169.157 917.497 171.689 917.497 174.813V191.167C917.497 194.291 914.965 196.824 911.841 196.824Z" fill="white"/>
<path d="M770.568 581.539C770.097 581.539 769.665 581.224 769.54 580.744L751.288 511.743C751.139 511.174 751.477 510.59 752.046 510.44C752.614 510.291 753.199 510.63 753.348 511.198L771.601 580.2C771.75 580.769 771.411 581.353 770.843 581.502C770.75 581.527 770.657 581.539 770.568 581.539Z" fill="#1A1B22"/>
<path d="M595.23 584.143C595.173 584.143 595.113 584.139 595.057 584.127C594.476 584.03 594.081 583.486 594.178 582.905L614.627 457.99C614.724 457.409 615.268 457.014 615.849 457.111C616.43 457.208 616.825 457.752 616.728 458.332L596.278 583.248C596.198 583.772 595.742 584.143 595.23 584.143Z" fill="#1A1B22"/>
<path d="M613.091 312.499C612.494 312.499 611.918 312.188 611.603 311.632C605.511 300.819 604.306 290.634 608.011 281.365C609.842 276.793 612.882 272.45 617.047 268.459C620.337 265.306 624.336 262.362 628.937 259.714C636.73 255.218 643.484 253.125 643.77 253.041C644.669 252.767 645.62 253.271 645.899 254.17C646.173 255.069 645.669 256.024 644.77 256.299C644.508 256.379 618.393 264.576 611.176 282.643C607.874 290.904 609.019 300.097 614.575 309.963C615.039 310.781 614.748 311.822 613.926 312.285C613.66 312.426 613.373 312.499 613.091 312.499Z" fill="#1A1B22"/>
<path d="M777.334 320.015C776.745 320.015 776.172 319.708 775.858 319.164C775.386 318.35 775.664 317.305 776.479 316.834C795.788 305.661 805.811 291.3 803.972 277.434C803.025 270.282 798.896 263.423 792.038 257.609C784.627 251.324 774.447 246.425 761.787 243.042C740.781 237.434 726.314 224.08 717.875 213.867C708.751 202.82 704.623 193.212 704.453 192.809C704.086 191.942 704.49 190.942 705.356 190.575C706.223 190.208 707.223 190.612 707.59 191.478C707.651 191.615 711.755 201.131 720.573 211.783C728.685 221.58 742.571 234.386 762.662 239.748C775.814 243.26 786.438 248.392 794.239 255.009C801.755 261.379 806.287 268.979 807.347 276.987C809.375 292.288 798.747 307.887 778.184 319.785C777.914 319.938 777.62 320.015 777.334 320.015Z" fill="#1A1B22"/>
<path d="M710.053 191.455C710.053 191.455 713.077 210.348 729.495 228.282C752.819 253.763 790.957 251.993 797.569 272.072C806.27 298.497 772.414 335.611 735.224 330.228C676.088 321.672 670.117 298.005 638.076 306.432C606.034 314.854 604.345 284.055 635.685 264.291C655.094 252.05 642.821 226.084 645.865 202.357L710.053 191.455Z" fill="#1A1B22"/>
<path d="M742.687 331.833C740.199 331.833 737.655 331.655 735.071 331.284C706.916 327.212 690.95 319.826 678.121 313.891C664.102 307.408 654.844 303.126 638.342 307.46C625.803 310.758 616.388 308.291 613.159 300.864C611.018 295.933 611.877 289.53 615.582 282.829C619.537 275.673 626.295 268.947 635.116 263.383C647.551 255.541 646.422 241.934 645.112 226.173C644.458 218.315 643.785 210.187 644.805 202.216C644.866 201.752 645.22 201.381 645.684 201.3L709.876 190.398C710.158 190.35 710.444 190.418 710.674 190.584C710.904 190.749 711.061 190.999 711.105 191.281C711.134 191.467 714.291 210.09 730.281 227.56C741.57 239.89 756.396 245.752 769.475 250.925C783.204 256.352 795.057 261.041 798.577 271.733C802.363 283.228 798.5 297.384 788.247 309.601C778.817 320.846 762.355 331.833 742.687 331.833ZM650.748 303.589C660.933 303.589 668.964 307.307 679.016 311.955C691.72 317.83 707.529 325.144 735.377 329.176C757.512 332.381 776.361 320.459 786.619 308.238C796.392 296.59 800.109 283.196 796.557 272.407C793.348 262.662 781.925 258.146 768.693 252.913C755.4 247.655 740.328 241.696 728.709 229.004C714.278 213.239 710.093 196.962 709.202 192.68L646.825 203.272C645.97 210.775 646.611 218.513 647.236 226.004C648.547 241.768 649.78 256.662 636.253 265.194C617.763 276.854 611.562 291.84 615.118 300.021C617.888 306.4 626.371 308.411 637.806 305.404C642.596 304.142 646.833 303.589 650.748 303.589Z" fill="#1A1B22"/>
<path d="M509.153 353.596L554.145 483.338C575.856 514.355 613.837 506.215 615.203 465.098C615.203 465.098 640.169 485.459 680.056 484.677C710.146 484.088 731.301 476.794 744.607 470.005L785.877 511.469L854.846 429.674C880.719 403.092 849.802 369.728 844.662 365.426L752.816 287.993L752.868 287.578L752.658 287.864C745.32 279.865 738.196 275.236 731.003 274.761C712.739 273.555 704.356 273.398 704.356 273.398C704.356 273.398 705.36 291.537 680.508 294.469C655.188 297.456 651.333 277.567 651.333 277.567L634.693 278.756C623.715 279.244 612.627 290.372 607.196 305.278C604.16 313.612 601.273 321.639 598.769 328.651L580.743 374.481L554.145 334.3L509.153 353.596ZM741.075 383.335L742.393 372.615L789.167 405.583L758.98 446.692L741.075 383.335Z" fill="#FFDCD9"/>
<path opacity="0.57" d="M450.606 434.242C437.317 434.242 423.879 433.496 411.081 429.133C396.958 424.319 380.467 412.703 376.54 394.536C376.415 393.959 376.782 393.395 377.359 393.27C377.935 393.145 378.5 393.512 378.625 394.084C381.076 405.426 391.071 420.062 411.767 427.117C427.56 432.5 444.526 432.25 460.936 432.008L517.297 431.181C540.69 430.839 569.804 430.411 592.31 416.521C612.639 403.974 625.473 382.009 636.871 360.591C645.475 344.423 653.099 328.514 651.877 311.632C651.083 300.633 646.507 290.328 641.681 280.828C633.387 264.507 623.525 248.876 612.357 234.365C603.692 223.104 597.979 221.79 593.967 221.903C593.359 221.919 592.891 221.455 592.871 220.866C592.855 220.278 593.318 219.79 593.907 219.77C594.048 219.766 594.193 219.766 594.33 219.766C602.725 219.766 609.264 226.85 614.046 233.063C625.291 247.678 635.226 263.423 643.58 279.861C648.507 289.558 653.18 300.097 654.002 311.475C655.264 328.921 647.511 345.137 638.754 361.591C627.218 383.271 614.216 405.506 593.431 418.336C570.429 432.532 540.989 432.968 517.334 433.314L460.972 434.141C457.533 434.189 454.073 434.242 450.606 434.242Z" fill="white"/>
<path opacity="0.57" d="M807.46 572.906C807.395 572.906 807.335 572.902 807.27 572.89C793.864 570.471 780.966 565.729 768.935 558.794C756.904 551.863 746.332 543.082 737.515 532.696C728.697 522.31 721.746 510.456 716.859 497.457C711.969 484.458 709.384 470.964 709.17 457.34C708.852 437.027 713.94 417.267 723.601 400.853C722.609 398.527 721.786 396.148 721.133 393.725C718.343 383.319 718.916 372.408 719.73 364.07C722.117 339.617 728.822 318.893 739.66 302.467C752.618 282.832 771.761 269.543 792.179 266.011C792.755 265.91 793.308 266.301 793.409 266.878C793.509 267.458 793.118 268.007 792.542 268.108C772.705 271.539 754.078 284.489 741.438 303.636C730.789 319.768 724.201 340.169 721.851 364.272C721.056 372.433 720.488 383.097 723.189 393.168C723.681 395.003 724.278 396.809 724.975 398.587C725.911 397.096 726.883 395.632 727.895 394.205C741.244 375.344 761.202 362.276 782.652 358.353C799.38 355.293 814.181 359.248 822.241 368.937C827.752 375.561 829.397 383.887 829.812 389.705C831.147 408.586 821.273 428.032 805.238 438.096C799.932 441.426 794.626 443.394 789.473 443.95C781.317 444.829 773.406 442.192 767.423 439.797C756.416 435.394 746.477 429.193 738.676 421.863C732.604 416.158 727.923 409.921 724.685 403.236C715.706 419.049 710.997 437.918 711.299 457.308C711.509 470.685 714.049 483.938 718.851 496.707C723.653 509.472 730.479 521.116 739.139 531.317C747.8 541.514 758.182 550.138 769.999 556.948C781.817 563.757 794.485 568.414 807.653 570.789C808.234 570.894 808.617 571.446 808.512 572.027C808.415 572.543 807.968 572.906 807.46 572.906ZM725.987 401.006C729.124 407.953 733.858 414.421 740.127 420.315C747.735 427.464 757.444 433.516 768.205 437.822C773.959 440.124 781.555 442.66 789.236 441.833C794.066 441.313 799.065 439.45 804.093 436.294C819.479 426.641 828.958 407.978 827.676 389.858C827.285 384.351 825.74 376.489 820.592 370.3C813.032 361.212 798.989 357.531 783.026 360.45C762.121 364.276 742.659 377.029 729.628 395.438C728.354 397.245 727.137 399.103 725.987 401.006Z" fill="white"/>
<path opacity="0.57" d="M680.04 563.903C679.991 563.903 679.947 563.899 679.899 563.895C679.314 563.818 678.907 563.282 678.983 562.697C682.14 539.115 679.391 501.231 648.353 454.691C635.6 435.572 622.501 421.775 608.296 412.522C590.939 401.212 569.744 395.536 547.008 396.104C525.53 396.64 503.427 402.934 484.768 413.82C484.26 414.119 483.606 413.945 483.312 413.437C483.014 412.929 483.187 412.276 483.695 411.982C502.657 400.918 525.123 394.524 546.955 393.975C570.135 393.391 591.742 399.193 609.462 410.74C623.912 420.154 637.213 434.149 650.127 453.514C661.642 470.783 670.21 488.394 675.585 505.86C681.669 525.62 683.523 544.84 681.092 562.984C681.024 563.516 680.564 563.903 680.04 563.903Z" fill="white"/>
<path d="M630.887 197.244C631.008 197.534 631.254 197.756 631.561 197.841C631.895 197.933 634.435 198.627 638.161 199.498C636.971 203.405 636.947 208.247 640.782 212.968L637.415 228.938C636.225 234.603 637.838 242.856 644.188 247.602C646.777 249.537 650.514 251.17 655.756 251.17C656.385 251.17 657.034 251.146 657.707 251.098V255.654V255.658V255.662V271.314C657.703 271.443 657.51 275.329 654.147 276.345C653.361 276.583 652.442 276.652 651.414 276.551C651.385 276.547 651.361 276.551 651.333 276.551C651.317 276.551 651.297 276.547 651.281 276.547C651.268 276.547 651.26 276.551 651.248 276.551C651.212 276.555 651.176 276.559 651.139 276.567C651.107 276.571 651.075 276.579 651.043 276.587C651.014 276.595 650.986 276.607 650.958 276.615C650.922 276.628 650.889 276.644 650.857 276.66C650.833 276.672 650.809 276.688 650.789 276.7C650.756 276.72 650.724 276.74 650.696 276.765C650.676 276.781 650.656 276.801 650.635 276.821C650.607 276.845 650.583 276.869 650.559 276.898C650.539 276.922 650.523 276.946 650.502 276.97C650.482 276.998 650.462 277.027 650.446 277.055C650.43 277.083 650.418 277.111 650.402 277.14C650.385 277.172 650.373 277.2 650.361 277.232C650.349 277.261 650.345 277.293 650.337 277.325C650.329 277.361 650.321 277.394 650.317 277.43C650.317 277.442 650.309 277.454 650.309 277.466C650.305 277.49 650.309 277.511 650.309 277.535C650.309 277.555 650.305 277.575 650.305 277.599C650.313 277.873 650.583 284.373 656.28 289.562C660.788 293.666 667.311 295.735 675.706 295.735C676.823 295.735 677.972 295.698 679.153 295.626C689.007 295.013 696.272 292.041 700.748 286.784C705.993 280.619 705.388 273.636 705.356 273.301V273.297C705.352 273.265 705.344 273.233 705.336 273.2C705.328 273.168 705.324 273.132 705.316 273.1C705.223 272.797 704.997 272.563 704.707 272.451C704.687 272.442 704.671 272.434 704.651 272.426C704.622 272.418 704.59 272.414 704.558 272.406C704.522 272.398 704.489 272.39 704.453 272.386C704.425 272.382 704.397 272.386 704.368 272.386C704.332 272.386 704.296 272.382 704.255 272.386C704.191 272.39 703.199 272.434 702.268 271.563C701.107 270.479 700.494 268.39 700.494 265.528V237.417C709.586 235.418 713.98 229.575 715.045 224.326C716.057 219.343 714.21 214.662 710.448 212.674C708.682 211.738 706.796 211.468 704.828 211.847C704.921 210.355 705.534 208.88 706.666 207.444C710.259 202.913 713.751 189.434 708.666 181.007C704.28 173.734 695.607 173.54 688.954 174.722C677.46 167.835 666.86 165.626 657.441 168.154C645.16 171.452 639.499 181.572 639.266 181.999L630.96 196.345C630.79 196.623 630.766 196.953 630.887 197.244Z" fill="white"/>
<path d="M696.511 238.051C695.962 238.051 695.499 237.631 695.45 237.075C695.402 236.49 695.833 235.974 696.422 235.922C707.046 235.01 711.961 229.116 713.017 223.903C713.844 219.834 712.424 216.057 709.489 214.508C707.764 213.597 705.953 213.513 703.949 214.246C703.397 214.448 702.784 214.166 702.583 213.613C702.381 213.061 702.663 212.448 703.216 212.246C705.784 211.307 708.231 211.432 710.485 212.625C714.263 214.621 716.122 219.322 715.106 224.326C713.896 230.293 708.397 237.035 696.603 238.042C696.571 238.047 696.543 238.051 696.511 238.051Z" fill="#1A1B22"/>
<path d="M655.772 251.215C650.518 251.215 646.769 249.578 644.176 247.638C637.81 242.881 636.193 234.603 637.383 228.927L643.563 199.627C643.684 199.05 644.253 198.683 644.825 198.804C645.402 198.925 645.769 199.49 645.648 200.066L639.467 229.362C638.411 234.398 639.834 241.728 645.45 245.929C650.16 249.449 659.211 251.799 675.572 242.99C676.093 242.712 676.738 242.905 677.016 243.425C677.294 243.945 677.101 244.59 676.584 244.869C667.876 249.558 661.062 251.215 655.772 251.215Z" fill="#1A1B22"/>
<path d="M704.207 274.466C703.638 274.466 702.231 274.329 700.917 273.132C699.264 271.628 698.425 269.068 698.425 265.524V236.579C698.425 235.99 698.901 235.514 699.49 235.514C700.078 235.514 700.554 235.99 700.554 236.579V265.524C700.554 268.402 701.175 270.491 702.348 271.555C703.263 272.386 704.243 272.338 704.251 272.334C704.848 272.277 705.356 272.709 705.412 273.293C705.469 273.878 705.037 274.398 704.453 274.454C704.416 274.458 704.332 274.466 704.207 274.466Z" fill="#1A1B22"/>
<path d="M652.309 278.676C651.958 278.676 651.595 278.66 651.224 278.624C650.64 278.568 650.208 278.047 650.269 277.459C650.325 276.874 650.849 276.447 651.434 276.503C652.458 276.604 653.369 276.535 654.147 276.298C657.502 275.286 657.671 271.314 657.675 271.274V255.658C657.675 255.07 658.151 254.594 658.74 254.594C659.328 254.594 659.804 255.07 659.804 255.658V271.31C659.796 271.572 659.566 276.886 654.764 278.338C654.014 278.564 653.192 278.676 652.309 278.676Z" fill="#1A1B22"/>
<path d="M705.885 206.812C704.119 209.038 703.655 211.154 703.841 213.005C700.393 213.529 697.103 215.803 695.285 217.271L694.837 217.178C696.603 214.497 699.256 208.699 690.455 207.159C678.899 205.131 682.931 187.967 682.931 187.967C676.758 189.124 673.569 190.955 671.388 201.942C659.55 204.494 631.851 196.853 631.851 196.853L640.169 182.488C640.169 182.488 655.035 155.341 688.773 175.791C716.335 170.622 711.477 199.756 705.885 206.812Z" fill="#1A1B22"/>
<path d="M695.285 218.331C695.216 218.331 695.143 218.323 695.075 218.311L694.627 218.218C694.281 218.149 693.99 217.911 693.853 217.581C693.716 217.254 693.752 216.879 693.946 216.585C694.801 215.287 696.119 212.827 695.325 210.985C694.736 209.622 693.035 208.686 690.269 208.203C687.334 207.687 685.064 206.239 683.515 203.893C680.471 199.276 681.092 192.426 681.588 189.329C676.782 190.466 674.319 192.64 672.432 202.147C672.347 202.562 672.029 202.893 671.613 202.981C659.659 205.558 632.71 198.195 631.569 197.881C631.25 197.792 630.992 197.562 630.867 197.256C630.742 196.95 630.766 196.603 630.932 196.321L639.249 181.955C639.471 181.548 645.144 171.412 657.445 168.11C666.872 165.578 677.48 167.783 688.979 174.669C695.643 173.488 704.328 173.69 708.723 180.979C713.815 189.422 710.319 202.929 706.719 207.473C705.324 209.231 704.715 211.057 704.901 212.896C704.957 213.46 704.562 213.972 704.001 214.057C700.748 214.553 697.563 216.803 695.954 218.097C695.764 218.25 695.526 218.331 695.285 218.331ZM682.931 186.898C683.221 186.898 683.499 187.015 683.701 187.229C683.951 187.491 684.052 187.858 683.967 188.208C683.947 188.301 681.846 197.502 685.298 202.727C686.527 204.586 688.273 205.691 690.636 206.106C694.156 206.723 696.389 208.082 697.28 210.142C697.893 211.561 697.78 213.077 697.337 214.492C698.933 213.492 700.788 212.585 702.735 212.13C702.76 210.065 703.534 208.057 705.046 206.146C708.239 202.123 711.44 189.616 706.892 182.076C703.796 176.947 697.764 175.181 688.963 176.831C688.705 176.879 688.438 176.831 688.213 176.693C677.097 169.956 666.928 167.759 657.986 170.158C646.555 173.23 641.148 182.894 641.096 182.991L633.464 196.175C638.987 197.607 660.207 202.812 670.48 201.026C672.69 190.519 676.085 188.156 682.729 186.91C682.802 186.906 682.866 186.898 682.931 186.898Z" fill="#1A1B22"/>
<path d="M675.718 295.779C667.307 295.779 660.776 293.702 656.26 289.59C650.547 284.385 650.277 277.869 650.269 277.591C650.248 277.002 650.712 276.511 651.301 276.494C651.313 276.494 651.325 276.494 651.333 276.494C651.906 276.494 652.377 276.95 652.397 277.523C652.402 277.615 652.688 283.474 657.728 288.042C662.401 292.275 669.569 294.126 679.04 293.537C688.289 292.965 695.055 290.243 699.151 285.453C703.844 279.962 703.3 273.555 703.296 273.491C703.24 272.906 703.671 272.386 704.256 272.329C704.84 272.273 705.36 272.7 705.417 273.285C705.445 273.579 706.074 280.611 700.8 286.808C696.317 292.074 689.043 295.053 679.173 295.666C677.984 295.743 676.835 295.779 675.718 295.779Z" fill="#1A1B22"/>
<path d="M681.185 239.477C681.185 239.477 673.557 256.112 658.74 255.649V249.859C658.74 249.859 671.678 248.774 681.185 239.477Z" fill="#1A1B22"/>
<path d="M659.328 256.722C659.119 256.722 658.913 256.718 658.703 256.714C658.127 256.697 657.671 256.226 657.671 255.649V249.859C657.671 249.307 658.094 248.843 658.647 248.799C658.772 248.787 671.331 247.622 680.439 238.715C680.806 238.356 681.379 238.308 681.798 238.606C682.217 238.901 682.366 239.453 682.153 239.921C682.072 240.098 680.133 244.279 676.302 248.456C671.335 253.875 665.481 256.722 659.328 256.722ZM659.804 250.807V254.585C667.916 254.375 673.706 248.678 677 244.243C669.88 249.041 662.437 250.444 659.804 250.807Z" fill="#1A1B22"/>
<path d="M697.845 227.519C697.611 227.519 697.377 227.443 697.184 227.29C696.724 226.923 696.647 226.253 697.014 225.794C698.82 223.524 703.554 219.863 708.545 222.27C709.078 222.524 709.299 223.161 709.041 223.693C708.787 224.221 708.146 224.447 707.618 224.189C702.897 221.911 698.72 227.068 698.679 227.12C698.466 227.382 698.155 227.519 697.845 227.519Z" fill="#1A1B22"/>
<path d="M661.107 232.192C661.107 232.192 659.498 237.426 653.188 236.942C653.188 236.942 663.59 249.614 661.107 232.192Z" fill="#1A1B22"/>
<path d="M653.676 233.547C652.89 233.547 651.975 233.402 651.148 232.906C650.015 232.229 649.301 231.084 649.031 229.503C648.39 225.798 651.329 223.427 653.37 222.479L654.482 216.98C654.599 216.403 655.164 216.028 655.736 216.145C656.313 216.262 656.688 216.823 656.571 217.399L655.345 223.451C655.273 223.814 655.015 224.112 654.668 224.241C654.503 224.302 650.555 225.814 651.132 229.136C651.297 230.088 651.66 230.725 652.245 231.071C653.176 231.628 654.567 231.366 654.982 231.225C655.543 231.039 656.144 231.342 656.329 231.902C656.514 232.462 656.212 233.063 655.652 233.249C655.595 233.273 654.753 233.547 653.676 233.547Z" fill="#1A1B22"/>
<path d="M666.748 220.871C667.184 218.719 666.702 216.805 665.672 216.597C664.642 216.388 663.453 217.964 663.018 220.116C662.582 222.268 663.064 224.181 664.094 224.39C665.124 224.598 666.313 223.023 666.748 220.871Z" fill="#1A1B22"/>
<path d="M649.09 217.587C649.526 215.435 649.044 213.522 648.014 213.313C646.984 213.105 645.795 214.68 645.36 216.832C644.924 218.984 645.406 220.898 646.436 221.106C647.466 221.315 648.655 219.739 649.09 217.587Z" fill="#1A1B22"/>
<path d="M671.388 215.21C670.94 215.21 670.521 214.924 670.376 214.472C669.562 211.968 666.763 212.307 666.642 212.319C666.058 212.396 665.526 211.985 665.449 211.4C665.372 210.815 665.784 210.283 666.368 210.206C667.981 209.997 671.319 210.481 672.404 213.811C672.585 214.371 672.279 214.972 671.719 215.154C671.61 215.194 671.497 215.21 671.388 215.21Z" fill="#1A1B22"/>
<path d="M645.866 211.968C645.467 211.968 645.084 211.742 644.903 211.359C644.649 210.827 644.875 210.194 645.407 209.94C648.427 208.505 651.031 208.739 651.14 208.751C651.725 208.807 652.156 209.331 652.096 209.916C652.039 210.5 651.519 210.928 650.934 210.871C650.894 210.867 648.773 210.698 646.322 211.863C646.177 211.936 646.02 211.968 645.866 211.968Z" fill="#1A1B22"/>
<path d="M661.489 278.676H654.454C653.865 278.676 653.389 278.2 653.389 277.612C653.389 277.023 653.865 276.547 654.454 276.547H661.489C662.078 276.547 662.554 277.023 662.554 277.612C662.554 278.2 662.078 278.676 661.489 278.676Z" fill="#1A1B22"/>
<path d="M554.145 335.36C553.758 335.36 553.387 335.15 553.197 334.78L541.146 311.282C541.037 311.072 541.005 310.83 541.049 310.596L545.908 285.042C545.916 284.998 545.928 284.954 545.94 284.909C547.811 279.168 545.287 273.515 541.956 270.455C539.239 267.963 536.017 267.137 533.316 268.241L510.496 282.139C509.443 283.292 509.407 287.381 511.375 290.493C512.669 292.538 515.132 294.618 519.527 292.921L526.752 289.425C527.139 289.235 527.603 289.304 527.925 289.59C528.248 289.876 528.365 290.332 528.22 290.739C528.187 290.832 524.942 300.226 526.926 307.488C527.083 308.056 526.748 308.641 526.18 308.798C525.611 308.955 525.027 308.621 524.869 308.052C523.321 302.4 524.595 295.836 525.502 292.4L520.414 294.86C520.39 294.872 520.362 294.884 520.337 294.892C515.898 296.622 511.975 295.436 509.572 291.634C507.218 287.913 506.988 282.51 509.101 280.523C509.153 280.47 509.213 280.426 509.278 280.389L532.28 266.383C532.324 266.354 532.369 266.33 532.417 266.31C535.921 264.826 540.025 265.79 543.396 268.887C547.218 272.394 550.109 278.886 547.988 285.506L543.21 310.633L555.096 333.808C555.366 334.332 555.157 334.973 554.633 335.243C554.475 335.32 554.306 335.36 554.145 335.36Z" fill="#1A1B22"/>
<path d="M510.309 356.838C509.894 356.838 509.499 356.592 509.326 356.185L497.625 328.256C495.859 329.28 494.033 329.566 492.182 329.111C486.727 327.772 483.09 320.297 482.764 319.608L478.244 311.58C478.236 311.568 478.228 311.552 478.224 311.54C473.998 303.21 473.079 297.13 475.49 293.465C477.139 290.957 479.861 290.304 481.445 290.143C481.195 286.756 482.014 283.958 483.88 281.813C486.792 278.462 491.396 277.736 493.307 277.575C495.158 269.818 501.52 267.846 504.524 267.346L493.057 242.857C493.049 242.836 493.037 242.816 493.033 242.796C491.106 237.914 493.174 232.426 497.847 230.031C500.298 228.777 503.084 228.568 505.693 229.438C508.302 230.309 510.402 232.156 511.604 234.632L528.735 269.907C528.993 270.435 528.771 271.072 528.243 271.33C527.715 271.588 527.078 271.366 526.82 270.838L509.689 235.563C508.737 233.607 507.08 232.152 505.016 231.462C502.955 230.773 500.754 230.938 498.815 231.93C495.133 233.817 493.497 238.135 495 241.986L507.084 267.79C507.237 268.12 507.213 268.503 507.019 268.81C506.826 269.116 506.487 269.306 506.124 269.306C505.753 269.31 496.96 269.515 495.226 278.793C495.133 279.297 494.694 279.66 494.182 279.664C494.125 279.664 488.505 279.728 485.481 283.22C483.832 285.123 483.227 287.748 483.683 291.017C483.727 291.336 483.626 291.654 483.409 291.888C483.191 292.122 482.881 292.247 482.562 292.227C482.53 292.223 478.958 292.058 477.264 294.65C475.926 296.702 475.333 301.125 480.115 310.556L484.643 318.6C484.655 318.624 484.671 318.648 484.679 318.672C484.711 318.745 488.09 325.917 492.694 327.042C494.307 327.437 495.863 327.03 497.46 325.805C497.722 325.603 498.065 325.534 498.383 325.619C498.702 325.704 498.964 325.934 499.093 326.236L511.293 355.358C511.519 355.903 511.265 356.523 510.721 356.753C510.584 356.81 510.447 356.838 510.309 356.838Z" fill="#1A1B22"/>
<path d="M498.109 327.711C497.682 327.711 497.283 327.453 497.117 327.034C496.904 326.49 497.166 325.881 497.706 325.659C497.779 325.627 498.847 325.127 499.391 323.438C500.137 321.135 499.96 316.583 494.872 307.987C494.86 307.967 494.847 307.943 494.835 307.923L488.743 295.755C488.481 295.227 488.691 294.59 489.219 294.323C489.747 294.061 490.384 294.271 490.65 294.799L496.726 306.935C501.169 314.459 502.734 320.277 501.375 324.224C500.492 326.788 498.698 327.554 498.496 327.635C498.371 327.687 498.238 327.711 498.109 327.711Z" fill="#1A1B22"/>
<path d="M505.109 322.281C503.375 322.281 501.581 321.773 500.041 320.342C499.609 319.942 499.585 319.269 499.984 318.838C500.384 318.406 501.057 318.382 501.488 318.781C504.94 321.978 510.028 318.616 510.08 318.584C510.125 318.551 510.173 318.527 510.221 318.503C510.27 318.479 511.653 317.761 512.282 315.616C512.951 313.338 512.838 309.085 508.516 301.779C508.508 301.767 508.5 301.755 508.496 301.738L500.496 286.82C500.218 286.3 500.412 285.655 500.932 285.377C501.448 285.099 502.097 285.292 502.375 285.812L510.362 300.71C514.173 307.157 515.499 312.407 514.298 316.318C513.467 319.027 511.653 320.144 511.221 320.378C509.887 321.265 507.556 322.277 505.109 322.281Z" fill="#1A1B22"/>
<path d="M517.002 316.559C514.89 316.559 513.285 316.031 513.172 315.995C512.616 315.805 512.313 315.204 512.503 314.644C512.688 314.088 513.293 313.785 513.85 313.975C513.914 313.995 517.837 315.253 521.006 313.467C522.913 312.39 524.207 310.394 524.853 307.54C524.982 306.967 525.55 306.604 526.127 306.737C526.699 306.866 527.062 307.439 526.929 308.012C526.143 311.487 524.494 313.951 522.034 315.333C520.345 316.281 518.543 316.559 517.002 316.559Z" fill="#1A1B22"/>
<path d="M525.442 306.625C525.042 306.625 524.659 306.399 524.478 306.012L518.986 294.356C518.737 293.824 518.962 293.191 519.495 292.937C520.027 292.687 520.66 292.912 520.914 293.445L526.405 305.101C526.655 305.633 526.429 306.266 525.897 306.52C525.748 306.588 525.595 306.625 525.442 306.625Z" fill="#1A1B22"/>
<path d="M532.09 322.922C531.634 322.922 531.211 322.627 531.07 322.168C530.896 321.603 531.215 321.011 531.775 320.837C539.266 318.547 541.028 310.657 541.045 310.576C541.166 310.004 541.73 309.633 542.307 309.754C542.883 309.875 543.25 310.439 543.129 311.012C543.052 311.387 541.117 320.208 532.396 322.873C532.299 322.906 532.195 322.922 532.09 322.922Z" fill="#1A1B22"/>
<path d="M527.211 291.453C526.869 291.453 526.534 291.288 526.328 290.982C525.998 290.494 526.127 289.833 526.615 289.502L535.694 283.382C536.182 283.055 536.843 283.18 537.174 283.668C537.505 284.156 537.376 284.817 536.888 285.147L527.808 291.268C527.623 291.397 527.417 291.453 527.211 291.453Z" fill="#1A1B22"/>
<path d="M512.322 280.849C511.943 280.849 511.576 280.648 511.382 280.289L508.576 275.092C508.298 274.576 508.492 273.926 509.008 273.648C509.524 273.37 510.173 273.56 510.451 274.08L513.257 279.277C513.535 279.793 513.342 280.442 512.826 280.72C512.665 280.809 512.491 280.849 512.322 280.849Z" fill="#1A1B22"/>
<path d="M501.528 335.872C501.165 335.872 500.815 335.687 500.613 335.356C500.311 334.852 500.472 334.199 500.976 333.893L508.6 329.312C509.104 329.01 509.757 329.171 510.064 329.675C510.366 330.179 510.205 330.832 509.701 331.139L502.077 335.719C501.903 335.824 501.714 335.872 501.528 335.872Z" fill="#1A1B22"/>
<path d="M615.68 459.224C615.627 459.224 615.571 459.22 615.518 459.212C614.938 459.123 614.539 458.579 614.627 457.998L624.401 393.911C622.389 390.48 607.527 364.192 614.7 347.597C614.934 347.057 615.559 346.807 616.099 347.041C616.639 347.274 616.889 347.899 616.655 348.44C609.567 364.833 626.251 392.859 626.421 393.141C626.55 393.355 626.598 393.605 626.562 393.851L616.728 458.317C616.651 458.849 616.2 459.224 615.68 459.224Z" fill="#1A1B22"/>
<path d="M604.345 410.954C604.003 410.954 603.664 410.789 603.458 410.478L579.852 375.066C579.525 374.578 579.658 373.913 580.146 373.59C580.634 373.264 581.299 373.397 581.622 373.885L605.228 409.297C605.555 409.785 605.422 410.45 604.934 410.772C604.757 410.893 604.551 410.954 604.345 410.954Z" fill="#1A1B22"/>
<path d="M789.167 406.648C788.953 406.648 788.736 406.583 788.55 406.45L741.615 372.885L717.323 354.157C716.855 353.798 716.77 353.129 717.129 352.661C717.488 352.193 718.157 352.108 718.625 352.467L742.885 371.175L788.969 404.128L805.061 383.985C805.428 383.525 806.097 383.448 806.556 383.819C807.016 384.186 807.093 384.855 806.722 385.315L790.002 406.245C789.792 406.511 789.481 406.648 789.167 406.648Z" fill="#1A1B22"/>
<path d="M625.512 393.694L650.341 399.665C650.341 399.665 627.545 401.463 622.662 412.394L625.512 393.694Z" fill="#1A1B22"/>
<path d="M622.659 413.458C622.558 413.458 622.457 413.446 622.356 413.413C621.844 413.264 621.522 412.756 621.602 412.232L624.453 393.536C624.497 393.242 624.662 392.98 624.912 392.815C625.158 392.649 625.465 392.593 625.755 392.661L650.583 398.633C651.091 398.754 651.438 399.229 651.398 399.753C651.358 400.278 650.942 400.689 650.418 400.733C650.196 400.749 628.194 402.612 623.626 412.833C623.457 413.22 623.07 413.458 622.659 413.458ZM626.392 395L624.4 408.051C629.485 402.858 638.637 400.443 644.588 399.374L626.392 395Z" fill="#1A1B22"/>
<path d="M681.246 498.486C683.069 501.695 686.217 503.235 690.036 502.865C690.04 505.509 690.516 510.432 693.705 513.38C695.491 515.029 697.817 515.807 700.64 515.71C699.986 518.48 700.176 522.532 701.897 525.246C703.401 527.612 706.445 529.85 712.538 528.201C712.231 530.773 712.828 534.156 714.304 536.644C716.832 540.901 720.678 541.526 724.073 540.974C726.419 540.595 728.548 539.651 729.879 538.954C729.931 538.926 729.984 538.893 730.036 538.857L748.369 525.959C751.639 528.701 758.227 531.874 764.714 528.036C775.536 521.629 786.744 511.42 787.216 510.989C787.708 510.537 787.813 509.799 787.462 509.235C786.555 507.767 756.985 481.508 744.313 470.283C744.006 470.013 743.595 469.888 743.188 469.948C743.039 469.968 734.967 471.065 731.209 466.658C728.968 464.025 728.177 463.017 727.907 462.647C727.827 462.38 727.661 462.139 727.427 461.961C727.407 461.945 727.387 461.929 727.367 461.917C727.367 461.917 727.363 461.917 727.363 461.913C727.347 461.901 727.331 461.893 727.315 461.88C726.686 461.481 720.452 457.76 713.481 461.876L687.185 468.719C686.883 468.799 686.613 468.977 686.423 469.227C686.31 469.376 683.665 472.956 684.947 476.605C685.641 478.572 687.298 480.101 689.874 481.169C685.367 484.81 681.944 487.547 681.859 487.62C681.815 487.656 681.77 487.697 681.73 487.737C679.436 490.1 679.218 494.922 681.246 498.486Z" fill="white"/>
<path d="M722.234 540.841C721.54 540.841 720.875 540.772 720.238 540.631C717.919 540.127 716 538.696 714.678 536.486C713.126 533.89 712.537 530.305 712.968 527.778C706.771 529.628 703.719 527.443 702.231 525.121C700.715 522.75 700.598 519.843 700.667 518.319C700.703 517.424 700.84 516.359 701.098 515.42C698.163 515.621 695.764 514.884 693.95 513.218C690.684 510.223 690.321 505.07 690.353 502.59C686.511 503.094 683.33 501.623 681.508 498.442C679.536 494.998 679.717 490.354 681.911 488.084C681.943 488.051 681.975 488.023 682.008 487.995C682.237 487.809 704.981 469.493 710.747 464.235C714.992 460.364 719.19 459.998 721.959 460.368C724.737 460.739 726.653 461.905 726.995 462.126C727.027 462.147 727.064 462.171 727.096 462.195C727.294 462.344 727.423 462.546 727.479 462.767C727.737 463.122 728.515 464.122 730.846 466.836C734.765 471.4 743.042 470.206 743.127 470.194C743.711 470.101 744.252 470.509 744.34 471.089C744.429 471.67 744.03 472.214 743.445 472.303C743.058 472.363 733.906 473.674 729.229 468.223C727.753 466.505 726.701 465.243 726.1 464.469C725.919 464.235 725.733 463.997 725.588 463.759C724.27 462.997 718.383 460.159 712.182 465.807C706.509 470.976 684.669 488.584 683.398 489.604C681.915 491.204 681.887 494.817 683.354 497.377C684.253 498.946 686.471 501.409 691.228 500.256C691.563 500.175 691.922 500.26 692.18 500.49C692.442 500.72 692.575 501.058 692.539 501.401C692.531 501.47 691.861 508.412 695.393 511.65C697.079 513.194 699.53 513.67 702.679 513.061C703.147 512.972 703.614 513.202 703.832 513.626C704.046 514.049 703.953 514.565 703.606 514.888C702.945 515.557 701.969 520.907 704.102 524.08C705.913 526.774 709.428 527.064 714.553 524.947C715.057 524.737 715.641 524.947 715.899 525.427C716.158 525.911 716.008 526.507 715.557 526.814C714.835 527.366 714.416 532.12 716.641 535.603C718.996 539.293 723.193 539.696 728.781 536.773L747.925 523.217C748.348 522.919 748.925 522.967 749.292 523.33C749.574 523.609 756.279 530.104 763.532 525.778C774.12 519.468 785.462 509.066 785.574 508.965C786.006 508.566 786.683 508.594 787.078 509.025C787.478 509.457 787.449 510.134 787.018 510.529C786.901 510.634 775.398 521.181 764.625 527.608C761.016 529.761 756.948 529.955 752.86 528.169C750.84 527.29 749.296 526.137 748.469 525.443L729.959 538.551C729.922 538.579 729.882 538.603 729.838 538.623C727.044 540.103 724.495 540.841 722.234 540.841Z" fill="#1A1B22"/>
<path d="M746.966 526.27C746.627 526.27 746.292 526.109 746.087 525.806C745.752 525.322 745.877 524.657 746.361 524.327L757.061 516.976C757.545 516.646 758.211 516.767 758.541 517.251C758.876 517.734 758.751 518.4 758.267 518.73L747.566 526.08C747.385 526.209 747.175 526.27 746.966 526.27Z" fill="#1A1B22"/>
<path d="M714.892 526.947C714.577 526.947 714.267 526.81 714.057 526.544C713.69 526.085 713.771 525.411 714.231 525.048L744.308 501.216C744.381 501.159 744.462 501.111 744.55 501.071C744.804 500.962 750.804 498.454 755.973 502.534C756.436 502.897 756.513 503.57 756.15 504.03C755.787 504.494 755.114 504.57 754.654 504.208C750.824 501.188 746.292 502.687 745.51 502.982L715.553 526.717C715.36 526.871 715.126 526.947 714.892 526.947Z" fill="#1A1B22"/>
<path d="M703.421 514.057C703.106 514.057 702.796 513.92 702.586 513.654C702.219 513.195 702.3 512.521 702.759 512.158L732.837 488.326C732.91 488.269 732.99 488.221 733.079 488.181C733.333 488.072 739.333 485.564 744.501 489.644C744.965 490.007 745.042 490.681 744.679 491.14C744.316 491.604 743.643 491.68 743.183 491.318C739.333 488.282 734.849 489.781 734.039 490.092L704.082 513.828C703.884 513.981 703.654 514.057 703.421 514.057Z" fill="#1A1B22"/>
<path d="M694.043 502.188C693.728 502.188 693.418 502.05 693.208 501.784C692.841 501.325 692.922 500.651 693.381 500.289L723.459 476.456C723.532 476.4 723.612 476.351 723.701 476.311C723.955 476.202 729.955 473.694 735.123 477.775C735.587 478.137 735.664 478.811 735.301 479.27C734.938 479.734 734.265 479.811 733.805 479.448C729.955 476.412 725.471 477.912 724.661 478.222L694.704 501.958C694.506 502.111 694.272 502.188 694.043 502.188Z" fill="#1A1B22"/>
<path d="M692.728 481.673C692.639 481.673 692.555 481.661 692.466 481.641C688.539 480.641 686.112 478.895 685.253 476.456C684.027 472.969 686.571 469.525 686.68 469.38C686.825 469.187 687.031 469.05 687.265 468.989L713.742 462.099C714.311 461.949 714.895 462.292 715.04 462.861C715.189 463.429 714.847 464.014 714.278 464.159L688.192 470.949C687.716 471.707 686.579 473.815 687.269 475.759C687.882 477.48 689.805 478.762 692.994 479.577C693.562 479.722 693.909 480.303 693.764 480.871C693.635 481.355 693.204 481.673 692.728 481.673Z" fill="#1A1B22"/>
<path d="M625.513 232.507C625.331 232.507 625.15 232.463 624.985 232.366L609.434 223.455C608.922 223.161 608.744 222.512 609.039 222C609.333 221.488 609.982 221.314 610.494 221.605L626.045 230.515C626.557 230.81 626.735 231.459 626.44 231.971C626.239 232.313 625.88 232.507 625.513 232.507Z" fill="#1A1B22"/>
<path d="M607.164 240.748C606.591 240.748 606.12 240.296 606.099 239.72C606.079 239.131 606.539 238.639 607.128 238.619L618.973 238.212C619.55 238.187 620.054 238.651 620.074 239.24C620.094 239.828 619.634 240.32 619.046 240.34L607.2 240.748C607.188 240.748 607.176 240.748 607.164 240.748Z" fill="#1A1B22"/>
<path d="M609.962 260.27C609.619 260.27 609.281 260.105 609.075 259.798C608.749 259.311 608.878 258.649 609.365 258.319L622.917 249.239C623.404 248.912 624.066 249.041 624.396 249.529C624.723 250.017 624.594 250.678 624.106 251.009L610.555 260.089C610.369 260.214 610.164 260.27 609.962 260.27Z" fill="#1A1B22"/>
<path d="M743.841 465.61C743.599 465.61 743.353 465.525 743.151 465.356C742.704 464.977 742.647 464.304 743.026 463.856L757.799 446.438L740.047 383.626C740.011 383.497 739.999 383.36 740.011 383.226L741.168 371.909C741.228 371.324 741.756 370.901 742.337 370.957C742.922 371.018 743.349 371.542 743.289 372.127L742.152 383.243L760.001 446.402C760.097 446.745 760.017 447.112 759.787 447.382L744.647 465.235C744.446 465.481 744.143 465.61 743.841 465.61Z" fill="#1A1B22"/>
<path d="M669.638 515.234C651.192 515.234 636.528 503.747 635.835 503.195C635.375 502.828 635.298 502.159 635.665 501.699C636.032 501.24 636.701 501.163 637.161 501.53C637.343 501.675 655.748 516.069 676.472 512.533C677.057 512.44 677.601 512.823 677.702 513.404C677.798 513.984 677.411 514.533 676.831 514.634C674.387 515.049 671.98 515.234 669.638 515.234Z" fill="#1A1B22"/>
<path d="M662.546 581.539C661.957 581.539 661.482 581.063 661.482 580.474V513.582C661.482 512.993 661.957 512.517 662.546 512.517C663.135 512.517 663.61 512.993 663.61 513.582V580.474C663.614 581.059 663.135 581.539 662.546 581.539Z" fill="#1A1B22"/>
<path d="M164.576 319.7C164.54 319.7 164.508 319.7 164.471 319.696C159.25 319.188 154.936 317.466 151.658 314.587C148.804 312.079 146.913 308.822 146.195 305.169C145.01 299.145 147.356 293.263 151.9 290.864C154.472 289.505 157.262 289.36 160.194 290.436C160.746 290.638 161.028 291.251 160.827 291.803C160.625 292.355 160.012 292.638 159.46 292.436C157.117 291.577 154.908 291.682 152.896 292.747C149.175 294.71 147.28 299.649 148.287 304.758C148.816 307.439 151.557 316.293 164.681 317.575C165.266 317.631 165.693 318.151 165.637 318.74C165.58 319.288 165.117 319.7 164.576 319.7Z" fill="#1A1B22"/>
<path d="M210.83 346.315C204.081 346.315 195.078 343.359 183.595 333.816C183.143 333.441 183.079 332.768 183.458 332.316C183.833 331.864 184.506 331.8 184.958 332.179C201.605 346.016 212.503 345.416 218.713 342.476C226.135 338.96 229.47 330.881 229.425 324.861L229.522 298.259C229.526 297.67 230.002 297.198 230.586 297.198H230.59C231.179 297.202 231.655 297.678 231.651 298.267L231.554 324.861C231.602 331.526 227.889 340.493 219.624 344.408C217.293 345.5 214.37 346.315 210.83 346.315Z" fill="#1A1B22"/>
<path d="M159.073 367.28C158.936 367.28 158.851 367.272 158.835 367.272C158.25 367.216 157.819 366.696 157.875 366.111C157.932 365.53 158.448 365.103 159.025 365.151C159.097 365.155 160.291 365.216 161.411 364.172C162.786 362.89 163.512 360.438 163.512 357.084V318.64C163.512 318.051 163.988 317.575 164.576 317.575C165.165 317.575 165.641 318.051 165.641 318.64V357.084C165.641 361.148 164.685 364.075 162.806 365.784C161.311 367.139 159.674 367.28 159.073 367.28Z" fill="#1A1B22"/>
<path d="M219.305 372.167C218.297 372.167 217.362 372.038 216.507 371.78C211.052 370.135 210.79 364.083 210.782 363.829V345.637C210.782 345.048 211.257 344.573 211.846 344.573C212.435 344.573 212.911 345.048 212.911 345.637V363.793C212.919 363.95 213.144 368.538 217.124 369.74C218.047 370.018 219.132 370.103 220.337 369.986C220.926 369.933 221.446 370.357 221.502 370.941C221.559 371.526 221.132 372.046 220.547 372.106C220.124 372.147 219.708 372.167 219.305 372.167Z" fill="#1A1B22"/>
<path d="M158.928 283.925C160.42 286.865 160.464 289.376 159.823 291.437C163.621 292.828 166.838 296.17 168.568 298.255H169.1C167.709 294.799 166.028 287.598 176.39 287.869C189.997 288.223 199.666 263.157 199.666 263.157C210.77 284.647 230.647 281.422 230.647 281.422L230.582 298.251C249.859 295.033 239.243 271.39 239.243 271.39C239.243 271.39 253.242 264.794 236.05 248.679C218.858 232.563 185.522 252.586 185.522 252.586C158.577 248.255 154.19 274.616 158.928 283.925Z" fill="#1A1B22"/>
<path d="M230.586 299.319C230.337 299.319 230.091 299.23 229.897 299.065C229.659 298.863 229.522 298.565 229.522 298.25L229.583 282.607C227.667 282.74 223.72 282.76 219.023 281.373C213.378 279.704 205.621 275.611 199.799 265.612C197.114 271.704 188.478 288.941 176.68 288.941C176.575 288.941 176.471 288.941 176.366 288.937C173.047 288.852 170.85 289.545 169.834 291.009C168.459 292.989 169.407 296.15 170.092 297.855C170.225 298.182 170.185 298.557 169.987 298.851C169.79 299.145 169.459 299.319 169.104 299.319H168.572C168.254 299.319 167.955 299.178 167.754 298.936C166.213 297.081 163.089 293.767 159.46 292.44C158.928 292.247 158.642 291.666 158.811 291.122C159.46 289.029 159.182 286.772 157.98 284.413C155.069 278.696 155.44 267.709 161.109 259.927C164.746 254.936 171.89 249.448 185.312 251.484C186.998 250.509 194.606 246.267 204.049 243.574C218.144 239.55 229.462 241.05 236.779 247.912C243.384 254.105 246.339 259.738 245.561 264.653C244.936 268.612 242.073 270.91 240.586 271.858C241.807 274.942 245.335 285.195 241.46 292.432C239.473 296.142 235.872 298.46 230.756 299.311C230.703 299.315 230.643 299.319 230.586 299.319ZM230.651 280.357C230.901 280.357 231.147 280.446 231.344 280.611C231.582 280.812 231.719 281.111 231.719 281.425L231.659 296.952C235.429 296.073 238.09 294.214 239.59 291.416C243.614 283.905 238.328 271.946 238.275 271.825C238.037 271.297 238.267 270.672 238.791 270.426C238.828 270.41 242.819 268.455 243.464 264.29C244.101 260.173 241.287 255.045 235.324 249.456C226.809 241.473 213.935 242.961 204.637 245.614C194.408 248.533 186.159 253.452 186.079 253.5C185.865 253.629 185.607 253.678 185.361 253.638C172.757 251.609 166.157 256.617 162.835 261.173C158.775 266.745 156.618 277.022 159.883 283.437C161.17 285.969 161.577 288.437 161.093 290.795C163.427 291.844 165.508 293.525 167.113 295.093C166.842 293.267 166.996 291.36 168.084 289.787C169.536 287.695 172.346 286.691 176.422 286.8C189.115 287.122 198.581 263.012 198.678 262.77C198.827 262.379 199.194 262.113 199.614 262.088C200.037 262.06 200.424 262.29 200.618 262.665C205.085 271.309 211.479 276.914 219.628 279.325C225.684 281.115 230.433 280.377 230.482 280.369C230.538 280.361 230.595 280.357 230.651 280.357Z" fill="#1A1B22"/>
<path d="M46.3895 457.977L121.298 481.483L107.601 529.023L257.471 551.646V479.657L323.932 477.617C323.932 477.617 313.465 378.573 266.333 374.32L220.438 371.042C220.438 371.042 215.966 394.116 186.594 390.649C157.762 387.25 158.927 366.208 158.927 366.208L100.465 378.473C100.465 378.473 81.8418 377.759 67.5125 407.841L46.3895 457.977Z" fill="#73E9E7"/>
<path opacity="0.5" d="M45.5192 486.044C36.7176 486.044 28.7788 482.596 24.1744 476.75C23.8115 476.286 23.8922 475.617 24.3518 475.254C24.8155 474.891 25.4848 474.968 25.8476 475.432C30.1577 480.907 37.7417 484.06 46.1562 483.903C54.2361 483.737 62.0257 480.762 68.5775 477.871C76.7501 474.266 87.0718 469.029 94.4219 460.477C102.457 451.131 106.147 438.77 108.695 427.916C109.429 424.795 110.146 421.477 110.711 418.046C102.796 421.396 93.3897 422.928 82.04 422.735C77.7097 422.658 73.1214 422.344 68.8839 420.574C64.0658 418.562 59.8848 414.663 57.1068 409.599C54.1031 404.128 53.0588 397.495 54.1635 390.927C55.2683 384.359 58.4252 378.437 63.0538 374.248C67.6824 370.058 73.8875 367.502 80.5321 367.055C87.1726 366.607 93.672 368.3 98.8207 371.832C106.707 377.239 112.065 386.831 113.529 398.153C114.235 403.62 114.037 409.127 113.384 414.425C124.367 408.627 138.418 395.375 145.828 365.115C154.11 331.308 141.547 316.523 135.765 311.737C135.313 311.362 135.249 310.689 135.624 310.237C135.999 309.786 136.672 309.721 137.124 310.096C155.416 325.236 150.755 353.971 147.901 365.623C140.002 397.878 124.596 411.361 113.037 416.994C112.436 420.977 111.618 424.819 110.775 428.404C108.167 439.512 104.377 452.172 96.0427 461.868C88.4144 470.747 77.8186 476.125 69.4444 479.822C62.699 482.798 54.6595 485.866 46.2046 486.035C45.9708 486.04 45.745 486.044 45.5192 486.044ZM82.6448 369.139C76.0204 369.139 69.3678 371.409 64.4892 375.824C55.6957 383.787 53.2765 398.169 58.9816 408.571C61.5298 413.212 65.3399 416.776 69.7105 418.606C73.6174 420.239 77.9637 420.529 82.0803 420.602C93.7123 420.812 103.215 419.151 111.09 415.55C111.864 409.978 112.158 404.156 111.416 398.419C110.033 387.698 105.002 378.646 97.6192 373.586C93.2647 370.603 87.9628 369.139 82.6448 369.139Z" fill="white"/>
<path opacity="0.5" d="M65.3197 595.714C65.3157 595.714 65.3157 595.714 65.3117 595.714C64.723 595.71 64.2513 595.23 64.2513 594.642C64.3682 576.692 68.388 558.294 75.8752 541.445C83.3624 524.592 94.3211 509.279 107.562 497.163C118.944 486.749 132.523 478.225 147.195 472.246C151.485 433.83 169.778 397.712 198.291 373.453C209.46 363.949 222.543 355.728 238.288 348.322C264.313 336.081 289.17 330.36 312.168 331.327C339.641 332.477 364.554 343.572 380.512 361.772C380.899 362.216 380.855 362.889 380.415 363.276C379.972 363.663 379.299 363.619 378.912 363.179C363.336 345.419 338.976 334.585 312.083 333.46C289.432 332.509 264.91 338.162 239.199 350.257C223.628 357.579 210.701 365.699 199.674 375.081C171.85 398.753 153.9 433.899 149.445 471.359C151.11 470.714 152.791 470.101 154.481 469.524C171.931 463.557 190.61 461.182 208.5 462.654C222.874 463.835 233.977 467.355 242.44 473.415C253.326 481.205 260.302 493.837 261.104 507.198C261.906 520.56 256.491 533.934 246.617 542.973C230.284 557.927 206.125 557.766 193.175 556.343C186.312 555.585 176.237 553.952 168.048 548.489C155.9 540.389 148.756 525.172 146.82 503.267C145.978 493.712 146.034 484.144 146.941 474.701C133.015 480.499 120.073 488.611 109.001 498.743C82.5479 522.951 66.6139 558.81 66.3801 594.666C66.3801 595.238 65.9043 595.714 65.3197 595.714ZM149.175 473.782C148.179 483.454 148.082 493.268 148.949 503.065C150.824 524.297 157.65 538.978 169.237 546.703C177.039 551.904 186.772 553.48 193.413 554.21C222.741 557.444 238.437 547.561 245.182 541.389C254.584 532.78 259.745 520.04 258.979 507.315C258.213 494.59 251.569 482.559 241.203 475.141C233.062 469.315 222.309 465.92 208.327 464.771C188.341 463.122 167.919 466.367 149.175 473.782Z" fill="white"/>
<path d="M192.155 392.008C190.86 392.008 189.53 391.963 188.163 391.879C176.761 391.173 168.363 387.734 163.194 381.662C157.122 374.53 157.843 366.442 157.876 366.103C157.932 365.518 158.452 365.091 159.041 365.147C159.625 365.204 160.053 365.728 159.996 366.313C159.988 366.385 159.347 373.884 164.839 380.311C169.621 385.907 177.511 389.085 188.292 389.75C199.323 390.435 207.686 388.274 213.145 383.323C219.063 377.957 219.378 371.07 219.378 371.002C219.398 370.413 219.898 369.953 220.479 369.974C221.067 369.994 221.527 370.486 221.507 371.07C221.499 371.385 221.188 378.876 214.612 384.867C209.407 389.613 201.863 392.008 192.155 392.008Z" fill="#1A1B22"/>
<path d="M185.808 334.287C185.808 334.287 194.658 353.583 211.846 353.047V346.334C211.85 346.334 196.836 345.076 185.808 334.287Z" fill="#1A1B22"/>
<path d="M211.164 354.124C204.076 354.124 197.327 350.838 191.598 344.589C187.175 339.763 184.933 334.937 184.84 334.731C184.627 334.263 184.776 333.711 185.195 333.417C185.614 333.122 186.187 333.167 186.554 333.525C197.186 343.924 211.789 345.258 211.939 345.27C212.491 345.315 212.914 345.778 212.914 346.331V353.048C212.914 353.624 212.459 354.096 211.882 354.112C211.64 354.12 211.402 354.124 211.164 354.124ZM189.957 339.122C193.71 344.416 200.738 351.806 210.781 351.987V347.278C207.79 346.883 198.561 345.214 189.957 339.122Z" fill="#1A1B22"/>
<path d="M162.605 310.778C162.069 310.778 161.609 310.374 161.549 309.83C161.544 309.81 161.303 307.766 160.258 305.685C158.932 303.049 156.972 301.565 154.428 301.279C153.844 301.214 153.424 300.686 153.489 300.101C153.553 299.517 154.077 299.097 154.666 299.162C160.948 299.867 163.298 306.294 163.665 309.592C163.73 310.177 163.306 310.705 162.722 310.77C162.681 310.778 162.641 310.778 162.605 310.778Z" fill="#1A1B22"/>
<path d="M217.422 330.578C207.56 330.578 206.383 321.962 206.375 321.869C206.302 321.284 206.717 320.752 207.302 320.684C207.887 320.611 208.419 321.026 208.487 321.611C208.528 321.913 209.572 329.098 218.656 328.401C219.24 328.356 219.756 328.796 219.801 329.38C219.845 329.969 219.406 330.481 218.821 330.525C218.337 330.562 217.87 330.578 217.422 330.578Z" fill="#1A1B22"/>
<path d="M218.103 320.458C216.305 320.458 214.785 319.603 214.705 319.559C214.192 319.264 214.019 318.615 214.309 318.103C214.604 317.591 215.253 317.418 215.765 317.708C215.781 317.716 217.567 318.708 219.063 318.172C219.853 317.89 220.442 317.22 220.865 316.132C221.47 314.583 221.188 313.031 220.031 311.523C219.087 310.294 217.906 309.552 217.894 309.548C217.579 309.354 217.386 309.007 217.386 308.64V301.476C217.386 300.887 217.861 300.411 218.45 300.411C219.039 300.411 219.515 300.887 219.515 301.476V308.068C221.587 309.56 224.405 312.89 222.845 316.902C222.192 318.587 221.151 319.692 219.756 320.184C219.204 320.385 218.64 320.458 218.103 320.458Z" fill="#1A1B22"/>
<path d="M206.141 305.243C207.357 305.144 208.175 303.006 207.968 300.467C207.761 297.928 206.607 295.95 205.391 296.049C204.174 296.148 203.356 298.287 203.564 300.826C203.771 303.365 204.924 305.343 206.141 305.243Z" fill="#1A1B22"/>
<path d="M225.328 303.68C226.545 303.58 227.363 301.442 227.156 298.903C226.948 296.364 225.795 294.386 224.578 294.485C223.362 294.584 222.544 296.723 222.751 299.262C222.958 301.801 224.112 303.779 225.328 303.68Z" fill="#1A1B22"/>
<path d="M198.327 296.605C198.178 296.605 198.025 296.573 197.88 296.508C197.344 296.262 197.114 295.629 197.36 295.093C199.017 291.505 202.823 291.408 204.609 291.859C205.178 292.004 205.524 292.581 205.379 293.154C205.234 293.722 204.657 294.065 204.089 293.928C203.944 293.891 200.617 293.121 199.295 295.988C199.114 296.375 198.727 296.605 198.327 296.605Z" fill="#1A1B22"/>
<path d="M228.493 294.194C228.215 294.194 227.937 294.085 227.731 293.871C224.869 290.928 222.708 292.041 222.619 292.089C222.107 292.363 221.462 292.186 221.176 291.678C220.889 291.17 221.055 290.533 221.559 290.243C221.704 290.158 225.187 288.194 229.26 292.384C229.671 292.807 229.659 293.48 229.239 293.891C229.03 294.093 228.76 294.194 228.493 294.194Z" fill="#1A1B22"/>
<path d="M256.668 480.726C256.576 480.726 256.487 480.713 256.394 480.689C255.926 480.564 255.604 480.141 255.604 479.661V415.413C255.604 414.824 256.08 414.349 256.668 414.349C257.257 414.349 257.733 414.824 257.733 415.413V475.665L267.643 458.401C267.937 457.889 268.587 457.716 269.099 458.006C269.611 458.3 269.784 458.949 269.494 459.461L257.596 480.193C257.398 480.528 257.043 480.726 256.668 480.726Z" fill="#1A1B22"/>
<path d="M211.85 491.635C211.543 491.635 211.237 491.502 211.027 491.244L166.439 436.991C166.064 436.536 166.132 435.866 166.584 435.491C167.039 435.116 167.709 435.185 168.084 435.636L212.672 489.894C213.047 490.349 212.979 491.018 212.527 491.393C212.325 491.559 212.088 491.635 211.85 491.635Z" fill="#1A1B22"/>
<path d="M195.912 491.636C195.606 491.636 195.299 491.503 195.089 491.245L173.801 465.34C173.426 464.884 173.495 464.215 173.946 463.84C174.402 463.465 175.071 463.534 175.446 463.985L196.734 489.89C197.109 490.346 197.041 491.015 196.589 491.39C196.388 491.559 196.15 491.636 195.912 491.636Z" fill="#1A1B22"/>
<path d="M42.3261 583.059H183.756C183.756 583.059 199.126 594.118 211.665 597.344L228.764 635.13C233.691 645.371 254.818 648.29 254.818 634.594C258.04 647.488 280.336 652.588 278.723 635.13C286.336 650.71 312.482 648.202 304.338 631.59L291.347 597.344L280.852 583.131H308.184C317.494 583.159 325.191 568.249 306.515 560.682L272.732 557.238C272.732 557.238 250.351 549.251 225.245 545.195L107.602 529.08L121.303 481.536L46.3821 458.034L28.6257 511.352C28.6257 511.352 -3.60112 581.45 42.3261 583.059Z" fill="white"/>
<path d="M270.191 647.351C264.781 647.351 258.366 643.944 255.253 638.441C254.145 641.533 251.625 643.67 247.98 644.505C241.234 646.045 231.175 642.537 227.808 635.542L210.907 598.198C199.214 595.025 185.607 585.623 183.421 584.079H42.3336C32.2297 583.724 25.0046 580.103 20.8235 573.318C15.5942 564.835 15.1708 551.719 19.5656 534.329C22.6863 521.976 27.2625 511.751 27.6455 510.912L45.3817 457.647C45.5672 457.09 46.172 456.788 46.7284 456.974C47.2848 457.159 47.5872 457.764 47.4017 458.32L29.6493 511.638C29.6372 511.674 29.6211 511.71 29.605 511.747C29.4155 512.158 10.8487 553.078 22.6379 572.201C26.4238 578.341 33.0643 581.623 42.374 581.95H183.76C183.982 581.95 184.199 582.018 184.381 582.151C184.534 582.26 199.738 593.134 211.931 596.267C212.245 596.348 212.503 596.565 212.636 596.86L229.736 634.643C232.151 639.666 240.271 644.077 247.5 642.428C250.355 641.779 253.753 639.884 253.753 634.546C253.753 634.01 254.157 633.554 254.689 633.489C255.225 633.425 255.721 633.768 255.854 634.288C257.322 640.162 264.756 646.287 271.788 645.093C276.098 644.359 278.187 640.84 277.663 635.179C277.614 634.667 277.941 634.195 278.437 634.054C278.933 633.917 279.457 634.151 279.683 634.61C282.944 641.291 289.452 644.037 294.455 644.38C298.661 644.67 302.156 643.384 303.797 640.944C305.297 638.715 305.152 635.622 303.382 632.006C303.366 631.977 303.354 631.945 303.342 631.913L290.407 597.807L273.034 574.289C272.683 573.818 272.784 573.148 273.26 572.797C273.731 572.447 274.401 572.547 274.752 573.023L292.21 596.658C292.266 596.735 292.314 596.823 292.351 596.912L305.317 631.107C307.978 636.562 306.922 640.11 305.567 642.126C303.495 645.206 299.286 646.839 294.31 646.5C289.597 646.174 283.682 643.936 279.747 638.759C279.154 643.388 276.465 646.448 272.147 647.182C271.518 647.299 270.865 647.351 270.191 647.351Z" fill="#1A1B22"/>
<path d="M308.212 584.143C308.204 584.143 308.192 584.143 308.184 584.143H280.852C280.263 584.143 279.787 583.667 279.787 583.079C279.787 582.49 280.263 582.014 280.852 582.014H308.188C308.196 582.014 308.204 582.014 308.212 582.014C312.212 582.014 315.957 578.853 316.752 574.809C317.235 572.346 317.175 566.149 306.261 561.674L272.627 558.246C272.542 558.238 272.457 558.218 272.377 558.19C272.155 558.109 249.798 550.191 225.079 546.195L107.465 530.084C107.158 530.043 106.884 529.87 106.715 529.608C106.545 529.346 106.497 529.027 106.586 528.733L120.282 481.193C120.286 481.177 120.29 481.165 120.294 481.149L136.555 432.71C136.74 432.153 137.345 431.851 137.905 432.04C138.462 432.226 138.764 432.831 138.575 433.391L122.318 481.81L108.968 528.144L225.389 544.09C249.375 547.965 271.131 555.497 272.965 556.142L306.627 559.573C306.728 559.585 306.825 559.609 306.918 559.646C315.606 563.165 320.062 568.991 318.84 575.225C317.856 580.228 313.191 584.143 308.212 584.143Z" fill="#1A1B22"/>
<path d="M82.3826 533.346C81.8544 533.346 81.3948 532.955 81.3262 532.418C81.2496 531.834 81.6649 531.302 82.2455 531.225L107.465 527.971C108.05 527.899 108.582 528.31 108.658 528.89C108.735 529.471 108.32 530.007 107.739 530.084L82.5197 533.338C82.4713 533.346 82.4269 533.346 82.3826 533.346Z" fill="#1A1B22"/>
<path d="M278.731 636.143C278.268 636.143 277.84 635.836 277.707 635.369L269.244 605.609L257.503 586.756C257.193 586.256 257.346 585.599 257.846 585.289C258.346 584.978 259.003 585.131 259.314 585.631L271.131 604.613C271.183 604.698 271.224 604.791 271.252 604.883L279.759 634.788C279.921 635.352 279.594 635.945 279.026 636.102C278.925 636.131 278.824 636.143 278.731 636.143Z" fill="#1A1B22"/>
<path d="M254.762 636.143C254.298 636.143 253.871 635.836 253.738 635.369L245.275 605.609L233.534 586.756C233.223 586.256 233.376 585.599 233.876 585.289C234.376 584.978 235.034 585.131 235.344 585.631L247.162 604.613C247.214 604.698 247.254 604.791 247.282 604.883L255.79 634.788C255.951 635.352 255.624 635.945 255.056 636.102C254.959 636.131 254.858 636.143 254.762 636.143Z" fill="#1A1B22"/>
<path d="M183.76 584.075C183.219 584.075 182.76 583.668 182.703 583.119C181.409 570.697 188.916 567.431 189.239 567.302C189.783 567.076 190.404 567.334 190.63 567.879C190.856 568.419 190.598 569.04 190.057 569.27C189.783 569.387 183.699 572.148 184.82 582.902C184.881 583.486 184.457 584.01 183.873 584.071C183.832 584.075 183.796 584.075 183.76 584.075Z" fill="#1A1B22"/>
<path d="M149.533 584.075H124.822C124.475 584.075 124.152 583.909 123.955 583.627C123.753 583.345 123.705 582.986 123.818 582.66L140.981 533.386C141.151 532.898 141.647 532.604 142.159 532.684L164.209 536.257C164.516 536.305 164.786 536.486 164.947 536.749C165.108 537.011 165.149 537.333 165.056 537.627L150.553 583.329C150.408 583.776 149.997 584.075 149.533 584.075ZM126.321 581.946H148.755L162.649 538.164L142.699 534.93L126.321 581.946Z" fill="#1A1B22"/>
<path d="M144.429 574.236C152.2 574.236 158.5 567.936 158.5 560.165C158.5 552.394 152.2 546.094 144.429 546.094C136.657 546.094 130.357 552.394 130.357 560.165C130.357 567.936 136.657 574.236 144.429 574.236Z" fill="white"/>
<path d="M144.429 575.297C136.083 575.297 129.293 568.508 129.293 560.162C129.293 551.816 136.083 545.026 144.429 545.026C152.775 545.026 159.565 551.816 159.565 560.162C159.565 568.512 152.775 575.297 144.429 575.297ZM144.429 547.159C137.26 547.159 131.426 552.993 131.426 560.162C131.426 567.33 137.26 573.164 144.429 573.164C151.598 573.164 157.432 567.33 157.432 560.162C157.432 552.993 151.602 547.159 144.429 547.159Z" fill="#1A1B22"/>
<path d="M150.876 562.814C150.792 562.814 150.707 562.802 150.622 562.782L144.175 561.198C143.623 561.061 143.272 560.512 143.385 559.952L144.998 551.973C145.115 551.396 145.675 551.021 146.252 551.138C146.828 551.255 147.203 551.815 147.086 552.392L145.675 559.367L151.13 560.71C151.703 560.851 152.049 561.427 151.908 562C151.791 562.492 151.356 562.814 150.876 562.814Z" fill="#1A1B22"/>
<path d="M331.432 571.108C330.884 571.108 330.416 570.685 330.372 570.128L322.876 477.705C322.828 477.121 323.267 476.605 323.852 476.556C324.441 476.516 324.953 476.947 325.001 477.532L332.496 569.955C332.545 570.539 332.105 571.056 331.521 571.104C331.488 571.104 331.46 571.108 331.432 571.108Z" fill="#1A1B22"/>
<path d="M201.335 313.18C193.921 313.18 187.885 306.483 187.885 298.254C187.885 290.025 193.917 283.328 201.335 283.328C208.75 283.328 214.786 290.025 214.786 298.254C214.786 306.483 208.754 313.18 201.335 313.18ZM201.335 285.457C195.094 285.457 190.018 291.198 190.018 298.254C190.018 305.31 195.094 311.051 201.335 311.051C207.577 311.051 212.653 305.31 212.653 298.254C212.653 291.198 207.577 285.457 201.335 285.457Z" fill="#1A1B22"/>
<path d="M230.586 313.18C223.171 313.18 217.136 306.483 217.136 298.254C217.136 290.025 223.167 283.328 230.586 283.328C238.001 283.328 244.036 290.025 244.036 298.254C244.036 306.483 238.001 313.18 230.586 313.18ZM230.586 285.457C224.345 285.457 219.268 291.198 219.268 298.254C219.268 305.31 224.345 311.051 230.586 311.051C236.827 311.051 241.903 305.31 241.903 298.254C241.903 291.198 236.827 285.457 230.586 285.457Z" fill="#1A1B22"/>
<path d="M218.204 300.137H213.721C213.132 300.137 212.656 299.661 212.656 299.073C212.656 298.484 213.132 298.008 213.721 298.008H218.204C218.793 298.008 219.268 298.484 219.268 299.073C219.268 299.661 218.793 300.137 218.204 300.137Z" fill="#1A1B22"/>
<path d="M294.228 583.074H550.362L583.33 425.48C584.754 418.683 579.565 412.292 572.618 412.292H338.849C333.668 412.292 329.197 415.925 328.136 420.997L294.228 583.074Z" fill="#1A1B22"/>
<path d="M550.363 584.143H294.23C293.907 584.143 293.605 583.998 293.403 583.748C293.202 583.498 293.121 583.172 293.185 582.857L327.089 420.78C328.247 415.244 333.194 411.228 338.846 411.228H572.615C576.248 411.228 579.647 412.845 581.937 415.667C584.227 418.485 585.114 422.142 584.372 425.698L551.403 583.293C551.302 583.789 550.867 584.143 550.363 584.143ZM295.54 582.011H549.496L582.288 425.263C582.9 422.336 582.171 419.328 580.284 417.01C578.401 414.691 575.603 413.361 572.615 413.361H338.846C334.194 413.361 330.13 416.667 329.174 421.219L295.54 582.011Z" fill="#1A1B22"/>
<path d="M305.893 583.074H562.027L594.995 425.48C596.419 418.683 591.23 412.292 584.283 412.292H350.514C345.333 412.292 340.862 415.925 339.801 420.997L305.893 583.074Z" fill="white"/>
<path d="M562.026 584.143H305.893C305.57 584.143 305.268 583.998 305.066 583.748C304.865 583.498 304.784 583.171 304.849 582.857L338.753 420.779C339.91 415.243 344.857 411.228 350.51 411.228H584.278C587.911 411.228 591.31 412.844 593.6 415.663C595.89 418.481 596.777 422.138 596.035 425.694L563.067 583.288C562.966 583.788 562.53 584.143 562.026 584.143ZM307.203 582.01H561.16L593.951 425.263C594.564 422.335 593.834 419.328 591.947 417.009C590.064 414.691 587.266 413.36 584.278 413.36H350.51C345.857 413.36 341.793 416.667 340.837 421.219L307.203 582.01Z" fill="#1A1B22"/>
<path d="M579.496 438.821L552.826 561.818C551.705 566.987 547.128 570.676 541.839 570.676H335.18C328.032 570.676 322.698 564.092 324.185 557.097L350.441 433.592C351.546 428.391 356.146 424.674 361.464 424.69L568.538 425.194C575.694 425.218 581.012 431.826 579.496 438.821Z" fill="url(#paint1_linear_6766_37247)"/>
<path d="M455.068 523.237C466.598 523.237 475.945 513.89 475.945 502.36C475.945 490.83 466.598 481.483 455.068 481.483C443.538 481.483 434.191 490.83 434.191 502.36C434.191 513.89 443.538 523.237 455.068 523.237Z" fill="#F3F6F9"/>
<path d="M455.068 524.302C442.969 524.302 433.127 514.46 433.127 502.36C433.127 490.26 442.969 480.419 455.068 480.419C467.168 480.419 477.01 490.26 477.01 502.36C477.01 514.46 467.168 524.302 455.068 524.302ZM455.068 482.552C444.146 482.552 435.256 491.438 435.256 502.364C435.256 513.291 444.142 522.177 455.068 522.177C465.995 522.177 474.881 513.291 474.881 502.364C474.881 491.438 465.991 482.552 455.068 482.552Z" fill="#1A1B22"/>
<path d="M458.765 482.85C458.737 482.85 458.705 482.85 458.672 482.846C458.088 482.798 457.652 482.282 457.701 481.693C458.842 468.251 466.724 465.658 467.059 465.558C467.619 465.384 468.216 465.699 468.393 466.259C468.567 466.82 468.256 467.412 467.696 467.59C467.397 467.687 460.833 469.969 459.825 481.875C459.777 482.431 459.313 482.85 458.765 482.85Z" fill="#1A1B22"/>
<path d="M457.943 481.258C440.356 481.258 438.453 465.936 438.437 465.779C438.404 465.497 438.489 465.211 438.67 464.989C438.852 464.767 439.11 464.626 439.396 464.602C445.726 463.997 450.746 465.311 454.318 468.501C459.467 473.101 459.648 479.879 459.652 480.165C459.664 480.754 459.197 481.237 458.608 481.249C458.382 481.258 458.161 481.258 457.943 481.258ZM440.751 466.638C441.481 469.839 444.674 478.879 457.415 479.125C457.149 477.181 456.201 473.037 452.879 470.081C449.98 467.501 445.904 466.34 440.751 466.638Z" fill="#1A1B22"/>
<path d="M76.3143 584.074H1.66403C1.07537 584.074 0.599609 583.598 0.599609 583.01C0.599609 582.421 1.07537 581.945 1.66403 581.945H76.3143C76.903 581.945 77.3788 582.421 77.3788 583.01C77.3788 583.598 76.903 584.074 76.3143 584.074Z" fill="#1A1B22"/>
<path d="M874.268 584.143H562.027C561.438 584.143 560.962 583.667 560.962 583.078C560.962 582.489 561.438 582.014 562.027 582.014H874.268C874.856 582.014 875.332 582.489 875.332 583.078C875.332 583.663 874.856 584.143 874.268 584.143Z" fill="#1A1B22"/>
<path d="M916.018 284.61C915.812 284.61 915.602 284.55 915.417 284.425C914.941 284.102 914.812 283.461 915.119 282.973C915.139 282.941 915.227 282.804 915.389 282.582C917.651 279.163 918.207 273.196 918.215 273.135C918.267 272.551 918.775 272.115 919.372 272.168C919.957 272.22 920.392 272.736 920.34 273.321C920.324 273.486 920.11 275.812 919.384 278.49C921.348 276.865 924.069 275.026 927.698 273.361C928.234 273.115 928.867 273.353 929.109 273.885C929.355 274.421 929.121 275.05 928.585 275.296C921.312 278.631 917.945 282.707 917.126 283.82C917.046 283.941 916.965 284.058 916.88 284.171C916.667 284.457 916.344 284.61 916.018 284.61Z" fill="#1A1B22"/>
<path d="M837.553 291.799C837.219 291.799 836.888 291.642 836.682 291.347C834.191 287.828 828.909 286.275 828.853 286.259C828.288 286.098 827.961 285.505 828.123 284.941C828.284 284.376 828.873 284.05 829.437 284.211C829.594 284.255 832.054 284.973 834.566 286.582C833.34 283.562 831.929 279.615 831.485 276.498C831.401 275.917 831.808 275.377 832.388 275.292C832.977 275.208 833.509 275.615 833.594 276.196C834.372 281.626 838.469 290.182 838.509 290.267C838.751 290.767 838.565 291.368 838.09 291.646C837.924 291.755 837.739 291.799 837.553 291.799Z" fill="#1A1B22"/>
<path d="M883.763 432.813C883.194 432.813 882.722 432.366 882.698 431.789C882.69 431.568 881.827 409.352 883.424 383.274C885.569 348.168 890.895 323.158 899.257 308.938C899.555 308.43 900.209 308.261 900.717 308.559C901.225 308.857 901.394 309.51 901.096 310.018C881.529 343.302 884.795 430.822 884.831 431.705C884.855 432.293 884.396 432.789 883.811 432.813C883.791 432.813 883.779 432.813 883.763 432.813Z" fill="#1A1B22"/>
<path d="M893.278 453.97C896.217 435.544 910.179 431.75 910.179 431.75H883.408H856.636C856.636 431.75 870.598 435.544 873.538 453.97C876.477 472.396 844.125 528.874 866.167 583.079H883.408H900.648C922.686 528.874 890.338 472.396 893.278 453.97Z" fill="white"/>
<path d="M900.644 584.143H866.164C865.732 584.143 865.341 583.881 865.176 583.478C858.455 566.955 856.1 548.896 857.975 528.277C859.567 510.754 863.97 494.494 867.506 481.427C870.784 469.319 873.373 459.755 872.477 454.135C871.308 446.797 868.244 440.975 863.373 436.834C859.733 433.737 856.382 432.786 856.35 432.778C855.838 432.637 855.507 432.137 855.576 431.609C855.648 431.08 856.096 430.685 856.632 430.685H910.171C910.704 430.685 911.155 431.08 911.228 431.609C911.3 432.137 910.966 432.637 910.45 432.778C910.417 432.786 907.071 433.737 903.426 436.834C898.556 440.979 895.491 446.797 894.322 454.135C893.427 459.755 896.016 469.319 899.293 481.427C902.829 494.494 907.232 510.754 908.825 528.277C910.7 548.896 908.345 566.955 901.624 583.478C901.471 583.881 901.08 584.143 900.644 584.143ZM866.885 582.01H899.927C906.309 565.987 908.531 548.465 906.708 528.471C905.132 511.133 900.757 494.97 897.241 481.987C893.895 469.633 891.254 459.876 892.222 453.804C894.173 441.571 900.757 435.572 905.317 432.818H861.487C866.047 435.572 872.631 441.571 874.582 453.804C875.55 459.876 872.909 469.633 869.562 481.987C866.047 494.974 861.672 511.133 860.096 528.471C858.285 548.465 860.503 565.991 866.885 582.01Z" fill="#1A1B22"/>
<path d="M874.24 431.75C874.24 431.75 865.838 376.851 839.655 365.873C839.655 365.873 873.111 371.541 883.409 431.75H874.24Z" fill="white"/>
<path d="M883.408 432.814H874.239C873.715 432.814 873.268 432.431 873.187 431.911C873.102 431.367 864.571 377.476 839.243 366.857C838.743 366.647 838.481 366.099 838.63 365.578C838.779 365.058 839.299 364.736 839.831 364.824C840.186 364.885 848.621 366.397 858.394 375.452C874.566 390.439 881.497 414.239 884.46 431.568C884.513 431.879 884.428 432.193 884.226 432.435C884.017 432.677 883.718 432.814 883.408 432.814ZM875.143 430.685H882.138C879.114 413.804 872.296 391.245 856.943 377.017C854.471 374.727 852.092 372.945 849.919 371.558C856.801 378.182 862.781 388.56 867.764 402.571C872.332 415.392 874.57 427.367 875.143 430.685Z" fill="#1A1B22"/>
<path d="M883.408 431.75C883.408 431.75 883.085 362.655 910.179 352.31C910.179 352.31 893.959 368.643 892.02 431.75H883.408Z" fill="white"/>
<path d="M892.016 432.814H883.404C882.819 432.814 882.339 432.338 882.339 431.753C882.339 431.58 882.295 414.17 885.581 395.721C890.036 370.687 898.185 355.744 909.796 351.313C910.264 351.132 910.796 351.305 911.07 351.729C911.345 352.148 911.288 352.704 910.933 353.059C910.897 353.095 906.91 357.252 902.737 368.981C895.749 388.612 893.633 413.969 893.084 431.782C893.064 432.358 892.592 432.814 892.016 432.814ZM884.48 430.685H890.988C892.552 383.923 901.874 363.058 906.643 355.349C886.069 369.15 884.585 422.472 884.48 430.685Z" fill="#1A1B22"/>
<path d="M892.015 431.75C892.015 431.75 900.172 370.614 937.33 356.749C937.33 356.749 891.846 363.744 883.403 431.75H892.015Z" fill="white"/>
<path d="M892.016 432.814H883.404C883.097 432.814 882.807 432.681 882.605 432.455C882.404 432.225 882.307 431.923 882.347 431.621C884.291 415.977 888.363 402.26 894.451 390.842C899.342 381.678 905.531 373.969 912.853 367.929C925.36 357.611 936.689 355.773 937.165 355.7C937.705 355.62 938.221 355.954 938.358 356.482C938.495 357.011 938.213 357.559 937.701 357.748C927.311 361.627 912.635 372.078 901.729 399.841C895.169 416.545 893.088 431.741 893.068 431.895C893.004 432.419 892.552 432.814 892.016 432.814ZM884.617 430.685H891.101C891.661 427.105 894.028 413.634 899.749 399.059C906.228 382.565 914.852 370.122 925.077 362.365C921.731 364.099 917.965 366.461 914.111 369.65C907.026 375.517 901.031 383.012 896.29 391.923C890.5 402.805 886.577 415.84 884.617 430.685Z" fill="#1A1B22"/>
<path d="M883.408 432.814C882.819 432.814 882.343 432.338 882.343 431.75C882.343 431.548 882.295 411.332 878.452 386.56C874.917 363.764 867.361 332.34 851.423 312.083C851.06 311.62 851.14 310.951 851.6 310.588C852.064 310.225 852.733 310.305 853.096 310.765C869.324 331.392 876.989 363.208 880.561 386.266C884.424 411.195 884.472 431.548 884.472 431.75C884.472 432.338 883.996 432.814 883.408 432.814Z" fill="#1A1B22"/>
<path d="M858.683 321.465C861.568 319.518 858.685 310.202 852.243 300.658C845.802 291.114 838.242 284.955 835.357 286.901C832.472 288.848 835.355 298.164 841.796 307.708C848.237 317.253 855.798 323.412 858.683 321.465Z" fill="#0072FF"/>
<path d="M912.748 301.646C918.505 291.675 920.729 282.181 917.715 280.44C914.701 278.7 907.591 285.373 901.833 295.345C896.076 305.316 893.852 314.81 896.866 316.551C899.88 318.291 906.991 311.618 912.748 301.646Z" fill="#0072FF"/>
<path d="M893.318 461.295H873.489C872.901 461.295 872.425 460.82 872.425 460.231C872.425 459.642 872.901 459.167 873.489 459.167H893.318C893.907 459.167 894.382 459.642 894.382 460.231C894.386 460.82 893.907 461.295 893.318 461.295Z" fill="#1A1B22"/>
<path d="M900.176 488.869H866.901C866.313 488.869 865.837 488.394 865.837 487.805C865.837 487.216 866.313 486.74 866.901 486.74H900.176C900.765 486.74 901.241 487.216 901.241 487.805C901.241 488.394 900.765 488.869 900.176 488.869Z" fill="#1A1B22"/>
<path d="M977.939 22.7696C977.931 22.8287 977.913 22.8855 977.887 22.942L961.299 59.2925C961.142 59.633 960.741 59.785 960.401 59.6286C960.06 59.4722 959.91 59.0692 960.065 58.7306L976.651 22.378C976.808 22.0376 977.209 21.8855 977.549 22.0419C977.835 22.1708 977.988 22.4721 977.939 22.7696Z" fill="#1A1B22"/>
<path d="M992.856 54.0247C992.835 54.1467 992.784 54.2634 992.696 54.3611L981.157 67.4957C980.909 67.776 980.481 67.8057 980.199 67.556C979.918 67.3083 979.891 66.8784 980.138 66.598L991.678 53.4635C991.926 53.1831 992.354 53.1534 992.636 53.4031C992.819 53.5636 992.894 53.7997 992.856 54.0247Z" fill="#1A1B22"/>
<path d="M1000.62 44.8435C1000.6 44.9617 1000.55 45.0766 1000.46 45.1745L997.316 48.8478C997.071 49.1322 996.643 49.1657 996.359 48.9217C996.074 48.6776 996.041 48.2494 996.285 47.965L999.432 44.2916C999.676 44.0072 1000.1 43.9737 1000.39 44.2178C1000.58 44.3784 1000.65 44.6185 1000.62 44.8435Z" fill="#1A1B22"/>
<path d="M946.546 53.9573C946.492 54.2891 946.202 54.5348 945.856 54.5261C945.482 54.5142 945.188 54.2023 945.198 53.83L946.119 21.4285C946.129 21.0523 946.443 20.7597 946.817 20.7678C947.191 20.7798 947.486 21.0916 947.476 21.4639L946.557 53.8636C946.555 53.8981 946.552 53.9268 946.546 53.9573Z" fill="#1A1B22"/>
</g>
<defs>
<linearGradient id="paint0_linear_6766_37247" x1="704.802" y1="197.477" x2="972.207" y2="196.893" gradientUnits="userSpaceOnUse">
<stop stop-color="#FFDCD9"/>
<stop offset="1" stop-color="#3A8CEF"/>
</linearGradient>
<linearGradient id="paint1_linear_6766_37247" x1="317.052" y1="519.819" x2="591.826" y2="519.267" gradientUnits="userSpaceOnUse">
<stop stop-color="#FFDCD9"/>
<stop offset="1" stop-color="#389FFF"/>
</linearGradient>
<clipPath id="clip0_6766_37247">
<rect width="1018" height="648" fill="white" transform="translate(0 -0.000244141)"/>
</clipPath>
</defs>
</svg>
